<svg id="Layer_1" data-name="Layer 1" xmlns="http://www.w3.org/2000/svg" viewBox="0 0 115.71 116.07"><defs><style>.cls-1,.cls-2,.cls-3{fill:none;stroke:#000;}.cls-1{stroke-width:0.5px;}.cls-2{stroke-width:0.36px;}.cls-3{stroke-width:2px;}</style></defs><title>Tab (2)</title><circle class="cls-1" cx="57.85" cy="58.04" r="42.52"/><circle class="cls-2" cx="57.85" cy="58.04" r="48.19"/><path class="cls-2" d="M23.2,72.62a.69.69,0,0,0,0,.68.73.73,0,0,0,.6.33"/><path class="cls-1" d="M38.37,42.86a.72.72,0,0,0-.64-.41.69.69,0,0,0-.64.41"/><path class="cls-2" d="M51.62,73.63a.73.73,0,0,0,.6-.33.71.71,0,0,0,0-.68"/><path class="cls-2" d="M77.34,73.22a.7.7,0,0,0,1.28,0"/><path class="cls-1" d="M64.09,42.45a.7.7,0,0,0-.6.33.71.71,0,0,0,0,.68"/><path class="cls-2" d="M92.51,43.46a.71.71,0,0,0,0-.68.7.7,0,0,0-.6-.33"/><path class="cls-1" d="M39.65,42.26A2,2,0,0,0,37.73,41a2.13,2.13,0,0,0-1.93,1.23"/><path class="cls-2" d="M21.91,72a2.13,2.13,0,0,0,1.93,3"/><path class="cls-2" d="M51.62,75.05a2.14,2.14,0,0,0,1.79-1,2.3,2.3,0,0,0,.19-2"/><path class="cls-1" d="M64.09,41a2.12,2.12,0,0,0-1.79,1,2.31,2.31,0,0,0-.19,2"/><path class="cls-2" d="M93.8,44.05a2.15,2.15,0,0,0-.14-2,2.09,2.09,0,0,0-1.79-1"/><path class="cls-2" d="M76.05,73.82A2,2,0,0,0,78,75.05a2.13,2.13,0,0,0,1.93-1.23"/><circle class="cls-1" cx="57.85" cy="58.04" r="42.52"/><circle class="cls-3" cx="57.85" cy="58.04" r="48.19"/><path class="cls-1" d="M37.09,42.86a.69.69,0,0,1,.64-.41.72.72,0,0,1,.64.41L52.26,72.62a.71.71,0,0,1,0,.68.73.73,0,0,1-.6.33H23.84a.73.73,0,0,1-.6-.33.69.69,0,0,1,0-.68Z"/><path class="cls-1" d="M64.09,42.45a.7.7,0,0,0-.6.33.71.71,0,0,0,0,.68L77.34,73.22a.7.7,0,0,0,1.28,0L92.51,43.46a.71.71,0,0,0,0-.68.7.7,0,0,0-.6-.33Z"/><path class="cls-1" d="M51.62,75.05a2.14,2.14,0,0,0,1.79-1,2.3,2.3,0,0,0,.19-2l-14-29.76A2,2,0,0,0,37.73,41a2.13,2.13,0,0,0-1.93,1.23L21.91,72a2.13,2.13,0,0,0,1.93,3Z"/><path class="cls-1" d="M91.87,41a2.09,2.09,0,0,1,1.79,1,2.15,2.15,0,0,1,.14,2L79.91,73.82A2.13,2.13,0,0,1,78,75.05a2,2,0,0,1-1.93-1.23L62.11,44.05a2.31,2.31,0,0,1,.19-2,2.12,2.12,0,0,1,1.79-1Z"/></svg>