<svg id="Layer_1" data-name="Layer 1" xmlns="http://www.w3.org/2000/svg" viewBox="0 0 301.04 298.59"><defs><style>.cls-1,.cls-2{fill:none;stroke:#000;}.cls-1{stroke-width:2px;}</style></defs><title>Tab (2)</title><path class="cls-1" d="M277.68,288.78a7.92,7.92,0,0,0,7.94-7.94V15.8a8,8,0,0,0-2.32-5.61,7.86,7.86,0,0,0-5.62-2.32h-265A7.86,7.86,0,0,0,7,10.19,7.29,7.29,0,0,0,4.85,15.8v265A7.31,7.31,0,0,0,7,286.46a8,8,0,0,0,5.61,2.32Z"/><path d="M46.49,163.52V145H42.68l-8.47,17.63v2.92h9.72v7.09h2.56v-7.09h3.06v-2Zm-2.43-15.9-.05,1,0,.91,0,.85,0,.79v12.36H36l6.41-13.15.41-.88.35-.8.31-.68.25-.59.21-.48.15-.4Z"/><path d="M67.36,157.45l-.15-1.25v-3.43l-.16-1.27-.2-1.13-.26-1-.3-1-.36-.68-.4-.65-.64-.76-.75-.74-.85-.37-.95-.34-1.06-.2-1.16-.05-1.17.05-1.07.2-1,.34-.85.37-.74.74-.64.76-.41.65-.36.68-.31,1-.25,1L53,151.5v3.6l-.15,1.1v5.28l.15,1v3.68l.32,1.14.25,1,.3.9.35.8.41.65.65.77.76.62.86.48,1,.34,1.06.2,1.16.08,1.15-.08,1-.2,1-.34.85-.48.75-.62.66-.77.41-.65.36-.8.3-.9.26-1,.2-1.14.15-1.27v-3.43l.15-1.25v-2.78Zm-2.51,3.18,0,1.56,0,1.36-.07,1.13-.09.91-.23.71-.26,1.44-.53,1.19-.66.94-.81.68-.95.45H59l-.95-.45-.81-.68-.67-.94L56,167.74l-.38-1.44-.1-.71-.09-.91-.06-1.13,0-1.36,0-1.56v-3.55l0-1.56,0-1.36.06-1.13.09-.91.1-.71.38-1.47.52-1.22.67-.93.81-.68.95-.4,1.09-.14,1.1.14.95.4.81.68.66.93.53,1.22.26,1.47.23.71.09.91.07,1.13,0,1.36,0,1.56v3.55Z"/><path d="M85.59,157.45V156.2l0-1.1,0-.94,0-.76,0-.63-.15-1.27-.21-1.13-.25-1-.31-1-.29-.68-.46-.65-.65-.76-.74-.74-1-.37-.81-.34-1.06-.2-1.16-.05-1.17.05-1.07.2-1,.34-.85.37-.75.74-.67.76-.37.65-.36.68-.31,1-.25,1-.2,1.13-.15,1.27,0,.63,0,.76,0,.94,0,1.1,0,1.25v2.78l0,1.25,0,1,0,1,0,.76,0,.63.15,1.27.2,1.14.25,1,.3.9.35.8.39.65.67.77.76.62.86.48,1,.34,1.06.2,1.16.08,1.15-.08,1-.2.84-.34,1-.48.75-.62.66-.77.46-.65.31-.8.3-.9.25-1,.2-1.14.15-1.27,0-.63,0-.76,0-1,0-1v-4Zm-2.51,3.18,0,1.56,0,1.36-.07,1.13-.09.91-.11.71-.39,1.44-.52,1.19-.67.94-.81.68-1,.45H77.21l-.95-.45-.81-.68-.67-.94-.52-1.19-.38-1.44-.11-.71-.08-.91-.07-1.13,0-1.36,0-1.56v-3.55l0-1.56,0-1.36.07-1.13.08-.91.11-.71.38-1.47.52-1.22.67-.93.81-.68.95-.4,1.09-.14,1.09.14,1,.4.81.68.67.93.52,1.22.39,1.47.11.71.09.91.07,1.13,0,1.36,0,1.56v3.55Z"/><polygon points="98.94 172.65 98.94 144.07 101.23 144.07 101.23 161.14 108.25 152.72 111.07 152.72 104.06 161.36 111.5 172.65 108.63 172.65 101.23 161.79 101.23 172.65 98.94 172.65"/><path d="M125,152.41l-.14,2.6-.64-.85-.72-.68-.78-.54-.86-.39-.83-.23-1.1-.08-1.2.08-1.08.29-1,.42-.82.62-.69.8-.57,1-.33.82-.27.94-.21,1.05-.15,1.16-.09,1.25,0,1.39,0,1.44.09,1.33.14,1.19.19,1.08.25.94.31.82.55,1,.7.85.82.65,1,.46,1.1.28,1.24.08,1.1,0,.9-.23.85-.37.74-.51.65-.68.55-.82v3.43l0,.91-.07.65-.11.68-.17.59-.21.51-.27.4-.35.48-.45.4-.53.28-.61.2-.69.12-.77,0-1.16-.11-.94-.31-.74-.54-.52-.77-.32-1-.1-1.19h-2.63l.22,1.78.55,1.48.87,1.13,1.2.8,1.51.51,1.84.17,1.29-.06,1.17-.2,1.16-.42.77-.37.78-.6.65-.74.33-.53.31-.6.18-1,.15-1,.1-1.22,0-1.33V154.45l0-.65,0-.54,0-.49,0-.36Zm-.3,10.82,0,1.05-.09,1.05-.12.71-.16.74-.19.59-.39.8-.5.79-.6.57-.7.39-.87.23-.84.09-.88-.09-.77-.23-.68-.42-.57-.54-.46-.79-.37-.8-.14-.59-.12-.71-.1-.74-.06-1,0-1.05,0-1.16,0-1.13,0-1,.07-.9.11-.82.14-.68.16-.6.37-.82.47-.68L118,155l.68-.37.79-.23.89-.08,1.35.22,1.1.66.86,1.07.61,1.53.36,1.9.13,2.44Z"/><polygon points="139.2 176.33 137.22 176.33 148.65 143.73 150.71 143.73 139.2 176.33"/><polygon points="160.75 166.04 163.41 166.04 163.41 166.3 163.59 167.74 163.88 168.9 164.48 169.84 165.31 170.49 166.42 171 167.67 171 168.61 171 169.43 170.75 170.16 170.38 170.77 169.9 171.28 169.27 171.69 168.48 171.9 167.88 172.09 167.18 172.09 166.35 172.31 165.33 172.36 164.43 172.38 163.29 172.26 161.42 171.88 159.89 171.25 158.7 170.37 157.85 169.26 157.34 167.86 157.17 166.77 157.25 165.83 157.48 165.04 157.88 164.41 158.44 163.92 159.15 163.59 160.03 161.16 160.03 161.43 145.01 173.86 145.01 173.86 147.13 163.82 147.13 163.59 156.97 164.11 156.43 164.76 155.98 165.52 155.61 166.42 155.35 167.33 155.21 168.39 155.16 170.41 155.38 172.09 156.06 173.36 157.2 174.28 158.78 174.93 160.85 174.93 163.35 174.93 164.85 174.93 166.21 174.68 167.43 174.42 168.54 174.08 169.47 173.67 170.26 173.03 171.14 172.24 171.85 171.3 172.42 170.22 172.82 168.99 173.04 167.62 173.13 165.55 172.93 163.85 172.36 162.53 171.4 161.58 170.04 161.02 168.17 160.75 166.15 160.75 166.04"/><path d="M203.12,150.42l-.15-1.16-.25-.94-.35-1-.45-.79-.55-.65-.65-.57-.77-.45-.91-.34-1-.26-1.16-.17-1.27,0h-6.72v28.58h2.58V159.44h3.49l1.37,0,1.29-.14,1.06-.23,1-.34.81-.4.72-.51.61-.68.51-.79.39-.94.28-1.07.16-1.22.16-1.36Zm-2.43,2.3-.1.91-.15.79-.26.68-.31.59-.39.49-.46.39-.56.26-.67.31-.78.17-.89.11-1,0h-3.68V146.06h3.68l1,0,.87.11.78.17.67.25.57.32.46.39.39.48.32.51.27.74.15.8.1.87,0,1Z"/><path d="M219.63,163.06v-3.14l0-1.14-.13-1-.23-.93-.32-.91-.4-.79-.5-.71-.55-.65-.8-.57-.82-.43-.9-.28-1-.2-1.1,0-1.86.17-1.58.48-1.29.82-1,1.13-.73,1.45-.45,1.79-.06.48-.05.56,0,.54,0,.82,0,.8v.88l0,1.7.09,1.47.14,1.39.15,1.16.29,1,.31.83.59,1,.77.86.87.65,1.17.48,1.28.28,1.44.09,2-.17,1.64-.57,1.3-.88,1-1.27.63-1.65.29-2H217l-.12,1.39-.36,1.1L216,170l-.85.62-1.1.4h-2.72l-1.13-.59-.88-.88-.62-1.36-.38-1.45-.13-1.93v-1.73Zm-11.49-2.6.13-1.9.39-1.53.64-1.22.9-.85,1.15-.51,1.41-.17,1.35.17,1.11.48.86.82.62,1.08.36,1.56.13,1.81v.88h-9.05Z"/><polygon points="223.79 172.65 223.79 155.33 223.78 154.93 223.75 154.5 223.71 153.99 223.64 153.54 223.56 153.03 223.45 152.46 225.95 152.46 226.23 155.3 226.89 154.36 227.62 153.6 228.41 153 229.28 152.58 230.22 152.32 231.23 152.24 231.62 152.24 231.62 154.33 231.18 154.33 230.39 154.36 229.67 154.5 229.01 154.73 228.42 155.04 227.89 155.44 227.43 155.95 227.06 156.46 226.76 157.06 226.53 157.68 226.36 158.39 226.26 159.13 226.23 159.95 226.23 172.65 223.79 172.65"/><polygon points="233.93 166.75 236.44 166.75 236.44 167.2 236.53 168.45 236.82 169.47 237.29 170.26 237.94 170.83 238.79 171.17 239.81 171.28 241.01 171.17 241.98 171 242.74 170.35 243.28 169.64 243.61 168.71 243.72 167.57 243.64 166.92 243.43 166.3 242.96 165.73 242.56 165.33 241.9 164.68 241.11 164.23 237.81 162.5 236.77 161.85 235.92 161.11 235.26 160.29 234.79 159.38 234.46 158.42 234.46 157.34 234.46 156.52 234.46 155.78 234.81 155.1 235.12 154.5 235.52 153.99 236.01 153.48 236.53 153.12 237.11 152.8 237.76 152.55 238.47 152.38 239.24 152.26 240.12 152.24 241.76 152.41 243.13 152.83 244.21 153.6 244.97 154.65 245.43 156.01 245.58 157.68 245.58 158.02 243.33 158.02 243.33 157.74 243.24 156.69 242.96 155.81 242.5 155.16 241.85 154.67 241.02 154.36 240.12 154.28 239.01 154.36 238.2 154.59 237.57 154.99 237.12 155.53 236.84 156.23 236.75 157.11 236.83 157.74 237.05 158.36 237.29 158.95 237.93 159.49 238.6 160.03 239.41 160.51 242.49 162.16 243.57 162.84 244.45 163.6 245.13 164.45 245.62 165.33 245.79 166.44 246.01 167.54 245.79 169.24 245.33 170.66 244.47 171.74 243.27 172.5 241.73 172.96 239.84 173.13 238.03 172.96 236.56 172.48 235.41 171.68 234.46 170.55 234.09 169.1 233.93 167.32 233.93 166.75"/><rect x="250.84" y="169.44" width="3.04" height="3.21"/><path d="M96.17,206.35l-.23-.94-.38-.76L95,204l-.71-.45-.87-.25.76-.29.62-.39.48-.46.29-.85.26-.88.07-1.1,0-.77-.11-.76-.18-.65-.29-.66-.34-.36-.43-.35-.41-.22-.51-.17-.62-.14-.72-.12-.83-.05-.93,0H87.05v17.15H91.5l.89-.09.78-.08.65-.17.54-.2.41-.23.45-.42.34-.51.32-.63.21-.71.12-.82,0-.9Zm-7.58-10h2.58l.61.17h.94l.38.15.28.14.29.25.24.31.18.4.13.45.08.57,0,.57,0,.68-.09.54-.14.48-.21.42-.26.34-.32.37H93l-.39.29-.45.14-.51.08-.58.06H88.59Zm6,11.8-.08.62-.13.51-.19.45-.24.37-.29.29-.31.31h-.87l-.57.22-.66,0-.75,0H88.59v-7H91.1l.62.05.56.09.44.14.44.14.34.2.33.29.28.36.21.43.16.51.09.59,0,.66Z"/><path d="M106.1,211.85l0-.37,0-.37v-.42l0-.29v-6.91l-.1-1.08-.31-.88-.52-.68-.73-.48-.93-.28-1.14-.09-1,.09-1.12.25-.76.45-.54.63-.42.76v1l1.44,0,.07-.6.2-.51.31-.4.42-.28.55-.17.66-.06.42,0,.37,0,.34.09.3.11.26.14.33.17v.2l.22.28.12.26.08.31,0,.4,0,.39v1.31l-1.28.17h-1.62l-1.32.39-1,.57-.74.74-.44.93L98,208.79l0,.48.06.48.11.43.22.51V211l.39.34.3.31.35.26.38.2.42.14.45.08.55,0,.63-.06.64-.14.6-.25.57-.31.39-.46.62-.42.14,1.53h1.32Zm-1.55-4.56-.08,1.19-.25,1-.43.73-.61.49-.78.39-1,.12-.22,0-.41-.06-.28-.11-.25-.14-.22-.17-.2-.2-.15-.23L99.6,210l-.1-.26-.07-.31,0-.31v-.34l.05-.6.14-.54.25-.45.34-.37.44-.31.63-.23.26-.11.44-.06.53-.08.61,0,.7-.06h.78Z"/><polygon points="115.03 200.28 116.46 200.28 116.46 210.69 116.46 210.69 116.47 210.91 116.49 211.17 116.51 211.45 116.54 211.82 116.58 212.22 115.14 212.22 115.03 210.69 114.63 211.34 114.18 211.76 113.69 212.1 113.14 212.33 112.56 212.47 111.88 212.53 111.4 212.5 110.96 212.42 110.56 212.3 110.19 212.1 109.73 211.88 109.57 211.59 109.33 211.28 109.14 210.94 108.99 210.69 108.88 210.12 108.82 209.67 108.8 209.18 108.8 200.28 110.23 200.28 110.23 208.62 110.29 209.44 110.46 210.09 110.74 210.69 111.14 210.97 111.66 211.17 112.28 211.25 113.12 211.14 113.81 210.69 114.34 210.26 114.72 209.47 114.95 208.48 115.03 207.23 115.03 200.28"/><polygon points="120.87 213.52 120.85 214.15 120.81 214.68 120.75 215.16 120.66 215.56 120.54 215.87 120.39 216.1 120.17 216.36 119.88 216.36 119.52 216.61 119.08 216.72 118.57 216.78 117.98 216.78 117.54 216.78 117.54 215.48 118.05 215.48 118.23 215.48 118.54 215.45 118.74 215.39 118.9 215.34 119.03 215.22 119.13 215.11 119.19 215 119.23 214.85 119.27 214.68 119.3 214.46 119.31 214.2 119.32 213.92 119.32 200.28 120.87 200.28 120.87 213.52"/><rect x="119.26" y="195.07" width="1.81" height="1.84"/><path d="M131.07,211.85l0-.37,0-.37,0-.42v-7.2l-.1-1.08-.31-.88-.52-.68-.72-.48-.94-.28-1.14-.09-1.19.09-1,.25-.76.45-.42.63-.44.76-.11,1,1.45,0,.08-.6.19-.51.31-.4.43-.28.54-.17.66-.06.42,0,.38,0,.34.09.29.11.26.14.22.17.18.2.15.28.12.26.2.31v2.1l-1.33.17h-1.5l-1.44.39-1,.57-.73.74-.45.93-.14,1.14,0,.48.07.48.11.43.15.51.21.28.24.34.31.31.34.26.38.2.42.14.46.08.49,0,.59-.06.73-.14.61-.25.56-.31.53-.46.4-.42.22,1.53h1.32Zm-1.5-4.56v1.19l-.38,1-.43.73-.6.49-.78.39-1,.12-.33,0-.3-.06-.27-.11-.25-.14-.23-.17-.2-.2-.15-.23-.12-.25-.09-.26-.07-.31,0-.31,0-.34.05-.6.15-.54.24-.45.34-.37.44-.31.54-.23.35-.11.45-.06.52-.08.61,0,.7-.06h.83Z"/><polygon points="135.24 212.22 133.78 212.22 133.78 195.07 135.24 195.07 135.24 201.7 135.61 201.16 136.05 200.74 136.55 200.43 137.09 200.17 137.69 200.03 138.35 200 138.83 200 139.27 200.09 139.68 200.23 140.04 200.4 140.37 200.62 140.66 200.94 140.91 201.25 141.1 201.59 141.25 201.96 141.36 202.38 141.43 202.84 141.45 203.34 141.45 212.22 139.98 212.22 139.98 203.91 139.93 203.09 139.76 202.41 139.47 201.9 139.07 201.53 138.56 201.3 137.93 201.25 137.1 201.36 136.43 201.7 135.9 202.18 135.52 203.03 135.24 204.05 135.24 205.27 135.24 212.22"/><polygon points="144.22 212.22 144.22 201.84 144.21 201.62 144.19 201.36 144.17 201.08 144.13 200.76 144.08 200.45 144.02 200.11 145.52 200.11 145.68 201.81 146.08 201.28 146.58 200.79 146.99 200.45 147.51 200.2 148.08 200.03 148.68 200 148.97 200 148.97 201.25 148.65 201.25 148.18 201.28 147.75 201.33 147.35 201.47 146.99 201.67 146.58 201.93 146.4 202.18 146.18 202.52 146 202.86 145.86 203.26 145.76 203.66 145.7 204.11 145.68 204.62 145.68 212.22 144.22 212.22"/><rect x="151.18" y="200.28" width="1.84" height="1.91"/><rect x="151.18" y="210.29" width="1.84" height="1.92"/><polygon points="167.21 212.22 165.7 212.22 165.7 197.68 165.43 197.99 165.08 198.36 164.65 198.72 164.14 199.09 163.59 199.52 162.89 199.94 162.89 198.27 163.43 197.93 163.95 197.53 164.46 197.14 164.94 196.68 165.41 196.17 165.86 195.63 167.21 195.63 167.21 212.22"/><path d="M181.14,202.18v-1.24l0-.49,0-.39,0-.34-.07-.66-.11-.56-.14-.51-.14-.46-.22-.39-.22-.31-.4-.32-.46-.48-.53-.25-.59-.2-.66-.12-.72,0-1.29.14-1,.45-.82.77-.58,1.07-.35,1.48-.12,1.61.11,1.56.33,1.31.54,1,.76.74,1,.42,1.2.14.32,0,.3,0,.3-.06.33-.06.23-.11.27-.11.29-.17.25-.17.22-.2.19-.17.14-.31.12-.26v3.2l0,.57-.06.51-.08.45-.1.37-.13.34-.23.43-.29.37-.35.25-.42.2-.45.11-.53.06-.73-.08-.61-.23-.51-.31-.29-.54-.2-.65-.07-.83v0h-1.46v.25L173,210l.33.9.56.71.77.51,1,.32,1.22.11.86-.09.88-.19.68-.37.58-.48.45-.71.25-.71.23-.54.11-.71.09-.88.07-1.13,0-1.25v-3.29Zm-1.68-.22-.24,1-.39.79-.55.57-.71.34-.86.11-.49,0-.45-.11-.39-.17-.45-.23-.17-.31-.23-.37-.13-.34-.1-.34-.08-.42-.06-.49,0-.51,0-.56,0-.6,0-.57.06-.39.09-.54.1-.37.13-.34.39-.42.16-.34.35-.26.41-.2.46-.11.52,0,.93.11.57.34.53.54.38.77.23.85.07,1.33Z"/><path d="M191.93,205.41l-.28-1.3-.55-1-.76-.71-1-.45-1.2-.15-.31,0-.3,0-.3.06-.28,0-.28.2h-.27l-.14.2-.4.17-.22.2-.18.23-.15.22-.11.29v-3.18l0-.57.06-.39.08-.57.1-.4.12-.34.23-.42.43-.34.21-.28.41-.2.46-.12.53-.17.74.2.48.23.6.37.34.51.2.65.07.88h1.46v-.29l-.11-1.1-.34-.91-.55-.71-.78-.51-.89-.31-1.34-.08-.93.05-.81.2-.69.37-.57.45-.45.66-.33.76-.14.57-.11.85-.09.79-.06,1.08-.15,1.25v5l.16.34,0,.4.07.62.1.6.13.51.17.45.19.26.23.45.39.43.46.34.53.25.59.2.66.11.72.06,1.24-.17,1.11-.45.82-.77.58-1.08.32-1.39.15-1.67Zm-1.38,2.22,0,.53-.06.51-.09.46-.11.37-.13.34-.25.42-.29.43-.48.17-.28.2-.47.11-.51,0-.83-.12-.74-.39-.46-.49-.37-.76-.23-1-.07-1.22.07-1.25.24-1,.39-.85.43-.57.82-.34.86-.11.5,0,.44.12.39.17.34.23.28.31.23.37.13.31.11.34.09.45,0,.45,0,.54v1.17Z"/><polygon points="202.93 212.22 194.57 212.22 194.57 210.69 199.89 202.78 200.44 202.18 200.74 201.36 201.03 200.71 201.24 200.09 201.37 199.52 201.41 199.01 201.39 198.64 201.34 198.33 201.24 198.02 201.1 197.73 200.92 197.5 200.71 197.28 200.44 197.08 200.22 196.94 199.94 196.82 199.63 196.74 199.29 196.68 198.93 196.68 198.09 196.77 197.4 197.02 196.87 197.42 196.48 198.02 196.25 198.78 196.18 199.72 194.63 199.72 194.63 199.52 194.77 198.87 194.77 198.27 194.77 197.73 195.13 197.25 195.42 196.8 195.77 196.51 196.17 196.09 196.61 195.83 197.11 195.61 197.6 195.47 198.25 195.38 198.9 195.35 200.13 195.47 201.14 195.75 201.93 196.26 202.49 196.97 202.82 197.87 202.93 199.01 202.88 199.69 202.71 200.43 202.43 201.25 202.03 202.18 201.53 203 200.91 204 196.29 210.86 202.93 210.86 202.93 212.22"/><polygon points="88.04 240.56 80.35 240.56 80.35 223.41 88.04 223.41 88.04 224.86 81.9 224.86 81.9 231.1 87.68 231.1 87.68 232.37 81.9 232.37 81.9 239.03 88.04 239.03 88.04 240.56"/><polygon points="90.41 240.56 90.41 230.19 90.4 229.96 90.39 229.71 90.36 229.42 90.32 229.11 90.27 228.8 90.21 228.46 91.72 228.46 91.87 230.16 92.27 229.62 92.72 229.14 93.18 228.8 93.7 228.54 94.27 228.38 94.87 228.35 95.16 228.35 95.16 229.59 94.84 229.59 94.37 229.62 93.94 229.68 93.54 229.82 93.19 230.02 92.87 230.27 92.72 230.53 92.37 230.87 92.19 231.21 92.05 231.61 91.95 232 91.89 232.46 91.87 232.97 91.87 240.56 90.41 240.56"/><path d="M105,233.73l0-.79-.08-.74-.11-.65-.15-.57-.18-.45-.33-.68-.43-.51-.5-.43-.58-.28-.66-.17-.66-.06-.68.06-.55.14-.51.23-.48.31-.43.43-.39.48v-6.64H96.81v15.82l0,.34,0,.37,0,.31,0,.31h1.36l.13-1.36.38.51.42.43.47.31.52.23.56.14.69.06.66-.06.66-.2.58-.28.5-.4.43-.51.31-.65.19-.51.15-.57.12-.65.08-.85,0-.68,0-.88Zm-1.46,1.87,0,.6,0,.51-.07.48-.09.43-.1.36-.22.49-.28.42-.33.31-.39.23-.46.14-.51.06-.82-.14-.68-.46-.52-.59-.38-.91-.18-1.16V232l.2-.4.23-.6.29-.45.35-.43.42-.25.48-.17.54-.06.57.06.5.17.42.25.36.43.28.42.21.6.08.37.07.42.06.54,0,.48,0,.83v1.41Z"/><path d="M114.87,240.2l0-.37,0-.37V239l0-.28v-6.92l-.1-1.07-.31-.88-.52-.68-.73-.49-.93-.28-1.14-.08-1.32.08-.85.26-.76.45-.54.62-.33.77-.11,1,1.45,0,.08-.59.2-.51.31-.4.55-.28.42-.17.65-.06.42,0,.38,0,.34.08.3.12.33.14.14.17.19.2.15.28.12.25.08.32,0,.39,0,.4v1.3l-1.28.17h-1.62l-1.32.4-1,.57-.74.73-.43.94-.16,1.13.16.49v.9l.2.51.2.29.25.34.3.31.35.25.38.2.41.14.46.09.49,0,.69-.06.64-.14.6-.26.7-.31.39-.45.49-.43.14,1.53h1.32Zm-1.55-4.57-.08,1.19-.26,1-.41.74L112,239l-.78.4-1,.11-.33,0-.3-.06-.28-.12-.25-.14-.22-.17-.2-.19-.15-.23-.12-.26-.1-.25-.07-.31,0-.32v-.34l0-.59.14-.54.25-.45.34-.37.44-.31.53-.23.36-.11.44-.06.53-.09.61,0,.73-.06h.75Z"/><polygon points="123.9 228.63 125.23 228.63 125.23 239.03 125.23 239.03 125.24 239.26 125.26 239.51 125.28 239.8 125.31 240.17 125.34 240.56 123.9 240.56 123.9 239.03 123.4 239.69 122.95 240.11 122.46 240.45 121.91 240.68 121.3 240.82 120.65 240.88 120.17 240.85 119.73 240.76 119.33 240.65 118.96 240.45 118.63 240.22 118.23 239.94 118.23 239.63 117.91 239.29 117.76 239.03 117.65 238.47 117.59 238.01 117.56 237.53 117.56 228.63 119 228.63 119 236.96 119.06 237.79 119.23 238.44 119.51 239.03 119.91 239.32 120.42 239.51 121.07 239.6 121.89 239.49 122.58 239.03 123.11 238.61 123.49 237.81 123.72 236.82 123.9 235.57 123.9 228.63"/><path d="M136,234.84v-1.9l0-.68-.08-.63-.14-.56-.19-.54-.36-.45-.18-.43-.38-.4-.43-.34-.49-.25-.54-.17-.6-.11-.66,0-1.12.08-.94.28-.78.49-.61.68-.44.88-.27,1.07,0,.29,0,.34,0,.39v1.42l0,1,0,.91.08.82.12.71.15.59.19.52.35.62.46.51.47.4.76.28.76.17.87.06,1.19-.12,1-.34.78-.54.58-.85.37-.88L136,237h-1.55l-.08.83-.21.65-.37.59-.51.31-.66.23-.8.09-.83-.12-.68-.31-.52-.54-.26-.73-.35-.94-.07-1.16v-1Zm-6.89-1.48.07-1.24.35-.91.27-.68.54-.57.69-.31.85-.08.81.08.66.31.52.57.37.59.22.91.07,1.08v.51h-5.42Z"/><polygon points="138.53 240.56 138.53 230.19 138.53 229.96 138.51 229.71 138.48 229.42 138.44 229.11 138.4 228.8 138.33 228.46 139.84 228.46 140 230.16 140.39 229.62 140.91 229.14 141.31 228.8 141.83 228.54 142.39 228.38 143 228.35 143.28 228.35 143.28 229.59 142.97 229.59 142.5 229.62 142.06 229.68 141.67 229.82 141.31 230.02 140.91 230.27 140.72 230.53 140.5 230.87 140.32 231.21 140.18 231.61 140.08 232 140.02 232.46 140 232.97 140 240.56 138.53 240.56"/><rect x="145.5" y="228.62" width="1.84" height="1.91"/><rect x="145.5" y="238.64" width="1.84" height="1.92"/><path d="M165.5,234.7l-.24-.94-.4-.76-.55-.63-.72-.45-.86-.26.86-.28.52-.4.48-.45.35-.85.21-.88.07-1.11,0-.76-.12-.77-.19-.65-.27-.65-.35-.37-.43-.34-.41-.23-.51-.17-.62-.14-.72-.11-.81-.06-.95,0h-3.4v17.15h4.35l1-.08.77-.09.66-.17.44-.19.51-.23.45-.43.37-.51.28-.62.21-.71.12-.82,0-.91Zm-7.58-10h2.58l.6.17h1l.36.14.27.14.29.26.24.31.18.4.18.45v2.35l-.2.49-.2.42-.27.34-.32.37h-.32l-.39.28-.45.14-.51.09-.57.06h-2.44Zm6,11.79-.08.63-.23.51v.45l-.33.37-.3.28-.3.31h-.88l-.57.23-.66,0-.75,0h-1.88v-7h2.5l.63.05.55.09.48.14.41.14.33.2.34.28.27.37.16.43.21.51.09.59,0,.65Z"/><polygon points="174.19 228.63 175.62 228.63 175.62 239.03 175.63 239.03 175.63 239.26 175.65 239.51 175.67 239.8 175.7 240.17 175.74 240.56 174.3 240.56 174.19 239.03 173.79 239.69 173.34 240.11 172.85 240.45 172.3 240.68 171.7 240.82 171.04 240.88 170.56 240.85 170.12 240.76 169.72 240.65 169.26 240.45 169.02 240.22 168.73 239.94 168.5 239.63 168.3 239.29 168.15 239.03 168.04 238.47 167.98 238.01 167.96 237.53 167.96 228.63 169.26 228.63 169.26 236.96 169.45 237.79 169.62 238.44 169.9 239.03 170.3 239.32 170.82 239.51 171.44 239.6 172.28 239.49 172.97 239.03 173.5 238.61 173.88 237.81 174.11 236.82 174.19 235.57 174.19 228.63"/><polygon points="178.41 240.56 178.41 230.19 178.4 229.96 178.38 229.71 178.35 229.42 178.32 229.11 178.27 228.8 178.2 228.46 179.71 228.46 179.87 230.16 180.26 229.62 180.6 229.14 181.18 228.8 181.7 228.54 182.26 228.38 182.87 228.35 183.16 228.35 183.16 229.59 182.84 229.59 182.37 229.62 181.93 229.68 181.54 229.82 181.18 230.02 180.87 230.27 180.6 230.53 180.37 230.87 180.19 231.21 180.05 231.61 179.95 232 179.89 232.46 179.87 232.97 179.87 240.56 178.41 240.56"/><path d="M191.35,228.43l-.08,1.56-.39-.51-.43-.4-.47-.34-.51-.22-.56-.14-.6,0-.72,0-.65.16-.67.26-.39.4-.42.45-.34.6-.19.48-.17.56-.12.63-.09.68-.06.76v1.7l.06.8.08.71.11.65.16.57.18.48.33.76.42.37.44.4.63.25.67.17.74.06.63,0,.57-.14.51-.23.44-.31.39-.4.33-.48v2.55l0,.46-.07.39-.09.34-.13.32-.15.28-.22.26-.27.22-.32.17-.37.12-.4.08-.48,0-.69-.06-.56-.2-.45-.34-.31-.45-.19-.57-.15-.71h-1.49l.13,1.08.33.88.52.68.72.48.91.31,1.11.09.77,0,.7-.14.62-.23.54-.22.46-.37.34-.43.25-.34.17-.42.13-.51.09-.54.05-.8,0-.82v-10.6l0-.37v-.34l0-.28,0-.23Zm-.18,6.49,0,.63,0,.65-.08.42-.09.43-.11.37-.24.51-.3.45-.36.31-.42.34h-2l-.4-.34-.35-.34-.28-.42-.17-.51v-.37l-.2-.43-.06-.42,0-.63,0-.62v-1.36l0-.62,0-.54.07-.48.18-.43v-.34l.22-.51.28-.4.35-.31.41-.22.47-.15.54,0,.81.11.65.4.52.65.37.9.22,1.2.07,1.41Z"/><path d="M203.47,234.84v-1.9l0-.68-.17-.63v-.56l-.24-.54-.24-.45-.3-.43-.38-.4-.43-.34-.49-.25-.54-.17-.6-.11-.66,0-1.12.08-.94.28-.78.49-.61.68-.44.88-.27,1.07,0,.29,0,.34,0,.39,0,.51v.91l0,1,.05.91.08.82.12.71.15.59.19.52.35.62.46.51.56.4.67.28.76.17.87.06,1.05-.12,1.12-.34.78-.54.58-.85.35-.88.2-1.19h-1.55l-.08.83-.22.65-.36.59-.51.31-.66.23-.8.09-.83-.12-.68-.31-.52-.54-.38-.73-.23-.94-.07-1.16v-1Zm-6.89-1.48.07-1.24.23-.91.39-.68.54-.57.69-.31.85-.08.81.08.66.31.52.57.37.59.22.91.07,1.08v.51h-5.42Z"/><polygon points="205.96 240.56 205.96 230.19 205.96 229.96 205.94 229.71 205.91 229.42 205.87 229.11 205.82 228.8 205.76 228.46 207.27 228.46 207.43 230.16 207.82 229.62 208.26 229.14 208.74 228.8 209.26 228.54 209.82 228.38 210.43 228.35 210.72 228.35 210.72 229.59 210.4 229.59 209.92 229.62 209.49 229.68 209.1 229.82 208.74 230.02 208.42 230.27 208.14 230.53 207.93 230.87 207.75 231.21 207.6 231.61 207.51 232 207.45 232.46 207.43 232.97 207.43 240.56 205.96 240.56"/><polygon points="77.25 268.91 77.25 251.76 84.44 251.76 84.44 253.21 78.8 253.21 78.8 259.44 84.07 259.44 84.07 260.72 78.8 260.72 78.8 268.91 77.25 268.91"/><path d="M93.79,268.54l0-.37,0-.37,0-.42v-7.2l-.11-1.08-.31-.88-.56-.68-.68-.48-.94-.28-1.21-.09-1.12.09-1,.25-.75.46-.56.62-.32.77-.11,1,1.45,0,.08-.6.19-.51.31-.39.43-.29.54-.17.66-.05.42,0,.38,0,.34.09.3.11.25.14.22.17.18.2.15.29.12.25.09.31,0,.4v1.7l-1.27.17H89.34l-1.33.4-1,.56-.8.74-.44.94-.15,1.13,0,.48.07.48.11.43.16.51.2.28.24.34.31.32.28.25.44.2.42.14.46.09.49,0,.68,0,.65-.14.6-.26.56-.31.53-.46.48-.42.15,1.53h1.32ZM92.23,264l-.08,1.19-.25,1-.43.74-.6.48-.78.4-1,.11-.32,0-.31-.06-.27-.11-.25-.14-.23-.17-.2-.2L87.4,267l-.12-.25-.23-.26v-1.55l.21-.54.24-.46.34-.37.44-.31.54-.22.35-.12.45-.05.52-.09.62,0,.69-.05h.78Z"/><path d="M104.67,262.08l0-.79-.09-.74-.11-.65-.15-.57-.22-.45-.3-.68-.41-.51-.5-.43-.59-.28-.66-.17-.74-.06-.59.06-.56.14-.51.22-.47.32-.34.42-.49.48v-6.63H96.52v16.16l0,.37,0,.31,0,.31h1.36l.13-1.36.49.51.31.42.47.32.52.22.56.15.61.05.74-.05.66-.2.58-.29.5-.39.42-.51.3-.66.21-.51.15-.56.12-.65.08-.86,0-.68,0-.87ZM103.22,264l0,.59,0,.52-.07.48L103,266l-.11.37-.22.48-.27.43-.34.31-.39.23-.42.14-.54.05-.83-.14-.67-.45-.53-.6-.27-.9-.33-1.17L98,263.3v-.74l0-.65,0-.6.06-.54.08-.45.18-.4v-.59l.43-.45.36-.43.41-.25.48-.18.54,0,.62,0,.45.18.42.25.36.43.28.42.21.6.09.36.07.43,0,.54,0,.48,0,.82V264Z"/><rect x="107.56" y="266.99" width="1.82" height="1.92"/><polygon points="112.83 268.91 112.83 251.76 115.23 251.76 122.47 267.95 122.39 267.38 122.32 266.73 122.27 266.13 122.23 265.48 122.21 264.83 122.2 264.18 122.2 251.76 123.69 251.76 123.69 268.91 121.37 268.91 114.12 252.87 114.19 253.38 114.25 253.91 114.29 254.48 114.32 255.08 114.34 255.67 114.35 256.3 114.35 268.91 112.83 268.91"/><polygon points="126.74 268.91 126.74 258.54 126.74 258.31 126.74 258.05 126.74 257.77 126.74 257.46 126.74 257.15 126.54 256.81 128.04 256.81 128.2 258.51 128.59 257.97 129.03 257.49 129.57 257.15 130.03 256.89 130.59 256.72 131.2 256.69 131.49 256.69 131.49 257.94 131.17 257.94 130.7 257.97 130.26 258.02 129.87 258.17 129.57 258.37 129.2 258.62 128.92 258.88 128.7 259.22 128.52 259.56 128.38 259.95 128.28 260.35 128.22 260.8 128.2 261.31 128.2 268.91 126.74 268.91"/><rect x="133.54" y="266.99" width="1.7" height="1.92"/><rect x="139.15" y="256.97" width="1.76" height="1.91"/><rect x="139.15" y="266.99" width="1.76" height="1.92"/><polygon points="151.42 268.91 156.63 253.75 149.74 253.75 149.74 252.33 158.07 252.33 158.07 254.2 153.06 268.91 151.42 268.91"/><path d="M169,262.11l-.33-1.31-.54-1-.77-.71-1-.45-1.23-.14-.31,0-.31,0-.29.06-.29.06-.4.2-.43.19-.25.17-.22.2-.18.23-.15.23-.12.28v-2.55l0-.63,0-.56.06-.4.07-.57.1-.39.13-.34.23-.43.29-.34.42-.28.33-.2.47-.11.52-.17.75.19.6.23.47.37.34.51.2.65.07.88h1.46v-.28l-.11-1.11-.33-.91-.56-.7-.78-.51-1-.32-1.22-.08-.93.06-.81.19-.69.37-.57.46-.46.65-.33.76-.26.57v2.72l-.17,1.25v4l0,.56v.48l.15.34v1.62l.21.51.16.45.2.26.22.45.4.43.46.34.53.25.66.2.59.12.72.05,1.29-.17,1.06-.45.81-.77.59-1.07.35-1.39.26-1.68Zm-1.42,2.21,0,.54-.06.51-.09.45-.11.37-.14.34-.24.42-.3.43-.35.17-.41.2-.46.11-.52,0-.82-.11-.68-.4-.52-.48-.38-.77-.22-1-.08-1.22.08-1.25.24-1,.39-.85.54-.57.71-.34.86-.11.49,0,.44.11.5.17.23.23.29.31.23.37.13.31.11.34.08.45.06.46,0,.54v1.16Z"/><path d="M180,262.11l-.33-1.31-.55-1-.76-.71-1-.45-1.21-.14-.31,0-.3,0-.29.06-.29.06-.27.2h-.27l-.29.19-.26.17-.21.2-.19.23-.15.23-.11.28V257l0-.56.05-.4.08-.57.1-.39.12-.34.23-.43.29-.34.35-.28.48-.2.4-.11.52-.17.74.19.61.23.56.37.25.51.2.65.07.88h1.46v-.28l-.11-1.11-.33-.91-.56-.7-.78-.51-1-.32-1.22-.08-.81.06-.94.19-.69.37-.57.46-.45.65-.33.76-.14.57-.11.85-.09.79-.06,1.08,0,1.25v4.56l0,.48,0,.34,0,.4.07.63.1.59.14.51.19.45.16.26.23.45.4.43.46.34.52.25.6.2.65.12.73.05,1.29-.17,1.05-.45.82-.77.59-1.07.35-1.39.11-1.68Zm-1.43,2.21,0,.54,0,.51-.09.45-.11.37-.14.34-.33.42-.21.43-.35.17-.41.2-.47.11-.51,0-.88-.11-.62-.4-.53-.48-.37-.77-.23-1-.07-1.22.08-1.25.23-1,.39-.85.55-.57.57-.34,1-.11.5,0,.44.11.39.17.34.23.17.31.34.37.14.31.1.34.09.45.06.46,0,.54,0,.56Z"/><polygon points="187.99 268.91 186.49 268.91 186.49 254.37 186.27 254.68 185.86 255.05 185.43 255.42 184.92 255.79 184.34 256.21 183.67 256.64 183.67 254.96 184.21 254.62 184.74 254.23 185.24 253.83 185.73 253.38 186.27 252.87 186.65 252.33 187.99 252.33 187.99 268.91"/><polygon points="193.4 264.97 194.95 264.97 194.95 265.11 195.03 265.96 195.24 266.67 195.59 267.24 196.09 267.63 196.73 267.86 197.6 267.95 198.07 267.92 198.57 267.78 199 267.58 199.37 267.38 199.68 266.9 199.92 266.42 200.05 266.08 200.15 265.65 200.23 265.14 200.29 264.55 200.44 263.98 200.44 263.33 200.26 262.19 200.04 261.29 199.66 260.55 199.13 260.04 198.45 259.75 197.6 259.64 196.97 259.7 196.41 259.84 195.94 260.07 195.55 260.41 195.26 260.83 195.06 261.37 193.6 261.37 193.76 252.33 201.23 252.33 201.23 253.6 195.2 253.6 195.04 259.53 195.37 259.19 195.76 258.88 196.22 258.7 196.73 258.56 197.3 258.45 197.94 258.42 199.16 258.56 200.15 258.88 200.92 259.67 201.47 260.61 201.81 261.71 201.92 263.35 201.89 264.23 201.82 265.06 201.72 265.79 201.56 266.44 201.36 267.01 201.11 267.38 200.72 268.03 200.25 268.46 199.69 268.8 199.04 269.02 198.3 269.17 197.6 269.22 196.24 269.11 195.22 268.74 194.42 268.17 193.86 267.38 193.52 266.3 193.4 265.03 193.4 264.97"/><polygon points="212.78 268.91 204.41 268.91 204.41 267.38 209.74 259.47 210.2 258.88 210.58 258.05 210.88 257.4 211.09 256.78 211.22 256.21 211.26 255.7 211.24 255.33 211.18 255.02 211.08 254.71 210.95 254.43 210.77 254.2 210.56 253.97 210.32 253.77 210.07 253.63 209.78 253.52 209.47 253.43 209.14 253.38 208.78 253.38 207.93 253.46 207.25 253.72 206.71 254.11 206.33 254.71 206.11 255.47 206.11 256.41 204.47 256.41 204.47 256.21 204.5 255.56 204.6 254.96 204.76 254.43 204.98 253.94 205.27 253.49 205.62 253.21 206.11 252.78 206.46 252.53 206.95 252.3 207.5 252.16 208.1 252.07 208.75 252.04 209.98 252.16 210.99 252.44 211.78 252.95 212.33 253.66 212.67 254.57 212.78 255.7 212.72 256.38 212.55 257.12 212.27 257.94 211.78 258.88 211.38 259.7 210.76 260.69 206.11 267.55 212.78 267.55 212.78 268.91"/><path class="cls-2" d="M79,48.15V78.74H98V85.2H72V48.15Z"/><path class="cls-2" d="M138.23,66.89c-.1,9.58-6,19.16-19,19.16s-19-9.37-19-19.11,6.25-19.53,19-19.53S138.34,57.2,138.23,66.89Zm-31.17.16c.16,6.08,3.44,12.59,12.17,12.59s12-6.56,12.12-12.65S128,53.76,119.23,53.76,106.9,60.8,107.06,67.05Z"/><path class="cls-2" d="M170.88,57.2a14.18,14.18,0,0,0-9.42-3.7c-7.94,0-12.75,6-12.75,13.65,0,6.09,3.54,12.39,12.75,12.39a12.31,12.31,0,0,0,8.36-3V70h-9.47V63.77h15.88V79.38a18.46,18.46,0,0,1-14.77,6.67c-13.92,0-19.58-9.16-19.58-18.9,0-10.42,6.51-20.05,19.58-20.05a19.54,19.54,0,0,1,13.76,5.66Z"/><path class="cls-2" d="M218.35,66.89c-.1,9.58-6,19.16-19,19.16s-19-9.37-19-19.11,6.25-19.53,19-19.53S218.46,57.2,218.35,66.89Zm-31.17.16c.16,6.08,3.44,12.59,12.17,12.59s12-6.56,12.12-12.65-3.39-13.23-12.12-13.23S187,60.8,187.18,67.05Z"/></svg>