<svg id="Layer_1" data-name="Layer 1" xmlns="http://www.w3.org/2000/svg" viewBox="0 0 156.04 263.94"><defs><style>.cls-1{fill:none;stroke:#000;}</style></defs><title>Tab (2)</title><path class="cls-1" d="M41,159h0a8.84,8.84,0,0,1,8.31-2.29l1.15,8a7.49,7.49,0,0,1-4.87,1.15,32.31,32.31,0,0,0,5.3,12.6l.71-.28a7.91,7.91,0,0,1,3.44-2.58l5.15,6a10.33,10.33,0,0,1-6.87,4.59A26.64,26.64,0,0,1,41,159Z"/><path class="cls-1" d="M60.33,220.81h0l-4.94,2.47v4h4.38a1.12,1.12,0,0,1,1,.5,1,1,0,0,1,.4.86,1.35,1.35,0,0,1-.4,1,1.37,1.37,0,0,1-1,.4H53.93a1.37,1.37,0,0,1-1.27-1.37v-6.2a1.39,1.39,0,0,1,.75-1.23l3.35-1.73-3.58-2.23a1.52,1.52,0,0,1-.66-1.17v-3.21H47.63a1.39,1.39,0,0,1-1.19-.68,1.46,1.46,0,0,1,0-1.42l5.79-9.85a1.37,1.37,0,0,1,1.87-.49,1.39,1.39,0,0,1,.63.83,1.26,1.26,0,0,1-.15,1L50,210.14h3.92a1.37,1.37,0,0,1,1.32,1.37v3.8l5.17,3.11a1.5,1.5,0,0,1,.66,1.22A1.36,1.36,0,0,1,60.33,220.81Z"/><path class="cls-1" d="M42.4,212.89h0a7.92,7.92,0,0,0-3.69,6.7,7.61,7.61,0,0,0,2.93,6.15,1.36,1.36,0,0,1,.48,1.28,1.57,1.57,0,0,1-.86,1.06,1.22,1.22,0,0,1-1.34-.3A10.38,10.38,0,0,1,36,219.59a10.67,10.67,0,0,1,5-9,1.37,1.37,0,0,1,1.46,2.31Z"/><path class="cls-1" d="M44.39,216h0a4.22,4.22,0,0,0-2,3.56A4.15,4.15,0,0,0,44,222.86a1.34,1.34,0,0,1,.49,1.27,1.49,1.49,0,0,1-.86,1.06,1.3,1.3,0,0,1-1.35-.25,6.77,6.77,0,0,1-2.51-5.35,7.25,7.25,0,0,1,3.18-6,1.64,1.64,0,0,1,1.88.54,1.37,1.37,0,0,1-.42,1.88Z"/><path class="cls-1" d="M44.61,222.11h0a1.36,1.36,0,0,0,1.35.19,1.41,1.41,0,0,0,.86-1.06,1.37,1.37,0,0,0-.49-1.27.49.49,0,0,1-.18-.38c0-.17.09-.32.23-.32a1.51,1.51,0,0,0,.42-2,1.37,1.37,0,0,0-1.88-.42,3.23,3.23,0,0,0-1.5,2.72A3.3,3.3,0,0,0,44.61,222.11Z"/><path class="cls-1" d="M61.84,204.64h0a2.23,2.23,0,0,0-.65-1.58,2,2,0,0,0-3.16,0,2.28,2.28,0,0,0-.65,1.58,2.53,2.53,0,0,0,.65,1.58,2.25,2.25,0,0,0,3.16,0A2.48,2.48,0,0,0,61.84,204.64Z"/><path class="cls-1" d="M83.69,214.74A5.67,5.67,0,1,1,78,209.07,5.67,5.67,0,0,1,83.69,214.74Z"/><path class="cls-1" d="M83.69,172.22A5.67,5.67,0,1,1,78,166.55,5.67,5.67,0,0,1,83.69,172.22Z"/><circle class="cls-1" cx="78.02" cy="245.92" r="2.83"/><path class="cls-1" d="M18.49,46.36a2.84,2.84,0,1,1-2.83-2.83A2.84,2.84,0,0,1,18.49,46.36Z"/><path class="cls-1" d="M18.49,18a2.84,2.84,0,1,1-2.83-2.83A2.84,2.84,0,0,1,18.49,18Z"/><path class="cls-1" d="M49.67,18a2.83,2.83,0,1,1-2.83-2.83A2.83,2.83,0,0,1,49.67,18Z"/><path class="cls-1" d="M80.86,18A2.84,2.84,0,1,1,78,15.18,2.84,2.84,0,0,1,80.86,18Z"/><path class="cls-1" d="M49.67,46.36a2.83,2.83,0,1,1-2.83-2.83A2.83,2.83,0,0,1,49.67,46.36Z"/><path class="cls-1" d="M49.67,74.71a2.83,2.83,0,1,1-2.83-2.84A2.83,2.83,0,0,1,49.67,74.71Z"/><path class="cls-1" d="M80.86,74.71A2.84,2.84,0,1,1,78,71.87,2.84,2.84,0,0,1,80.86,74.71Z"/><path class="cls-1" d="M80.86,46.36A2.84,2.84,0,1,1,78,43.53,2.84,2.84,0,0,1,80.86,46.36Z"/><path class="cls-1" d="M18.49,74.71a2.84,2.84,0,1,1-2.83-2.84A2.83,2.83,0,0,1,18.49,74.71Z"/><path class="cls-1" d="M143.22,74.71a2.84,2.84,0,1,1-2.84-2.84A2.84,2.84,0,0,1,143.22,74.71Z"/><path class="cls-1" d="M143.22,46.36a2.84,2.84,0,1,1-2.84-2.83A2.84,2.84,0,0,1,143.22,46.36Z"/><path class="cls-1" d="M143.22,18a2.84,2.84,0,1,1-2.84-2.83A2.84,2.84,0,0,1,143.22,18Z"/><path class="cls-1" d="M112,18a2.84,2.84,0,1,1-2.84-2.83A2.84,2.84,0,0,1,112,18Z"/><path class="cls-1" d="M112,46.36a2.84,2.84,0,1,1-2.84-2.83A2.84,2.84,0,0,1,112,46.36Z"/><path class="cls-1" d="M112,74.71a2.84,2.84,0,1,1-2.84-2.84A2.84,2.84,0,0,1,112,74.71Z"/></svg>