<svg id="Layer_1" data-name="Layer 1" xmlns="http://www.w3.org/2000/svg" viewBox="0 0 115.71 116.07"><defs><style>.cls-1,.cls-2{fill:none;stroke:#000;}.cls-1{stroke-width:0.5px;}.cls-2{stroke-width:2px;}</style></defs><title>Tab (2)</title><path class="cls-1" d="M77,58c0,11-8.56,19.84-19.11,19.84S38.75,69,38.75,58s8.55-19.85,19.1-19.85S77,47.08,77,58Z"/><ellipse class="cls-1" cx="57.85" cy="58.04" rx="23.2" ry="24.09"/><line class="cls-1" x1="61.56" y1="38.57" x2="61.56" y2="66.54"/><line class="cls-1" x1="54.15" y1="38.57" x2="54.15" y2="66.54"/><line class="cls-1" x1="54.15" y1="66.54" x2="61.56" y2="66.54"/><path class="cls-1" d="M90.6,18.35H25.1A5.56,5.56,0,0,0,19.65,24h0v68h0a5.56,5.56,0,0,0,5.45,5.67H90.6a5.56,5.56,0,0,0,5.46-5.67V24A5.57,5.57,0,0,0,90.6,18.35Z"/><path class="cls-1" d="M16.92,24v68h0a8.35,8.35,0,0,0,8.18,8.51H90.6a8.35,8.35,0,0,0,8.19-8.51V24a8.34,8.34,0,0,0-8.19-8.5H25.1A8.34,8.34,0,0,0,16.92,24"/><path class="cls-2" d="M90.6,106.23a13.92,13.92,0,0,0,13.65-14.18V24A13.92,13.92,0,0,0,90.6,9.85H25.1A13.92,13.92,0,0,0,11.46,24h0v68h0A13.92,13.92,0,0,0,25.1,106.23Z"/></svg>