<svg id="Layer_1" data-name="Layer 1" xmlns="http://www.w3.org/2000/svg" viewBox="0 0 115.71 116.07"><defs><style>.cls-1,.cls-2{fill:none;stroke:#000;}.cls-1{stroke-width:0.5px;}.cls-2{stroke-width:2px;}</style></defs><title>Tab (2)</title><polygon class="cls-1" points="62.9 57.45 64.26 58.04 65.37 58.92 66.24 59.93 66.86 61.14 67.23 62.54 67.35 64.13 67.27 65.52 67.02 66.79 66.6 67.96 66.02 69.03 65.27 69.98 64.36 70.82 63.4 71.49 62.34 72.03 61.19 72.46 59.95 72.76 58.61 72.94 57.18 73 55.79 72.93 54.5 72.73 53.31 72.39 52.22 71.93 51.23 71.32 50.34 70.58 49.57 69.72 48.93 68.75 48.44 67.68 48.09 66.54 47.93 65.24 47.93 63.86 47.93 63.71 52.16 63.71 52.3 65.31 52.73 66.54 53.45 67.74 54.45 68.49 55.73 68.95 57.3 69.1 58.07 69.07 58.79 68.97 59.45 68.81 60.05 68.59 60.59 68.31 61.08 67.95 61.55 67.51 61.93 67 62.11 66.54 62.44 65.79 62.57 65.1 62.61 64.34 62.47 62.92 62.11 61.75 61.28 60.87 60.24 60.2 58.91 59.81 57.28 59.68 56.9 59.68 56.44 59.68 56.25 59.68 55.98 59.68 55.75 59.68 55.56 59.68 55.56 56.26 56.61 56.26 58.17 56.14 59.44 55.8 60.43 55.2 61.14 54.43 61.56 53.4 61.7 52.14 61.67 51.53 61.57 50.97 61.39 50.46 61.15 49.99 60.84 49.53 60.46 49.2 60.05 48.89 59.6 48.64 59.1 48.45 58.57 48.31 57.99 48.22 57.38 48.19 55.94 48.33 54.77 48.75 53.86 49.53 53.21 50.44 52.82 51.7 52.69 53.24 52.69 53.48 48.41 53.48 48.41 53.29 48.47 51.97 48.67 50.75 49.01 49.53 49.48 48.6 50.08 47.67 50.77 46.7 51.68 46.11 52.63 45.51 53.6 45.05 54.82 44.73 56.05 44.53 57.38 44.46 58.6 44.51 59.76 44.66 60.83 44.9 61.83 45.24 62.75 45.68 63.59 46.21 64.44 46.91 65.12 47.71 65.66 48.6 66.04 49.53 66.27 50.67 66.35 51.85 66.25 53.13 65.96 54.26 65.48 55.2 64.94 56.13 63.95 56.86 62.9 57.45"/><path class="cls-1" d="M91.87,18.35h-68A5.67,5.67,0,0,0,18.17,24h0v68h0a5.67,5.67,0,0,0,5.67,5.67h68a5.67,5.67,0,0,0,5.67-5.67V24A5.67,5.67,0,0,0,91.87,18.35Z"/><path class="cls-1" d="M15.33,24v68h0a8.51,8.51,0,0,0,8.51,8.51h68a8.5,8.5,0,0,0,8.5-8.51V24a8.49,8.49,0,0,0-8.5-8.5h-68A8.5,8.5,0,0,0,15.33,24"/><path class="cls-2" d="M91.87,106.23A14.17,14.17,0,0,0,106,92.05V24A14.17,14.17,0,0,0,91.87,9.85h-68A14.18,14.18,0,0,0,9.66,24h0v68h0a14.18,14.18,0,0,0,14.18,14.18Z"/></svg>