<svg id="Layer_1" data-name="Layer 1" xmlns="http://www.w3.org/2000/svg" viewBox="0 0 115.71 116.07"><defs><style>.cls-1,.cls-2{fill:none;stroke:#000;}.cls-1{stroke-width:0.5px;}.cls-2{stroke-width:2px;}</style></defs><title>Tab (2)</title><circle class="cls-1" cx="57.85" cy="58.04" r="39.69" transform="translate(-17.91 89.28) rotate(-67.5)"/><circle class="cls-1" cx="57.85" cy="58.04" r="42.52" transform="matrix(0.53, -0.85, 0.85, 0.53, -21.93, 76.74)"/><circle class="cls-2" cx="57.85" cy="58.04" r="48.19" transform="translate(-17.91 89.28) rotate(-67.5)"/><path class="cls-1" d="M73.16,75.05a2.55,2.55,0,1,1-2.55-2.56A2.54,2.54,0,0,1,73.16,75.05Z"/><polyline class="cls-1" points="57.85 46.7 57.85 46.7 60.19 47.58 62.09 48.68 62.18 48.74 62.77 49.53 63.52 50.35 63.98 51.15 64.23 51.89 64.4 52.88 64.48 53.95 64.48 55.57 64.32 56.56 64.11 57.41 63.52 58.26 63.14 59.12 62.54 59.77 61.8 60.45 61.07 60.87 60.12 61.35 59.2 61.67 58.43 61.72 56.31 61.72 55.6 61.47 54.54 61.01 53.77 60.56 53.01 59.97 52.5 59.37 51.85 58.46 51.35 57.67 51.13 56.79"/><polyline class="cls-1" points="64.97 44.46 64.97 44.46 65.66 44.97 66.78 46.24 68.59 48.82 69.19 50.64 69.46 52.37 69.59 53.73 69.59 56 69.19 57.58 68.89 59.28 68.07 60.87 67.27 62.15 66.16 63.4 64.97 64.44 63.52 65.44 61.91 66.12 60.26 66.54 58.66 66.83 55.41 66.83 53.75 66.23 52.19 65.58 50.85 64.76 49.35 63.71 48.47 62.52 47.61 61.3 46.52 59.71 46.18 58.04"/><circle class="cls-1" cx="52.18" cy="82.13" r="2.55"/><circle class="cls-1" cx="52.18" cy="89.22" r="2.55"/><circle class="cls-1" cx="45.1" cy="89.22" r="2.55"/><path class="cls-1" d="M54.74,75.05a2.56,2.56,0,1,1-2.56-2.56A2.56,2.56,0,0,1,54.74,75.05Z"/><path class="cls-1" d="M66.07,75.05a2.55,2.55,0,1,1-2.55-2.56A2.55,2.55,0,0,1,66.07,75.05Z"/><polyline class="cls-1" points="51.62 34.11 51.62 34.11 51.9 33.29 52.19 32.52 52.68 31.82 53.31 31.19 53.97 30.63 54.83 30.17 55.59 29.69 56.3 29.69 57.36 29.41 58.01 29.41 59.08 29.69 59.78 29.69 60.54 30.17 61.33 30.57 62.65 31.9 63.12 32.52 63.52 33.32 63.81 34.2 63.95 35.05 63.95 35.87 63.87 36.63 63.52 37.51 63.23 38.45 62.83 39.27 62.32 39.9 61.76 40.46 61.13 41.03 60.33 41.28 59.45 41.6 58.12 41.91"/><polyline class="cls-1" points="46.77 32.52 46.77 32.52 47.14 31.42 47.82 29.92 48.72 28.59 49.81 27.48 51.09 26.34 52.37 25.69 53.76 24.87 55.42 24.56 56.94 24.3 58.44 24.3 59.95 24.56 61.61 24.87 63 25.69 64.36 26.37 65.51 27.54 66.36 28.5 67.52 29.83 68.22 31.39 68.76 32.89 69.05 34.62 69.05 36.13 68.91 37.51 68.49 39.22 67.83 40.66 67.16 41.99 66.16 43.3 65.01 44.43 64.97 44.46"/><path class="cls-1" d="M46.77,32.53a2.5,2.5,0,0,0,1.62,3.2,2.62,2.62,0,0,0,3.22-1.62"/><path class="cls-1" d="M51.13,56.79a2.55,2.55,0,1,0-5,1.25"/><path class="cls-1" d="M58.12,41.91a2.53,2.53,0,0,0-2,2.35,2.34,2.34,0,0,0,1.75,2.44"/></svg>