<svg id="Layer_1" data-name="Layer 1" xmlns="http://www.w3.org/2000/svg" viewBox="0 0 152.15 152.63"><defs><style>.cls-1,.cls-2{fill:none;stroke:#000;}.cls-1{stroke-width:0.5px;}</style></defs><title>Tab (2)</title><polygon class="cls-1" points="73.68 108.32 73.68 108.32 73.68 111.72 75.22 111.72 75.22 125.94 77.76 125.94 77.76 111.72 79.07 111.72 79.07 108.32 98.91 108.32 95.06 104.5 54.81 104.5 54.81 64.63 51.04 60.83 51.04 108.32 73.68 108.32"/><polygon class="cls-1" points="79.07 44.83 79.07 44.83 79.07 41.07 77.76 41.07 77.76 26.86 75.22 26.86 75.22 41.07 73.68 41.07 73.68 44.83 53.9 44.83 57.65 48.65 97.91 48.65 97.91 88.48 101.74 92.28 101.74 44.83 79.07 44.83"/><path class="cls-1" d="M86.7,99.85h0l0-3.69L83.41,93l0,6.9a.7.7,0,0,0,.34.6,2.57,2.57,0,0,0,1.27.34,2.42,2.42,0,0,0,1.28-.34A.75.75,0,0,0,86.7,99.85Z"/><path class="cls-1" d="M90.61,100.09h0L87.3,96.8v3a.66.66,0,0,0,.31.56,2.53,2.53,0,0,0,1.22.37,2.94,2.94,0,0,0,1.3-.21.86.86,0,0,0,.49-.48Z"/><path class="cls-1" d="M62,80.39h0l0-8.7-4-3.88V80.39a.83.83,0,0,0,.15.48,1.33,1.33,0,0,0,.47.41,2.25,2.25,0,0,0,.57.19,4.15,4.15,0,0,0,.79.07,3.57,3.57,0,0,0,1.59-.45A.84.84,0,0,0,62,80.39Z"/><path class="cls-1" d="M67.06,100.14h0L67.19,79a.84.84,0,0,1,.2-.28.17.17,0,0,1,.15,0,.26.26,0,0,1,.13.08.74.74,0,0,1,.18.39v21a.9.9,0,0,0,.45.77,3.59,3.59,0,0,0,1.75.45,3.72,3.72,0,0,0,1.77-.45.92.92,0,0,0,.42-.77V82l-9.5-9.54.07,27.7a.85.85,0,0,0,.51.78,2.86,2.86,0,0,0,1.58.44,3.19,3.19,0,0,0,1.68-.44A.94.94,0,0,0,67.06,100.14Z"/><path class="cls-1" d="M102.1,81.74h0c.59.24,1.18.24,1.75.47a8.29,8.29,0,0,1,1.48.69,4.77,4.77,0,0,1,1.14.79,12.75,12.75,0,0,1,1.2,1.13,9.4,9.4,0,0,1,.66.74c.34.53.87,1.07,1.29,1.61s.87,1.11,1.32,1.66a10.66,10.66,0,0,1,.74.85,10.13,10.13,0,0,0,6.38,2.22,8.26,8.26,0,0,0,5.63-2.26,4.81,4.81,0,0,0-.84-.28,4.55,4.55,0,0,0-.92-.33l-1.43-.43-.3-.09a15.64,15.64,0,0,1-2-.86,14.94,14.94,0,0,1-1.85-1.36A3.22,3.22,0,0,1,116,86c-.2-.22-.4-.44-.59-.67L114.34,84a21.81,21.81,0,0,0-1.63-1.7c-.4-.3-.82-.71-1.2-1a10,10,0,0,0-2.1-1,6.86,6.86,0,0,0-2-.34,7.43,7.43,0,0,0-2.4.38A13.08,13.08,0,0,0,102.1,81.74Z"/><path class="cls-1" d="M104.64,89.14h0a13.32,13.32,0,0,0,1.2,4.61,14,14,0,0,0,7.61,6.57,17.24,17.24,0,0,0,5.54,1l2.89-7.72h-1c-1.09,0-2.18.07-3.27.12-.73,0-1.46,0-2.19,0a10.71,10.71,0,0,1-1.37-.12,13.73,13.73,0,0,0-1.83-.31c-.69-.34-1.43-.61-2.11-.93s-1.42-.75-2.23-1.18C106.76,90.49,105.69,89.87,104.64,89.14Z"/><path class="cls-1" d="M105.4,64.75h0a21.71,21.71,0,0,0,.23,4,19.32,19.32,0,0,0,.89,3.44,16.45,16.45,0,0,0,1.56,3.11,14.86,14.86,0,0,0,2.26,2.79,18.58,18.58,0,0,0,2.73,2.27,23,23,0,0,0,3.6,2.07A33.25,33.25,0,0,0,120.51,84c1.59.51,3.21.85,4.84,1.27V76.53a18.21,18.21,0,0,1-5.66-.86,21.57,21.57,0,0,1-5-2.19,21.13,21.13,0,0,1-4.31-3.26A61.76,61.76,0,0,1,105.4,64.75Z"/><path class="cls-1" d="M123.8,68.6h0l-.29-8.35h0a15.43,15.43,0,0,1-1.8-1.1,9.27,9.27,0,0,1-1.24-1,4.71,4.71,0,0,1-1-1.08,10.87,10.87,0,0,1-.87-1.33,10.56,10.56,0,0,1-.54-1.06c-.3-.67-.58-1.34-.89-2-.4-1.1-.84-2.21-1.28-3.31-.12-.27-.23-.54-.34-.81a17,17,0,0,0-1,5.83,15.42,15.42,0,0,0,1.08,5.49,15.61,15.61,0,0,0,3.06,4.86A19.25,19.25,0,0,0,123.8,68.6Z"/><path class="cls-1" d="M109.3,65.12h0a21,21,0,0,0,2.21,3,11,11,0,0,0,1.79,2,18.84,18.84,0,0,0,1.91,1.46,8,8,0,0,0,2,.92,6.57,6.57,0,0,0,1.51.44,12.81,12.81,0,0,0,1.89.18c.36,0,.71,0,1.07,0q1.11-.08,2.22-.18c-1-.78-2.2-1.58-3.28-2.31a8.09,8.09,0,0,0-1-.93,11.94,11.94,0,0,1-1.39-1.54,28.7,28.7,0,0,1-1.79-2.61,19.5,19.5,0,0,1-1.13-2c-.59-1.14-1.16-2.29-1.7-3.46s-1-2.15-1.58-3.21c-.22-.4-.49-.85-.73-1.25a9.73,9.73,0,0,0-1.52-1.81,9.21,9.21,0,0,0-1.53-1,6.56,6.56,0,0,0-2-.59,13.18,13.18,0,0,0-3,0,6.61,6.61,0,0,1,1.22,1,7.32,7.32,0,0,1,1,1.27,10.18,10.18,0,0,1,.62,1.18,19.56,19.56,0,0,1,.7,1.85c.07.21.13.42.2.64.11.37.22.74.33,1.26.13.32.27.79.4,1.25l.15.49a16,16,0,0,0,.87,2.33A4.59,4.59,0,0,0,109.3,65.12Z"/><path class="cls-1" d="M90.66,68.79H83.94a6.21,6.21,0,0,0-2.39.74,2.5,2.5,0,0,0-1.22,1.37l2.48,2.58.16.19.19.22.21.16,7.29,7.24V73.48l.56-.15,0,8.5L94,84.62V72.22a5.4,5.4,0,0,0-.3-1.57,4,4,0,0,0-.74-.87,3.22,3.22,0,0,0-.87-.53,7.29,7.29,0,0,0-1.46-.46Z"/><path class="cls-1" d="M87.1,62.5h0a3.07,3.07,0,0,0-2.11.83,2.59,2.59,0,0,0,0,3.8,3.11,3.11,0,0,0,4.23,0,2.59,2.59,0,0,0,0-3.8A3.09,3.09,0,0,0,87.1,62.5Z"/><path class="cls-1" d="M72.24,59.63H68.82l7.81,7.74V64.1a5.43,5.43,0,0,0-.39-2,3.79,3.79,0,0,0-1-1.22,3,3,0,0,0-1.12-.69A9.21,9.21,0,0,0,72.24,59.63Z"/><path class="cls-1" d="M71.43,55h0v-.14a3.41,3.41,0,0,0-1.13-2.46,4.08,4.08,0,0,0-2.78-1,4,4,0,0,0-2.58,1,3.15,3.15,0,0,0-1.15,2.28l3.87,3.84a4.1,4.1,0,0,0,2.69-1.08A3.38,3.38,0,0,0,71.43,55Z"/><path class="cls-2" d="M110.76,119.08a55.94,55.94,0,0,1-16.26,9.14A55.09,55.09,0,0,1,24.1,58.11,58.18,58.18,0,0,1,33,42Z"/><path class="cls-2" d="M76.07,21.25h0a55.08,55.08,0,0,1,43.12,89.33L41.47,33.5A55,55,0,0,1,76.07,21.25Z"/><path class="cls-2" d="M76.07,5.45h0a70.2,70.2,0,0,0-45.87,17,.39.39,0,0,0-.38.18l-.33.29c-.19.09-.19.18-.19.27a1.75,1.75,0,0,0-.44.29l-.35.32-.26.24-.36.32-.33.31c-.1.1-.2.2-.31.29s-.25.32-.37.32c-.2.23-.41.43-.6.62l-.47.47-.67.68-.36.37c-.12.13-.24.25-.35.38-.18.32-.35.32-.52.57s-.58.63-.86.95l-.3.34-.26.3c-.13.14-.25.29-.38.44s-.21.24-.31.37l0,0a70.85,70.85,0,0,0,78.78,112A69.53,69.53,0,0,0,122,130.17h.2s.06-.14.1-.17l0,0a.39.39,0,0,1,.1-.08l.25-.23c.16,0,.16-.11.16-.17s.22-.15.3-.23l.32-.29.25-.22.15-.14.16-.14.58-.54.25-.24c.14-.13.27-.36.4-.36h.11l.31-.4v-.12a2.63,2.63,0,0,0,.49-.4l.11-.11a1.59,1.59,0,0,1,.13-.13l.41-.42.54-.56.12-.12.12-.13.24-.25a.29.29,0,0,1,.31-.2c.13-.27.37-.4.37-.54s.21-.23.31-.34.43-.49.64-.73l.42-.48.12-.15a3.77,3.77,0,0,0,.44-.59A70.83,70.83,0,0,0,76.07,5.45Z"/></svg>