<svg id="Layer_1" data-name="Layer 1" xmlns="http://www.w3.org/2000/svg" viewBox="0 0 115.71 116.07"><defs><style>.cls-1,.cls-2{fill:none;stroke:#000;}.cls-1{stroke-width:0.5px;}.cls-2{stroke-width:2px;}</style></defs><title>Tab (2)</title><polygon class="cls-1" points="59.74 49.99 51.54 62.09 59.74 62.09 59.74 49.99"/><polygon class="cls-1" points="59.03 45.25 64.03 45.25 64.03 62.09 67.78 62.09 67.78 65.73 64.03 65.73 64.03 72.21 59.67 72.21 59.67 65.73 47.76 65.73 47.76 61.66 59.03 45.25"/><path class="cls-1" d="M91.87,18.35h-68A5.67,5.67,0,0,0,18.17,24h0v68h0a5.67,5.67,0,0,0,5.67,5.67h68a5.67,5.67,0,0,0,5.67-5.67V24A5.67,5.67,0,0,0,91.87,18.35Z"/><path class="cls-1" d="M15.33,24v68h0a8.51,8.51,0,0,0,8.51,8.51h68a8.5,8.5,0,0,0,8.5-8.51V24a8.49,8.49,0,0,0-8.5-8.5h-68A8.5,8.5,0,0,0,15.33,24"/><path class="cls-2" d="M91.87,106.23A14.17,14.17,0,0,0,106,92.05V24A14.17,14.17,0,0,0,91.87,9.85h-68A14.18,14.18,0,0,0,9.66,24h0v68h0a14.18,14.18,0,0,0,14.18,14.18Z"/></svg>