<svg id="Layer_1" data-name="Layer 1" xmlns="http://www.w3.org/2000/svg" viewBox="0 0 115.71 116.07"><defs><style>.cls-1,.cls-2{fill:none;stroke:#000;}.cls-1{stroke-width:0.5px;}.cls-2{stroke-width:2px;}</style></defs><title>Tab (2)</title><path class="cls-1" d="M91.87,18.35h-68A5.67,5.67,0,0,0,18.17,24h0v68h0a5.67,5.67,0,0,0,5.67,5.67h68a5.67,5.67,0,0,0,5.67-5.67V24A5.67,5.67,0,0,0,91.87,18.35Z"/><path class="cls-1" d="M15.33,24v68h0a8.51,8.51,0,0,0,8.51,8.51h68a8.5,8.5,0,0,0,8.5-8.51V24a8.49,8.49,0,0,0-8.5-8.5h-68A8.5,8.5,0,0,0,15.33,24"/><path class="cls-2" d="M91.87,106.23A14.17,14.17,0,0,0,106,92.05V24A14.17,14.17,0,0,0,91.87,9.85h-68A14.18,14.18,0,0,0,9.66,24h0v68h0a14.18,14.18,0,0,0,14.18,14.18Z"/><path class="cls-1" d="M57.85,41.14A7.25,7.25,0,0,1,52.69,39a2,2,0,0,1,2.83-2.83,3.38,3.38,0,0,0,4.67,0A2,2,0,1,1,63,39,7.27,7.27,0,0,1,57.85,41.14Z"/><path class="cls-1" d="M57.85,49.1a15,15,0,0,1-9.44-3.31,2,2,0,1,1,2.51-3.11,11.12,11.12,0,0,0,13.86,0,2,2,0,1,1,2.51,3.11A15,15,0,0,1,57.85,49.1Z"/><path class="cls-1" d="M57.85,57.07A23,23,0,0,1,44,52.48a2,2,0,1,1,2.41-3.19,19.1,19.1,0,0,0,22.83,0,2,2,0,0,1,2.41,3.19A23,23,0,0,1,57.85,57.07Z"/><path class="cls-1" d="M57.85,65.1a30.91,30.91,0,0,1-18.23-5.95A2,2,0,1,1,42,55.92a27,27,0,0,0,31.76,0,2,2,0,1,1,2.36,3.23A31,31,0,0,1,57.85,65.1Z"/><path class="cls-1" d="M57.85,73.05A39.05,39.05,0,0,1,35.2,65.82a2,2,0,0,1,2.32-3.26,35.08,35.08,0,0,0,40.67,0,2,2,0,0,1,2.32,3.26A39.06,39.06,0,0,1,57.85,73.05Z"/><path class="cls-1" d="M57.85,81a47.11,47.11,0,0,1-27.07-8.53,2,2,0,0,1,2.3-3.28,43.21,43.21,0,0,0,49.55,0,2,2,0,1,1,2.3,3.27A47.07,47.07,0,0,1,57.85,81Z"/></svg>