<svg id="Layer_1" data-name="Layer 1" xmlns="http://www.w3.org/2000/svg" viewBox="0 0 115.71 116.07"><defs><style>.cls-1,.cls-2{fill:none;stroke:#000;}.cls-1{stroke-width:2px;}.cls-2{stroke-width:0.5px;}</style></defs><title>Tab (2)</title><circle class="cls-1" cx="57.85" cy="58.04" r="48.19" transform="translate(-21.93 76.74) rotate(-58.28)"/><circle class="cls-2" cx="57.85" cy="58.04" r="42.52" transform="translate(-10.08 103.87) rotate(-79.1)"/><path class="cls-2" d="M44.42,40.44h0a12.42,12.42,0,0,1,11.87-3.29L57.93,48.6a10.58,10.58,0,0,1-7,1.65,47.09,47.09,0,0,0,7.57,18l1-.4a11.09,11.09,0,0,1,4.91-3.68l7.37,8.59A15,15,0,0,1,62,79.3,38,38,0,0,1,44.42,40.44Z"/></svg>