<svg id="Layer_1" data-name="Layer 1" xmlns="http://www.w3.org/2000/svg" viewBox="0 0 115.71 116.07"><defs><style>.cls-1,.cls-2{fill:none;stroke:#000;}.cls-1{stroke-width:0.5px;}.cls-2{stroke-width:2px;}</style></defs><title>Tab (2)</title><polygon class="cls-1" points="35.51 43.67 40.27 43.67 40.27 61.42 40.45 63.71 40.99 65.44 41.9 66.84 43.16 67.84 44.79 68.45 46.78 68.65 48.79 68.45 50.43 67.84 51.71 66.84 52.63 65.44 53.17 63.71 53.36 61.42 53.36 43.67 58.12 43.67 58.12 61.71 58.03 63.44 57.85 65.04 57.38 66.54 56.8 67.82 56.06 69.01 55.02 70.06 54.1 70.96 52.91 71.69 51.59 72.21 50.12 72.67 48.52 72.92 46.78 73 43.34 72.69 40.52 71.75 38.33 70.18 36.76 67.98 35.83 65.16 35.51 61.71 35.51 43.67"/><polygon class="cls-1" points="72.03 44.46 75.44 44.46 75.44 72.21 70.99 72.21 70.99 52.84 64.48 52.84 64.48 49.53 65.55 49.53 66.52 49.53 67.41 49.53 68.19 49.22 68.88 48.98 69.48 48.7 70.13 48.25 70.68 47.7 71.14 47.05 71.51 46.29 71.78 45.43 72.03 44.46"/><circle class="cls-1" cx="57.85" cy="58.04" r="39.69" transform="translate(-23.5 67.92) rotate(-52.02)"/><circle class="cls-1" cx="57.85" cy="58.04" r="42.52" transform="translate(-10.93 102.58) rotate(-78.02)"/><circle class="cls-2" cx="57.85" cy="58.04" r="48.19" transform="matrix(0.29, -0.96, 0.96, 0.29, -14.46, 96.59)"/></svg>