<svg id="Layer_1" data-name="Layer 1" xmlns="http://www.w3.org/2000/svg" viewBox="0 0 115.71 116.07"><defs><style>.cls-1,.cls-2{fill:none;stroke:#000;}.cls-1{stroke-width:0.5px;}.cls-2{stroke-width:2px;}</style></defs><title>Tab (2)</title><polygon class="cls-1" points="36.06 47.72 36.06 68 41.88 68 44.4 67.71 46.52 66.85 48.08 65.41 49.35 63.39 49.92 60.87 50.15 57.62 49.93 54.59 49.35 52.12 48.17 50.19 46.52 48.82 44.64 47.99 42.21 47.72 36.06 47.72"/><polygon class="cls-1" points="31.4 43.67 42.42 43.67 46.27 44.07 49.35 45.25 51.86 47.22 53.61 49.98 54.66 53.52 55.02 57.86 55.02 60.03 54.64 62.03 54.19 63.86 53.55 65.52 52.73 67.02 51.73 68.33 50.49 69.52 49.08 70.49 47.48 71.24 45.7 71.78 43.68 72.21 41.61 72.21 31.4 72.21 31.4 43.67"/><polygon class="cls-1" points="84.41 52.37 79.69 52.37 79.47 51.58 79.17 50.8 78.78 50.08 78.31 49.53 77.7 48.87 77.13 48.36 76.49 47.95 75.79 47.62 75.03 47.36 74.23 47.17 73.38 47.06 72.47 47.02 70.99 47.11 69.64 47.38 68.42 47.83 67.32 48.46 66.36 49.26 65.51 50.25 64.89 51.25 64.38 52.37 63.98 53.58 63.7 54.91 63.52 56.34 63.52 57.88 63.52 59.38 63.7 60.87 63.98 62.09 64.38 63.3 64.89 64.42 65.51 65.44 66.36 66.54 67.32 67.28 68.4 67.92 69.6 68.38 70.92 68.65 72.35 68.74 73.51 68.68 74.6 68.5 75.6 68.19 76.52 67.76 77.36 67.21 78.11 66.54 78.76 65.78 79.3 64.94 79.73 64.01 80.05 63 80.26 61.91 80.36 60.73 72.57 60.73 72.57 56.81 84.77 56.81 84.77 72.21 81.61 72.21 80.82 68.62 79.67 69.95 78.39 71.04 76.96 71.89 75.4 72.49 73.69 72.86 71.85 72.98 69.84 72.85 67.97 72.48 66.36 71.86 64.68 71 63.25 69.89 61.97 68.53 60.94 67.09 60.09 65.53 59.44 63.71 58.97 62.01 58.69 60.06 58.59 58.04 58.69 55.85 58.98 53.86 59.45 52.01 60.12 50.3 60.97 48.73 62.02 47.31 63.31 45.97 64.77 44.88 66.36 44.03 68.15 43.42 70.08 43.05 72.03 42.93 73.75 42.99 75.25 43.18 76.66 43.5 77.96 43.86 79.18 44.51 80.29 45.2 81.37 46.1 82.29 47.11 83.06 48.25 83.66 49.53 84.11 50.91 84.41 52.37"/><circle class="cls-1" cx="57.85" cy="58.04" r="39.69" transform="translate(-23.5 67.92) rotate(-52.02)"/><circle class="cls-1" cx="57.85" cy="58.04" r="42.52" transform="translate(-10.93 102.58) rotate(-78.02)"/><circle class="cls-2" cx="57.85" cy="58.04" r="48.19" transform="translate(-14.46 96.59) rotate(-73.15)"/></svg>