<svg id="Layer_1" data-name="Layer 1" xmlns="http://www.w3.org/2000/svg" viewBox="0 0 115.71 116.07"><defs><style>.cls-1,.cls-2{fill:none;stroke:#000;}.cls-1{stroke-width:0.5px;}.cls-2{stroke-width:2px;}</style></defs><title>Tab (2)</title><circle class="cls-1" cx="57.85" cy="58.04" r="39.69"/><circle class="cls-1" cx="57.85" cy="58.04" r="42.52" transform="translate(-17.91 89.28) rotate(-67.5)"/><circle class="cls-2" cx="57.85" cy="58.04" r="48.19" transform="translate(-24.09 57.91) rotate(-45)"/><polygon class="cls-1" points="35.81 49.53 38.65 49.53 38.65 63.94 47.1 63.94 47.1 66.54 35.81 66.54 35.81 49.53"/><rect class="cls-1" x="49.08" y="49.53" width="2.86" height="17.01"/><polygon class="cls-1" points="55.64 49.53 67.33 49.53 67.33 51.93 58.44 51.93 58.44 56.52 66.22 56.52 66.22 59.01 58.44 59.01 58.44 66.54 55.64 66.54 55.64 49.53"/><polygon class="cls-1" points="68.1 49.53 81.48 49.53 81.48 51.93 76.28 51.93 76.28 66.54 73.44 66.54 73.44 51.93 68.1 51.93 68.1 49.53"/></svg>