<svg id="Layer_1" data-name="Layer 1" xmlns="http://www.w3.org/2000/svg" viewBox="0 0 115.71 116.07"><defs><style>.cls-1,.cls-2{fill:none;stroke:#000;}.cls-1{stroke-width:0.5px;}.cls-2{stroke-width:2px;}</style></defs><title>Tab (2)</title><polygon class="cls-1" points="58.09 58.24 57.31 58.28 56.59 58.41 55.93 58.63 55.33 58.93 54.79 59.32 54.31 59.8 53.93 60.31 53.62 60.87 53.38 61.51 53.21 62.2 53.1 62.94 53.07 63.71 53.1 64.53 53.21 65.26 53.39 65.94 53.63 66.54 53.95 67.14 54.34 67.67 54.82 68.16 55.36 68.56 55.96 68.87 56.61 69.09 57.32 69.22 58.09 69.38 58.88 69.22 59.61 69.08 60.28 68.85 60.88 68.52 61.42 68.11 61.9 67.59 62.27 67.05 62.57 66.54 62.81 65.8 62.98 65.1 63.08 64.34 63.12 63.53 63.08 62.76 62.97 62.04 62.78 61.38 62.52 60.87 62.19 60.2 61.78 59.7 61.31 59.25 60.69 58.89 60.2 58.6 59.55 58.4 58.85 58.28 58.09 58.24"/><polygon class="cls-1" points="67.25 51.85 62.76 51.85 62.53 50.74 62.12 49.82 61.52 49.11 60.69 48.6 59.74 48.3 58.57 48.19 56.94 48.44 55.58 49.17 54.49 50.4 53.67 52.12 53.13 54.32 52.85 57.02 53.67 56.25 54.58 55.61 55.58 55.2 56.66 54.77 57.85 54.56 59.1 54.48 60.34 54.56 61.5 54.77 62.58 55.2 63.52 55.62 64.5 56.26 65.34 57.05 66.06 58.04 66.66 58.86 67.12 59.88 67.45 60.87 67.64 62.15 67.71 63.41 67.64 64.81 67.42 66.12 67.06 67.33 66.56 68.45 65.92 69.38 65.13 70.39 64.22 71.19 63.22 71.84 62.12 72.21 60.92 72.71 59.61 72.93 58.21 73 56.47 72.89 55.02 72.54 53.48 71.97 52.19 71.17 51.12 70.14 50.17 68.89 49.53 67.69 49.01 66.36 48.6 64.9 48.3 63.3 48.13 61.58 48.07 59.72 48.13 57.65 48.31 55.72 48.6 53.93 49.02 52.37 49.55 50.78 50.2 49.53 51.2 47.9 52.38 46.7 53.74 45.7 55.27 45.01 56.98 44.6 58.86 44.46 60.02 44.52 61.1 44.67 62.11 44.93 63.05 45.3 63.91 45.77 64.69 46.35 65.42 47.06 66.02 47.85 66.51 48.72 66.88 49.68 67.12 50.72 67.25 51.85"/><circle class="cls-2" cx="57.85" cy="58.04" r="48.19" transform="translate(-17.91 89.28) rotate(-67.5)"/><circle class="cls-1" cx="57.85" cy="58.04" r="42.52" transform="translate(-8.7 105.85) rotate(-80.78)"/><circle class="cls-1" cx="57.85" cy="58.04" r="39.69" transform="translate(-17.91 89.28) rotate(-67.5)"/></svg>