<svg id="Layer_1" data-name="Layer 1" xmlns="http://www.w3.org/2000/svg" viewBox="0 0 318.7 95.29"><defs><style>.cls-1{fill:none;stroke:#000;stroke-width:0.5px;}</style></defs><title>Tab (2)</title><circle class="cls-1" cx="24.7" cy="47.65" r="5.67"/><circle class="cls-1" cx="54.62" cy="47.65" r="5.67"/><circle class="cls-1" cx="84.54" cy="47.65" r="5.67"/><circle class="cls-1" cx="114.47" cy="47.65" r="5.67"/><circle class="cls-1" cx="144.39" cy="47.65" r="5.67"/><circle class="cls-1" cx="24.7" cy="75.99" r="5.67"/><circle class="cls-1" cx="54.62" cy="75.99" r="5.67"/><circle class="cls-1" cx="84.54" cy="75.99" r="5.67"/><circle class="cls-1" cx="114.47" cy="75.99" r="5.67"/><circle class="cls-1" cx="144.39" cy="75.99" r="5.67"/><circle class="cls-1" cx="24.7" cy="19.3" r="5.67"/><circle class="cls-1" cx="54.62" cy="19.3" r="5.67"/><circle class="cls-1" cx="84.54" cy="19.3" r="5.67"/><circle class="cls-1" cx="114.47" cy="19.3" r="5.67"/><circle class="cls-1" cx="144.39" cy="19.3" r="5.67"/><circle class="cls-1" cx="264.07" cy="47.65" r="5.67"/><circle class="cls-1" cx="293.99" cy="47.65" r="5.67"/><path class="cls-1" d="M180,47.65A5.67,5.67,0,1,1,174.31,42,5.67,5.67,0,0,1,180,47.65Z"/><path class="cls-1" d="M209.9,47.65A5.67,5.67,0,1,1,204.23,42,5.67,5.67,0,0,1,209.9,47.65Z"/><circle class="cls-1" cx="234.15" cy="47.65" r="5.67"/><circle class="cls-1" cx="293.99" cy="75.99" r="5.67"/><path class="cls-1" d="M209.9,76a5.67,5.67,0,1,1-5.67-5.67A5.67,5.67,0,0,1,209.9,76Z"/><path class="cls-1" d="M180,76a5.67,5.67,0,1,1-5.67-5.67A5.67,5.67,0,0,1,180,76Z"/><circle class="cls-1" cx="234.15" cy="75.99" r="5.67"/><circle class="cls-1" cx="264.07" cy="75.99" r="5.67"/><circle class="cls-1" cx="293.99" cy="19.3" r="5.67"/><path class="cls-1" d="M180,19.3a5.67,5.67,0,1,1-5.67-5.67A5.67,5.67,0,0,1,180,19.3Z"/><path class="cls-1" d="M209.9,19.3a5.67,5.67,0,1,1-5.67-5.67A5.67,5.67,0,0,1,209.9,19.3Z"/><circle class="cls-1" cx="264.07" cy="19.3" r="5.67"/><circle class="cls-1" cx="234.15" cy="19.3" r="5.67"/></svg>