<svg id="Layer_1" data-name="Layer 1" xmlns="http://www.w3.org/2000/svg" viewBox="0 0 115.71 116.07"><defs><style>.cls-1,.cls-2{fill:none;stroke:#000;}.cls-1{stroke-width:0.5px;}.cls-2{stroke-width:2px;}</style></defs><title>Tab (2)</title><circle class="cls-1" cx="57.85" cy="58.04" r="39.68" transform="translate(-10.08 103.87) rotate(-79.1)"/><circle class="cls-1" cx="57.85" cy="58.04" r="42.51"/><circle class="cls-2" cx="57.85" cy="58.04" r="48.18"/><polygon class="cls-1" points="42.97 44.94 42.97 44.94 72.74 44.94 57.85 76.83 42.97 44.94"/><path class="cls-1" d="M39.86,41h36a2,2,0,0,1,1.67.86,2.28,2.28,0,0,1,.17,2l-18,38.48a1.94,1.94,0,0,1-3.59,0L38,43.87a2.29,2.29,0,0,1,.18-2A1.93,1.93,0,0,1,39.86,41Z"/></svg>