<svg id="Layer_1" data-name="Layer 1" xmlns="http://www.w3.org/2000/svg" viewBox="0 0 115.71 116.07"><defs><style>.cls-1,.cls-2{fill:none;stroke:#000;}.cls-1{stroke-width:0.5px;}.cls-2{stroke-width:2px;}</style></defs><title>Tab (2)</title><polygon class="cls-1" points="33.48 43.67 55.77 43.67 55.77 47.86 47.02 47.86 47.02 72.21 42.26 72.21 42.26 47.86 33.48 47.86 33.48 43.67"/><polygon class="cls-1" points="59.27 43.67 63.91 43.67 63.91 56.59 76.51 43.67 82.61 43.67 71.08 55.2 83.23 72.21 77.44 72.21 67.78 58.46 63.91 62.24 63.91 72.21 59.27 72.21 59.27 43.67"/><path class="cls-1" d="M91.87,18.35h-68A5.67,5.67,0,0,0,18.17,24h0v68h0a5.67,5.67,0,0,0,5.67,5.67h68a5.67,5.67,0,0,0,5.67-5.67V24A5.67,5.67,0,0,0,91.87,18.35Z"/><path class="cls-1" d="M15.33,24v68h0a8.51,8.51,0,0,0,8.51,8.51h68a8.5,8.5,0,0,0,8.5-8.51V24a8.49,8.49,0,0,0-8.5-8.5h-68A8.5,8.5,0,0,0,15.33,24"/><path class="cls-2" d="M91.87,106.23A14.17,14.17,0,0,0,106,92.05V24A14.17,14.17,0,0,0,91.87,9.85h-68A14.18,14.18,0,0,0,9.66,24h0v68h0a14.18,14.18,0,0,0,14.18,14.18Z"/></svg>