<svg id="Layer_1" data-name="Layer 1" xmlns="http://www.w3.org/2000/svg" viewBox="0 0 90.35 35.29"><defs><style>.cls-1{fill:none;stroke:#000;}</style></defs><title>Tab (2)</title><polygon class="cls-1" points="21.2 24.08 21.2 27.61 7.77 27.61 7.77 7.73 12.07 7.73 12.07 24.08 21.2 24.08"/><path class="cls-1" d="M31.14,7.36s-9.67-.11-9.67,10.31S31.14,28,31.14,28s9.67.11,9.67-10.32S31.14,7.36,31.14,7.36Zm0,17s-5.32.07-5.32-6.72S31.14,11,31.14,11s5.32-.08,5.32,6.71S31.14,24.39,31.14,24.39Z"/><path class="cls-1" d="M72.91,7.36s-9.67-.11-9.67,10.31S72.91,28,72.91,28s9.67.11,9.67-10.32S72.91,7.36,72.91,7.36Zm0,17s-5.32.07-5.32-6.72S72.91,11,72.91,11s5.32-.08,5.32,6.71S72.91,24.39,72.91,24.39Z"/><path class="cls-1" d="M52.42,28s-9,.11-9-10.32,9-10.31,9-10.31a15.5,15.5,0,0,1,7.7,1.32l-1,3.22A22.63,22.63,0,0,0,52.93,11S48,10.89,48,17.67s4.93,6.72,4.93,6.72,2.93,0,3.14-.66V18.2h4.27V26S57.73,28.1,52.42,28Z"/></svg>