<svg id="Layer_1" data-name="Layer 1" xmlns="http://www.w3.org/2000/svg" viewBox="0 0 115.71 116.07"><defs><style>.cls-1,.cls-2{fill:none;stroke:#000;}.cls-1{stroke-width:2px;}.cls-2{stroke-width:0.5px;}</style></defs><title>Tab (2)</title><circle class="cls-1" cx="57.85" cy="58.04" r="48.19" transform="matrix(0.53, -0.85, 0.85, 0.53, -21.93, 76.74)"/><circle class="cls-2" cx="57.85" cy="58.04" r="42.52" transform="translate(-10.08 103.87) rotate(-79.1)"/><path class="cls-2" d="M73.08,66.29h0L66,69.83v5.73h6.25a1.93,1.93,0,0,1,1.38.56,2,2,0,0,1,.57,1.36,2.24,2.24,0,0,1-.57,1.39,1.94,1.94,0,0,1-1.38.57h-8.2a1.94,1.94,0,0,1-1.38-.57,2.2,2.2,0,0,1-.58-1.39V68.64a2,2,0,0,1,1.08-1.76l5-2.49-5.3-3.18a1.91,1.91,0,0,1-.94-1.67V55h-7a2,2,0,0,1-1.69-1,1.94,1.94,0,0,1,0-1.95l8.28-14.15a1.81,1.81,0,0,1,1.19-.9,1.9,1.9,0,0,1,1.47.22,2,2,0,0,1,.91,1.19,2.29,2.29,0,0,1-.15,1.48L58.32,51.06h5.55a1.8,1.8,0,0,1,1.37.57A1.76,1.76,0,0,1,65.82,53v5.44l7.39,4.42a2,2,0,0,1,.94,1.76A1.9,1.9,0,0,1,73.08,66.29Z"/><path class="cls-2" d="M47.46,55h0a11.44,11.44,0,0,0-1.09,18.37,1.86,1.86,0,0,1,.7,1.7,2,2,0,0,1-1.23,1.64,1.94,1.94,0,0,1-1.93-.31,15.23,15.23,0,0,1,1.47-24.69,1.88,1.88,0,0,1,1.46-.26,1.39,1.39,0,0,1,1.09.94,1.41,1.41,0,0,1,.39,1.39A1.81,1.81,0,0,1,47.46,55Z"/><path class="cls-2" d="M50.3,59.48h0a6,6,0,0,0-.58,9.75,1.93,1.93,0,0,1,.7,1.82,2.1,2.1,0,0,1-1.23,1.5,1.88,1.88,0,0,1-1.92-.34,9.77,9.77,0,0,1-3.66-7.65,9.94,9.94,0,0,1,4.61-8.37,1.94,1.94,0,0,1,1.47-.25c.5.11,1.08.43,1.08.85a1.57,1.57,0,0,1,.39,1.47A1.82,1.82,0,0,1,50.3,59.48Z"/><path class="cls-2" d="M50.62,68.13h0a1.89,1.89,0,0,0,1.92.31,2.07,2.07,0,0,0,1.23-1.5,2,2,0,0,0-.69-1.84.65.65,0,0,1-.26-.54.75.75,0,0,1,.32-.6A1.79,1.79,0,0,0,54,62.74a2,2,0,0,0-.25-1.47,1.76,1.76,0,0,0-1.22-.85,2,2,0,0,0-1.47.25,4.6,4.6,0,0,0-.44,7.46Z"/><path class="cls-2" d="M75.24,43.21h0A2.89,2.89,0,0,0,74.31,41a3,3,0,0,0-2.26-1,3,3,0,0,0-2.25,1,2.87,2.87,0,0,0-.94,2.18,3.13,3.13,0,0,0,.94,2.24,3.17,3.17,0,0,0,2.25.94,3.21,3.21,0,0,0,2.26-.94A3.16,3.16,0,0,0,75.24,43.21Z"/></svg>