<svg id="Layer_1" data-name="Layer 1" xmlns="http://www.w3.org/2000/svg" viewBox="0 0 171.41 239.86"><defs><style>.cls-1,.cls-2,.cls-3{fill:none;stroke:#000;}.cls-1{stroke-width:2px;}.cls-2{stroke-linecap:round;stroke-linejoin:round;}.cls-2,.cls-3{stroke-width:0.5px;}</style></defs><title>Tab (2)</title><rect class="cls-1" x="9.2" y="8" width="153.01" height="223.85" rx="2.83"/><polygon class="cls-2" points="25.63 47.6 55.7 25.01 85.71 47.6 25.63 47.6"/><polygon class="cls-2" points="145.7 25.01 115.64 47.6 85.63 25.01 145.7 25.01"/><rect class="cls-3" x="14.87" y="13.67" width="141.68" height="212.52" rx="2.83"/><polygon class="cls-2" points="98.04 60.43 94.5 56.88 98.04 53.34 138.54 53.34 142.08 56.88 138.54 60.42 98.04 60.43"/><polygon class="cls-2" points="98.04 138.35 94.5 134.81 98.04 131.26 138.54 131.26 142.08 134.8 138.54 138.34 98.04 138.35"/><polygon class="cls-2" points="139.54 61.43 143.09 57.89 146.63 61.43 146.63 91.59 143.09 95.13 139.55 91.59 139.54 61.43"/><polygon class="cls-2" points="139.54 100.09 143.09 96.55 146.63 100.09 146.63 130.26 143.09 133.8 139.55 130.26 139.54 100.09"/><polygon class="cls-2" points="89.95 61.43 93.5 57.89 97.04 61.43 97.04 91.59 93.5 95.13 89.96 91.59 89.95 61.43"/><polygon class="cls-2" points="89.95 100.09 93.5 96.55 97.04 100.09 97.04 130.26 93.5 133.8 89.96 130.26 89.95 100.09"/><polygon class="cls-2" points="114.75 129.85 121.83 129.84 121.83 109.56 118.29 97.28 114.75 109.56 114.75 129.85"/><polygon class="cls-2" points="121.83 61.84 114.75 61.84 114.75 82.13 118.29 94.41 121.83 82.13 121.83 61.84"/><polygon class="cls-2" points="119.71 95.85 126.02 92.3 138.25 92.3 141.79 95.85 138.25 99.39 126.02 99.39 119.71 95.85"/><polygon class="cls-2" points="116.87 95.85 110.57 92.3 98.34 92.3 94.8 95.85 98.34 99.39 110.57 99.39 116.87 95.85"/><polygon class="cls-2" points="117.28 94.83 112.49 82.92 98.46 61.84 98.46 74.62 106.94 87.37 117.28 94.83"/><polygon class="cls-2" points="119.31 94.83 124.09 82.92 138.13 61.84 138.13 74.62 129.65 87.37 119.31 94.83"/><polygon class="cls-2" points="117.28 96.86 112.49 108.77 98.46 129.85 98.46 117.07 106.94 104.33 117.28 96.86"/><polygon class="cls-2" points="119.31 96.86 124.09 108.77 138.13 129.85 138.13 117.07 129.65 104.33 119.31 96.86"/><polygon class="cls-2" points="32.87 60.43 29.33 56.88 32.87 53.34 73.37 53.34 76.91 56.88 73.37 60.42 32.87 60.43"/><polygon class="cls-2" points="32.87 138.35 29.33 134.81 32.87 131.26 73.37 131.26 76.91 134.8 73.37 138.34 32.87 138.35"/><polygon class="cls-2" points="74.37 61.43 77.91 57.89 81.45 61.43 81.46 91.59 77.92 95.13 74.37 91.59 74.37 61.43"/><polygon class="cls-2" points="74.37 100.09 77.91 96.55 81.45 100.09 81.46 130.26 77.92 133.8 74.37 130.26 74.37 100.09"/><polygon class="cls-2" points="24.78 61.43 28.32 57.89 31.86 61.43 31.87 91.59 28.33 95.13 24.79 91.59 24.78 61.43"/><polygon class="cls-2" points="24.78 100.09 28.32 96.55 31.86 100.09 31.87 130.26 28.33 133.8 24.79 130.26 24.78 100.09"/><polygon class="cls-2" points="49.58 129.85 56.66 129.84 56.66 109.56 53.12 97.28 49.58 109.56 49.58 129.85"/><polygon class="cls-2" points="56.66 61.84 49.58 61.84 49.58 82.13 53.12 94.41 56.66 82.13 56.66 61.84"/><polygon class="cls-2" points="54.54 95.85 60.85 92.3 73.08 92.3 76.62 95.85 73.08 99.39 60.85 99.39 54.54 95.85"/><polygon class="cls-2" points="51.7 95.85 45.39 92.3 33.16 92.3 29.62 95.85 33.16 99.39 45.39 99.39 51.7 95.85"/><polygon class="cls-2" points="52.11 94.83 47.32 82.92 33.28 61.84 33.28 74.62 41.77 87.37 52.11 94.83"/><polygon class="cls-2" points="54.13 94.83 58.92 82.92 72.96 61.84 72.96 74.62 64.47 87.37 54.13 94.83"/><polygon class="cls-2" points="52.11 96.86 47.32 108.77 33.28 129.85 33.28 117.07 41.77 104.33 52.11 96.86"/><polygon class="cls-2" points="54.13 96.86 58.92 108.77 72.96 129.85 72.96 117.07 64.47 104.33 54.13 96.86"/><rect class="cls-2" x="74.37" y="144.01" width="70.84" height="70.84"/><rect class="cls-2" x="26.2" y="144.02" width="39.67" height="70.84"/></svg>