<svg id="Layer_1" data-name="Layer 1" xmlns="http://www.w3.org/2000/svg" viewBox="0 0 311.67 90"><defs><style>.cls-1{fill:none;stroke:#000;stroke-width:0.5px;}</style></defs><title>Tab (2)</title><polygon class="cls-1" points="21.89 28.73 31.82 28.73 26.82 15.66 21.89 28.73"/><polygon class="cls-1" points="16.74 36.7 25.64 13.82 28.14 13.82 36.98 36.7 34.86 36.7 32.45 30.46 21.25 30.46 18.86 36.7 16.74 36.7"/><polygon class="cls-1" points="52.47 20.77 52.47 33.04 52.47 33.58 52.48 34.12 52.5 34.72 52.52 35.34 52.55 36.02 52.58 36.7 50.69 36.7 50.59 34.2 49.81 35.08 48.99 35.79 48.14 36.33 47.26 36.7 46.34 36.98 45.48 37.07 43.75 36.9 42.41 36.36 41.37 35.48 40.62 34.26 40.18 32.7 40.03 30.77 40.03 20.77 41.96 20.77 41.96 30.52 42.06 31.99 42.37 33.18 42.88 34.12 43.59 34.77 44.51 35.17 45.64 35.31 46.34 35.25 47.01 35.14 47.62 34.97 48.32 34.69 48.7 34.35 49.18 33.86 49.59 33.44 49.93 32.9 50.2 32.33 50.38 31.71 50.5 31.03 50.53 30.32 50.53 20.77 52.47 20.77"/><polygon class="cls-1" points="59.17 36.7 59.17 22.27 56.09 22.27 56.09 20.77 59.17 20.77 59.17 16.86 59.27 15.89 59.66 15.01 60.06 14.33 60.75 13.85 61.64 13.57 62.73 13.45 62.95 13.48 63.23 13.48 63.54 13.51 63.91 13.54 64.32 13.6 64.77 13.65 64.77 15.3 64.76 15.27 64.74 15.27 64.72 15.27 64.7 15.27 64.68 15.27 64.66 15.27 63.4 15.24 62.98 15.24 62.49 15.27 62.3 15.35 62.03 15.44 61.8 15.55 61.62 15.69 61.47 15.86 61.35 16.09 61.26 16.34 61.19 16.69 61.15 17.03 61.14 17.45 61.14 20.77 64.77 20.77 64.77 22.27 61.14 22.27 61.14 36.7 59.17 36.7"/><polygon class="cls-1" points="67.13 36.7 67.13 34.77 76.1 22.52 67.36 22.52 67.36 20.77 78.36 20.77 78.36 22.52 69.52 34.97 78.57 34.97 78.57 36.7 67.13 36.7"/><polygon class="cls-1" points="94.97 20.77 94.97 33.04 94.97 33.58 94.98 34.12 95 34.72 95.02 35.34 95.05 36.02 95.09 36.7 93.19 36.7 93.1 34.2 92.31 35.08 91.5 35.79 90.65 36.33 89.76 36.7 88.84 36.98 88.01 37.07 86.25 36.9 84.91 36.36 83.87 35.48 83.13 34.26 82.68 32.7 82.53 30.77 82.53 20.77 84.47 20.77 84.47 30.52 84.57 31.99 84.87 33.18 85.38 34.12 86.1 34.77 87.02 35.17 88.01 35.31 88.85 35.25 89.51 35.14 90.13 34.97 90.69 34.69 91.21 34.35 91.68 33.86 92.1 33.44 92.44 32.9 92.7 32.33 92.89 31.71 93 31.03 93.04 30.32 93.04 20.77 94.97 20.77"/><polygon class="cls-1" points="101.65 28.42 101.68 29.33 101.76 30.15 101.89 31.03 102.18 31.65 102.33 32.3 102.63 32.9 103.07 33.52 103.6 34.03 104.2 34.43 104.87 34.72 105.63 34.91 106.45 34.97 107.28 34.91 108.04 34.74 108.73 34.46 109.35 34.06 109.9 33.58 110.38 32.96 110.68 32.36 111.02 31.71 111.24 31.03 111.4 30.26 111.49 29.44 111.53 28.56 111.5 27.66 111.4 26.83 111.25 26.04 111.03 25.36 110.68 24.65 110.42 24.06 109.94 23.4 109.39 22.89 108.77 22.52 108.07 22.21 107.3 22.04 106.45 21.99 105.65 22.04 105.01 22.21 104.26 22.52 103.67 22.89 103.15 23.4 102.7 24.06 102.38 24.65 102.18 25.36 101.91 25.98 101.77 26.75 101.68 27.57 101.65 28.42"/><polygon class="cls-1" points="113.52 35.37 113.52 36.7 113.32 37.69 113.1 38.68 112.8 39.53 112.41 40.33 111.93 41.01 111.3 41.6 110.68 42.11 109.72 42.37 108.75 42.77 107.68 42.94 106.49 42.99 104.61 42.88 103.06 42.37 101.84 41.86 100.95 40.98 100.39 39.84 100.16 38.43 102.18 38.43 102.48 39.31 102.86 40.04 103.45 40.58 104.26 40.98 105.29 41.23 106.53 41.32 108.08 41.18 109.34 40.72 110.32 39.99 111.02 38.97 111.44 37.66 111.58 36.05 111.58 33.67 110.89 34.55 110.11 35.28 109.24 35.85 108.29 36.24 107.25 36.5 106.13 36.7 105.01 36.5 104.09 36.3 103.21 35.96 102.41 35.45 101.71 34.83 101.1 34.06 100.65 33.3 100.28 32.48 99.99 31.57 99.79 30.6 99.66 29.55 99.62 28.42 99.67 27.32 99.8 26.3 100.02 25.36 100.33 24.43 100.72 23.6 101.21 22.86 101.85 22.1 102.56 21.5 103.37 21.02 104.26 20.68 105.23 20.48 106.28 20.4 107.35 20.48 108.35 20.74 109.27 21.14 110.12 21.7 110.89 22.52 111.58 23.32 111.66 20.77 113.67 20.77 113.52 21.7 113.52 22.52 113.52 23.29 113.52 23.91 113.52 24.43 113.52 24.82 113.52 35.37"/><rect class="cls-1" x="127.54" y="13.8" width="2.37" height="2.6"/><rect class="cls-1" x="127.69" y="20.76" width="2.01" height="15.94"/><polygon class="cls-1" points="135.24 36.7 135.24 24.43 135.23 23.83 135.22 23.26 135.21 22.52 135.19 22.04 135.16 21.42 135.12 20.77 137.06 20.77 137.15 23.49 137.91 22.52 138.72 21.87 139.55 21.31 140.43 20.91 141.34 20.65 142.28 20.6 143.49 20.68 144.54 20.94 145.45 21.39 146.2 22.02 146.8 22.84 147.25 23.83 148.1 22.84 148.97 22.02 149.86 21.39 150.78 20.94 151.73 20.68 152.71 20.6 154.34 20.77 155.68 21.28 156.71 22.16 157.46 23.4 157.9 24.96 158.05 26.89 158.05 36.7 156.04 36.7 156.04 27.12 156.04 25.67 155.71 24.45 155.2 23.52 154.48 22.86 153.56 22.52 152.44 22.33 151.73 22.36 151.07 22.52 150.37 22.67 149.9 22.95 149.39 23.32 148.92 23.74 148.52 24.23 148.19 24.77 147.93 25.36 147.75 25.98 147.53 26.64 147.53 27.37 147.53 36.7 145.67 36.7 145.67 27.12 145.56 25.67 145.26 24.45 144.7 23.52 144.05 22.86 143.14 22.52 142.03 22.33 141.32 22.36 140.65 22.52 140.03 22.67 139.46 22.95 139.03 23.29 138.47 23.72 138.07 24.23 137.74 24.74 137.48 25.36 137.3 25.95 137.19 26.64 137.15 27.37 137.15 36.7 135.24 36.7"/><polygon class="cls-1" points="174.58 34.86 179.54 34.86 180.37 34.83 181.15 34.77 181.88 34.63 182.55 34.46 183.18 34.23 183.75 33.86 184.39 33.52 184.91 33.04 185.31 32.48 185.6 31.85 185.78 31.17 185.84 30.43 185.65 28.96 185.1 27.8 184.18 26.86 182.88 26.21 181.23 25.81 179.2 25.67 174.58 25.67 174.58 34.86"/><polygon class="cls-1" points="174.58 23.97 178.72 23.97 179.57 23.94 180.4 23.89 181.15 23.8 181.82 23.66 182.42 23.46 182.93 23.23 183.52 22.86 184 22.52 184.39 21.84 184.64 21.22 184.81 20.48 184.86 19.69 184.69 18.47 184.18 17.45 183.32 16.69 182.12 16.12 180.58 15.78 178.72 15.66 174.58 15.66 174.58 23.97"/><polygon class="cls-1" points="172.57 36.7 172.57 13.82 178.35 13.82 181 14.02 183.17 14.47 184.85 15.27 186.06 16.4 186.78 17.85 187.02 19.69 186.9 20.88 186.54 21.96 185.95 22.89 185.11 23.66 184.03 24.25 182.72 24.71 183.49 24.88 184.21 25.11 184.87 25.36 185.48 25.7 186.03 26.1 186.52 26.52 186.99 27.03 187.37 27.6 187.67 28.19 187.89 28.9 188.01 29.61 188.06 30.38 187.8 32.3 187.03 33.86 185.76 35.11 183.97 35.99 181.55 36.53 178.87 36.7 172.57 36.7"/><polygon class="cls-1" points="193.22 36.7 193.22 24.59 193.22 24.25 193.21 23.8 193.19 23.23 193.15 22.52 193.12 21.7 193.07 20.77 195.02 20.77 195.16 23.23 195.72 22.52 196.23 21.79 196.92 21.31 197.71 20.94 198.56 20.74 199.59 20.65 199.75 20.65 199.9 20.68 200.07 20.68 200.24 20.68 200.42 20.71 200.61 20.74 200.61 22.52 200.45 22.52 200.28 22.52 200.11 22.52 199.93 22.52 199.75 22.52 199.56 22.52 198.88 22.52 198.25 22.72 197.68 22.92 197.16 23.18 196.69 23.55 196.28 23.94 195.96 24.4 195.72 24.91 195.5 25.36 195.35 26.04 195.26 26.69 195.23 27.4 195.23 36.7 193.22 36.7"/><polygon class="cls-1" points="212.97 28.54 210.64 28.54 209.9 28.54 209.13 28.59 208.44 28.7 207.8 28.85 207.06 29.02 206.66 29.21 206 29.55 205.46 29.98 205.03 30.46 204.73 31.03 204.56 31.6 204.5 32.28 204.52 32.76 204.61 33.21 204.76 33.64 204.96 34.01 205.23 34.35 205.55 34.66 205.89 34.88 206.27 35.08 206.68 35.25 207.06 35.34 207.6 35.42 208.11 35.42 208.79 35.4 209.42 35.28 209.9 35.11 210.58 34.88 211.1 34.55 211.58 34.18 212 33.86 212.35 33.24 212.73 32.7 212.73 32.11 212.94 31.48 212.97 30.8 212.97 28.54"/><polygon class="cls-1" points="213.32 36.7 213.15 34.03 212.51 34.97 211.78 35.71 210.93 36.3 209.9 36.7 208.94 36.98 207.79 37.07 207.06 37.04 206.33 36.93 205.68 36.7 205.08 36.53 204.54 36.22 204.05 35.85 203.61 35.4 203.24 34.88 202.95 34.32 202.74 33.69 202.62 33.01 202.58 32.25 202.65 31.37 202.86 30.58 203.22 29.84 203.71 29.19 204.23 28.59 205.13 28.19 205.83 27.77 206.59 27.49 207.41 27.29 208.28 27.15 209.21 27.03 210.2 27 212.97 27 212.97 25.16 212.73 24.17 212.55 23.38 212.01 22.72 211.26 22.27 210.3 22.02 209.13 21.93 208 22.02 207.06 22.24 206.33 22.52 205.77 23.21 205.41 23.91 205.24 24.77 203.23 24.77 203.54 23.43 204.23 22.36 204.96 21.5 206.06 20.91 207.44 20.54 209.09 20.4 210.61 20.51 211.91 20.8 212.98 21.31 213.82 21.99 214.43 22.86 214.81 23.94 214.87 24.25 214.92 24.65 214.95 25.08 214.98 25.56 215 26.13 215 26.75 215 33.69 215.01 34.15 215.03 34.6 215.06 35.08 215.1 35.59 215.16 36.13 215.23 36.7 213.32 36.7"/><polygon class="cls-1" points="220.3 36.7 220.3 24.43 220.3 23.83 220.29 23.26 220.27 22.52 220.25 22.04 220.22 21.42 220.19 20.77 222.12 20.77 222.22 23.49 223 22.52 223.81 21.87 224.66 21.31 225.53 20.91 226.44 20.65 227.38 20.6 229.04 20.77 230.39 21.28 231.45 22.16 232.2 23.4 232.58 24.96 232.8 26.89 232.8 36.7 230.83 36.7 230.83 27.12 230.81 26.41 230.75 25.73 230.66 25.13 230.53 24.62 230.36 24.14 230.16 23.74 229.74 23.32 229.43 22.95 228.96 22.67 228.42 22.52 227.81 22.36 227.13 22.33 226.42 22.36 225.75 22.52 225.13 22.67 224.56 22.95 224.07 23.32 223.56 23.74 223.15 24.23 222.81 24.77 222.55 25.36 222.37 25.98 222.25 26.64 222.22 27.37 222.22 36.7 220.3 36.7"/><polygon class="cls-1" points="251.1 13.82 251.1 32.65 251.1 32.84 251.1 33.13 251.11 33.44 251.13 33.86 251.15 34.2 251.17 34.66 251.29 36.7 249.28 36.7 249.18 34.09 248.49 35 247.72 35.73 246.75 36.3 245.95 36.7 244.95 36.98 243.92 37.07 242.81 36.98 241.83 36.7 240.94 36.41 240.13 35.93 239.41 35.28 238.77 34.52 238.25 33.86 237.91 32.9 237.61 31.96 237.39 31.03 237.26 29.92 237.22 28.82 237.26 27.66 237.38 26.58 237.58 25.59 237.87 24.65 238.25 23.8 238.67 23.01 239.3 22.21 240.02 21.56 240.83 21.05 241.74 20.71 242.73 20.48 243.92 20.4 244.91 20.48 245.91 20.74 246.75 21.16 247.68 21.73 248.44 22.52 249.12 23.38 249.12 13.82 251.1 13.82"/><polygon class="cls-1" points="249.12 28.7 249.09 27.83 249 27 248.84 26.21 248.62 25.36 248.34 24.82 248 24.2 247.52 23.55 246.97 23.04 246.35 22.52 245.66 22.33 244.89 22.13 243.92 22.07 243.22 22.13 242.47 22.33 241.79 22.52 241.08 23.04 240.67 23.6 240.22 24.25 239.93 24.88 239.68 25.53 239.49 26.27 239.36 27.06 239.28 27.91 239.25 28.82 239.28 29.73 239.36 30.55 239.51 31.34 239.71 32.08 239.97 32.73 240.28 33.35 240.74 33.86 241.27 34.52 241.88 34.94 242.56 35.23 243.32 35.42 244.15 35.48 244.98 35.42 245.75 35.23 246.44 34.94 247.05 34.52 247.59 33.86 248.05 33.3 248.38 32.67 248.65 31.99 248.86 31.26 249 30.49 249.09 29.64 249.12 28.7"/><polygon class="cls-1" points="257.74 36.7 257.74 22.27 254.65 22.27 254.65 20.77 257.74 20.77 257.74 16.86 257.83 15.89 258.09 15.01 258.63 14.33 259.32 13.85 260.21 13.57 261.3 13.45 261.52 13.48 261.79 13.48 262.11 13.51 262.48 13.54 262.89 13.6 263.34 13.65 263.34 15.3 263.33 15.27 263.31 15.27 263.29 15.27 263.27 15.27 263.25 15.27 263.23 15.27 261.96 15.24 261.55 15.24 261.19 15.27 260.92 15.35 260.6 15.44 260.37 15.55 260.18 15.69 260.04 15.86 259.92 16.09 259.83 16.34 259.76 16.69 259.72 17.03 259.7 17.45 259.7 20.77 263.34 20.77 263.34 22.27 259.7 22.27 259.7 36.7 257.74 36.7"/><polygon class="cls-1" points="276.3 28.54 273.96 28.54 273.18 28.54 272.45 28.59 271.76 28.7 271.12 28.85 270.53 29.02 269.98 29.21 269.43 29.55 268.78 29.98 268.36 30.46 268.06 31.03 267.88 31.6 267.82 32.28 267.85 32.76 267.94 33.21 268.08 33.64 268.29 34.01 268.55 34.35 268.87 34.66 269.22 34.88 269.59 35.08 270 35.25 270.45 35.34 270.93 35.42 271.44 35.42 272.11 35.4 272.75 35.28 273.35 35.11 273.9 34.88 274.42 34.55 274.9 34.18 275.33 33.86 275.68 33.24 275.95 32.7 276.14 32.11 276.26 31.48 276.3 30.8 276.3 28.54"/><polygon class="cls-1" points="276.64 36.7 276.47 34.03 275.84 34.97 275.1 35.71 274.26 36.3 273.31 36.7 272.26 36.98 271.11 37.07 270.36 37.04 269.65 36.93 269 36.7 268.41 36.53 267.87 36.22 267.38 35.85 266.93 35.4 266.59 34.88 266.28 34.32 266.07 33.69 265.95 33.01 265.91 32.25 265.98 31.37 266.19 30.58 266.59 29.84 267.04 29.19 267.67 28.59 268.45 28.19 269.16 27.77 269.92 27.49 270.74 27.29 271.61 27.15 272.54 27.03 273.52 27 276.3 27 276.3 25.16 276.19 24.17 275.87 23.38 275.34 22.72 274.59 22.27 273.63 22.02 272.45 21.93 271.33 22.02 270.39 22.24 269.65 22.52 269.1 23.21 268.74 23.91 268.57 24.77 266.59 24.77 266.86 23.43 267.44 22.36 268.28 21.5 269.43 20.91 270.77 20.54 272.41 20.4 273.94 20.51 275.1 20.8 276.3 21.31 277.14 21.99 277.75 22.86 278.14 23.94 278.19 24.25 278.24 24.65 278.28 25.08 278.31 25.56 278.32 26.13 278.33 26.75 278.33 33.69 278.33 34.15 278.35 34.6 278.38 35.08 278.43 35.59 278.49 36.13 278.56 36.7 276.64 36.7"/><rect class="cls-1" x="283.6" y="13.83" width="1.88" height="22.87"/><rect class="cls-1" x="290.9" y="13.83" width="1.97" height="22.87"/><polygon class="cls-1" points="53.48 70.72 53.48 58.44 53.48 57.85 53.47 57.28 53.45 56.54 53.43 56.06 53.4 55.44 53.37 54.78 55.3 54.78 55.4 57.51 56.18 56.54 56.99 55.89 57.84 55.32 58.71 54.93 59.66 54.67 60.56 54.61 62.22 54.78 63.57 55.3 64.63 56.17 65.33 57.42 65.83 58.98 65.98 60.91 65.98 70.72 64.01 70.72 64.01 61.13 63.99 60.43 63.93 59.74 63.84 59.15 63.71 58.64 63.54 58.16 63.34 57.76 63.01 57.34 62.49 56.97 62.14 56.68 61.6 56.54 60.99 56.37 60.31 56.34 59.66 56.37 58.93 56.54 58.31 56.68 57.74 56.97 57.21 57.34 56.82 57.76 56.33 58.24 55.99 58.78 55.73 59.38 55.54 60 55.43 60.65 55.4 61.39 55.4 70.72 53.48 70.72"/><rect class="cls-1" x="71" y="47.82" width="2.44" height="2.6"/><rect class="cls-1" x="71.26" y="54.77" width="1.97" height="15.94"/><polygon class="cls-1" points="90.84 65.87 90.84 66.69 90.6 67.46 90.33 68.16 89.98 68.79 89.55 69.33 89.04 69.81 88.48 70.2 87.86 70.52 87.19 70.72 86.45 70.94 85.66 71.06 84.81 71.08 83.68 71.03 82.65 70.72 81.71 70.49 80.86 70.03 80.11 69.44 79.5 68.7 78.94 67.88 78.53 67.11 78.2 66.18 77.97 65.05 77.83 64.11 77.79 62.95 77.83 61.73 77.96 60.57 78.17 59.52 78.47 58.55 78.86 57.7 79.34 56.91 79.99 56.15 80.75 55.52 81.61 55.01 82.58 54.67 83.64 54.47 84.81 54.39 85.66 54.42 86.45 54.53 87.19 54.73 87.86 54.98 88.48 55.32 89.04 55.72 89.57 56.23 90.01 56.8 90.36 57.45 90.61 58.13 90.84 58.9 90.84 59.72 88.69 59.72 88.63 59.18 88.51 58.64 88.34 58.16 88.01 57.73 87.84 57.31 87.51 56.97 87.14 56.54 86.73 56.37 86.28 56.17 85.8 56.03 85.17 55.95 84.71 55.92 83.23 56.12 82.02 56.68 81.08 57.65 80.41 59.01 80.01 60.74 79.87 62.86 80.01 64.85 80.41 66.46 81.08 67.88 82.02 68.65 83.23 69.19 84.71 69.38 85.8 69.27 86.73 68.99 87.49 68.5 88.01 67.88 88.53 66.95 88.81 65.87 90.84 65.87"/><polygon class="cls-1" points="95.3 70.72 95.3 47.84 97.23 47.84 97.23 57.45 98 56.54 98.8 55.86 99.64 55.32 100.51 54.93 101.43 54.67 102.38 54.61 104.03 54.78 105.38 55.3 106.43 56.17 107.17 57.42 107.63 58.98 107.85 60.91 107.85 70.72 105.8 70.72 105.8 61.13 105.7 59.69 105.4 58.47 105.01 57.53 104.17 56.88 103.25 56.54 102.18 56.34 101.41 56.37 100.75 56.54 100.13 56.68 99.56 56.97 99.04 57.34 98.57 57.76 98.16 58.24 97.83 58.78 97.56 59.38 97.38 60 97.27 60.65 97.23 61.39 97.23 70.72 95.3 70.72"/><polygon class="cls-1" points="116.12 66.55 116.13 67 116.16 67.4 116.35 67.88 116.35 68.08 116.35 68.33 116.5 68.56 116.69 68.82 116.92 69.02 117.2 69.19 117.52 69.3 117.89 69.36 118.3 69.38 118.57 69.36 118.85 69.36 119.19 69.3 119.42 69.27 119.71 69.19 120 69.1 120 70.72 119.55 70.91 119.19 71 118.75 71.06 118.41 71.11 118.11 71.14 117.84 71.14 116.71 71.03 115.79 70.72 115.07 70.2 114.56 69.5 114.25 68.56 114.15 67.43 114.15 56.29 111.03 56.29 111.03 54.78 114.15 54.78 114.15 51.47 116.12 50.59 116.12 54.78 119.7 54.78 119.7 56.29 116.12 56.29 116.12 66.55"/><polygon class="cls-1" points="144.31 62.84 144.28 61.9 144.2 61.05 144.06 60.26 143.87 59.52 143.62 58.87 143.31 58.24 142.87 57.59 142.34 57.05 141.87 56.54 141.06 56.31 140.3 56.15 139.47 56.09 138.62 56.15 137.85 56.31 137.15 56.54 136.53 57.02 135.98 57.56 135.5 58.19 135.16 58.81 134.89 59.38 134.67 60.23 134.52 60.99 134.42 61.84 134.4 62.72 134.42 63.66 134.51 64.51 134.66 65.27 134.86 66.01 135.13 66.69 135.45 67.31 135.91 67.88 136.45 68.53 137.07 68.96 137.76 69.24 138.53 69.44 139.37 69.5 140.2 69.44 140.96 69.24 141.64 68.96 142.25 68.53 142.79 67.88 143.25 67.37 143.58 66.75 143.84 66.09 144.05 65.36 144.19 64.56 144.28 63.74 144.31 62.84"/><polygon class="cls-1" points="134.4 57.36 135.11 56.54 135.9 55.72 136.76 55.12 137.7 54.73 138.72 54.47 139.81 54.39 140.89 54.47 141.87 54.67 142.78 55.04 143.58 55.58 144.29 56.23 144.9 57.02 145.34 57.82 145.7 58.67 145.98 59.6 146.18 60.6 146.3 61.67 146.34 62.84 146.29 63.94 146.16 65.05 145.94 65.98 145.64 66.92 145.25 67.88 144.7 68.53 144.13 69.3 143.41 69.95 142.61 70.43 141.71 70.72 140.74 71 139.68 71.08 138.61 71 137.61 70.72 136.69 70.32 135.85 69.75 135.09 69.02 134.4 68.11 134.28 70.72 132.27 70.72 132.42 66.66 132.42 47.84 134.4 47.84 134.4 57.36"/><polygon class="cls-1" points="152.21 61.45 162.24 61.45 162.17 60.68 162.04 59.94 161.71 59.38 161.71 58.67 161.28 58.1 160.9 57.59 160.43 57.08 159.91 56.68 159.32 56.37 158.68 56.15 157.98 56 157.23 55.95 155.88 56.12 154.74 56.54 153.8 57.34 153.2 58.41 152.54 59.77 152.21 61.45"/><polygon class="cls-1" points="164.15 65.67 163.98 66.52 163.73 67.31 163.38 68.02 162.95 68.67 162.44 69.27 161.71 69.78 161.21 70.18 160.53 70.52 159.79 70.72 158.87 70.94 158.16 71.06 157.26 71.08 156.04 71.03 155.08 70.72 154.12 70.49 153.2 70.03 152.47 69.44 151.77 68.7 151.22 67.88 150.77 67.06 150.37 66.12 150.17 65.05 150.02 64.03 149.97 62.86 150.02 61.7 150.17 60.6 150.37 59.55 150.78 58.61 151.23 57.73 151.79 56.91 152.5 56.15 153.2 55.52 154.19 55.01 155.16 54.67 156.22 54.47 157.36 54.39 158.45 54.44 159.46 54.64 160.38 54.98 161.22 55.44 161.97 56.03 162.64 56.77 163.17 57.51 163.61 58.36 163.95 59.38 164.19 60.23 164.33 61.28 164.38 62.41 164.38 62.98 152.16 62.98 152.19 63.88 152.29 64.73 152.46 65.53 152.69 66.27 152.99 66.92 153.36 67.51 153.86 68.11 154.44 68.59 155.1 68.99 155.83 69.24 156.63 69.41 157.51 69.47 158.1 69.44 158.66 69.36 159.18 69.21 159.68 69.02 160.15 68.76 160.59 68.45 160.99 68.08 161.34 67.68 161.71 67.23 161.87 66.75 162.06 66.24 162.18 65.67 164.15 65.67"/><polygon class="cls-1" points="168.46 70.72 168.46 58.44 168.46 57.85 168.45 57.28 168.43 56.54 168.41 56.06 168.38 55.44 168.34 54.78 170.21 54.78 170.38 57.51 171.15 56.54 171.97 55.89 172.81 55.32 173.69 54.93 174.6 54.67 175.54 54.61 177.19 54.78 178.55 55.3 179.6 56.17 180.36 57.42 180.81 58.98 180.96 60.91 180.96 70.72 178.99 70.72 178.99 61.13 178.97 60.43 178.91 59.74 178.72 59.15 178.72 58.64 178.52 58.16 178.31 57.76 177.99 57.34 177.59 56.97 177.12 56.68 176.58 56.54 175.88 56.37 175.29 56.34 174.58 56.37 173.91 56.54 173.29 56.68 172.71 56.97 172.19 57.34 171.71 57.76 171.3 58.24 170.97 58.78 170.71 59.38 170.52 60 170.41 60.65 170.38 61.39 170.38 70.72 168.46 70.72"/><polygon class="cls-1" points="198.56 54.78 198.56 67.06 198.56 67.6 198.56 68.14 198.56 68.73 198.56 69.36 198.56 70.03 198.74 70.72 196.84 70.72 196.75 68.22 195.96 69.1 195.14 69.81 194.29 70.35 193.41 70.72 192.49 71 191.54 71.08 189.9 70.91 188.56 70.38 187.52 69.5 186.78 68.28 186.33 66.72 186.18 64.79 186.18 54.78 188.11 54.78 188.11 64.54 188.22 66.01 188.52 67.2 189.03 68.14 189.75 68.79 190.66 69.19 191.79 69.33 192.5 69.27 193.16 69.16 193.77 68.99 194.34 68.7 194.86 68.36 195.33 67.88 195.72 67.46 196.08 66.92 196.35 66.35 196.54 65.73 196.65 65.05 196.69 64.34 196.69 54.78 198.56 54.78"/><polygon class="cls-1" points="207.06 66.55 207.06 67 207.22 67.4 207.27 67.88 207.34 68.08 207.44 68.33 207.56 68.56 207.75 68.82 207.98 69.02 208.25 69.19 208.58 69.3 208.94 69.36 209.35 69.38 209.63 69.36 209.9 69.36 210.18 69.3 210.47 69.27 210.76 69.19 211.06 69.1 211.06 70.72 210.6 70.91 210.19 71 209.9 71.06 209.47 71.11 209.16 71.14 208.9 71.14 207.77 71.03 206.85 70.72 206.13 70.2 205.61 69.5 205.31 68.56 205.2 67.43 205.2 56.29 202.08 56.29 202.08 54.78 205.2 54.78 205.2 51.47 207.06 50.59 207.06 54.78 210.75 54.78 210.75 56.29 207.06 56.29 207.06 66.55"/><polygon class="cls-1" points="213.24 70.72 213.24 68.79 222.22 56.54 213.47 56.54 213.47 54.78 224.47 54.78 224.47 56.54 215.57 68.99 224.69 68.99 224.69 70.72 213.24 70.72"/><polygon class="cls-1" points="230.08 61.45 240.11 61.45 240.04 60.68 239.91 59.94 239.72 59.38 239.46 58.67 239.15 58.1 238.77 57.59 238.25 57.08 237.78 56.68 237.19 56.37 236.55 56.15 235.85 56 235.1 55.95 233.75 56.12 232.58 56.54 231.67 57.34 230.94 58.41 230.41 59.77 230.08 61.45"/><polygon class="cls-1" points="242.02 65.67 241.85 66.52 241.6 67.31 241.25 68.02 240.82 68.67 240.31 69.27 239.71 69.78 239.08 70.18 238.4 70.52 237.66 70.72 236.87 70.94 236.03 71.06 235.13 71.08 234 71.03 232.95 70.72 231.99 70.49 231.12 70.03 230.34 69.44 229.74 68.7 229.09 67.88 228.64 67.06 228.29 66.12 228.04 65.05 227.89 64.03 227.84 62.86 227.89 61.7 228.04 60.6 228.3 59.55 228.65 58.61 229.1 57.73 229.74 56.91 230.37 56.15 231.17 55.52 232.06 55.01 233.03 54.67 234.09 54.47 235.23 54.39 236.32 54.44 237.33 54.64 238.25 54.98 239.09 55.44 239.84 56.03 240.51 56.77 241.08 57.51 241.48 58.36 241.82 59.38 242.06 60.23 242.2 61.28 242.25 62.41 242.25 62.98 230.03 62.98 230.06 63.88 230.16 64.73 230.33 65.53 230.56 66.27 230.86 66.92 231.23 67.51 231.73 68.11 232.31 68.59 232.97 68.99 233.7 69.24 234.5 69.41 235.41 69.47 235.97 69.44 236.53 69.36 237.05 69.21 237.55 69.02 238.02 68.76 238.47 68.45 238.86 68.08 239.21 67.68 239.5 67.23 239.74 66.75 239.92 66.24 240.05 65.67 242.02 65.67"/><polygon class="cls-1" points="246.33 70.72 246.33 58.44 246.32 57.85 246.32 57.28 246.3 56.54 246.28 56.06 246.25 55.44 246.22 54.78 248.15 54.78 248.24 57.51 249.02 56.54 249.84 55.89 250.68 55.32 251.56 54.93 252.42 54.67 253.41 54.61 255.06 54.78 256.42 55.3 257.47 56.17 258.09 57.42 258.68 58.98 258.83 60.91 258.83 70.72 256.86 70.72 256.86 61.13 256.84 60.43 256.78 59.74 256.69 59.15 256.56 58.64 256.39 58.16 256.18 57.76 255.85 57.34 255.46 56.97 254.99 56.68 254.45 56.54 253.84 56.37 253.16 56.34 252.42 56.37 251.78 56.54 251.16 56.68 250.58 56.97 250.06 57.34 249.59 57.76 249.17 58.24 248.84 58.78 248.58 59.38 248.39 60 248.28 60.65 248.24 61.39 248.24 70.72 246.33 70.72"/></svg>