<svg id="Layer_1" data-name="Layer 1" xmlns="http://www.w3.org/2000/svg" viewBox="0 0 115.71 116.07"><defs><style>.cls-1,.cls-2{fill:none;stroke:#000;}.cls-1{stroke-width:0.5px;}.cls-2{stroke-width:2px;}</style></defs><title>Tab (2)</title><polygon class="cls-1" points="62.9 57.45 64.26 58.04 65.37 58.92 66.36 59.93 66.86 61.14 67.23 62.54 67.35 64.13 67.27 65.51 67.02 66.79 66.6 67.96 66.02 69.03 65.27 69.98 64.36 70.82 63.52 71.49 62.34 72.03 61.19 72.46 59.95 72.76 58.61 72.94 57.18 73 55.79 72.93 54.5 72.73 53.31 72.4 52.19 71.93 51.23 71.32 50.34 70.58 49.57 69.72 48.93 68.75 48.44 67.68 48.09 66.54 47.88 65.24 47.81 63.86 47.81 63.71 52.19 63.71 52.19 65.31 52.73 66.54 53.45 67.74 54.45 68.5 55.73 68.95 57.3 69.1 58.07 69.07 58.79 68.97 59.45 68.81 60.05 68.59 60.69 68.3 61.08 67.95 61.55 67.51 61.93 67 62.23 66.54 62.44 65.8 62.57 65.1 62.61 64.34 62.47 62.92 62.02 61.75 61.28 60.87 60.24 60.19 58.91 59.81 57.28 59.68 56.9 59.68 56.56 59.68 56.25 59.68 55.98 59.68 55.75 59.68 55.56 59.68 55.56 56.26 56.61 56.26 58.17 56.14 59.44 55.8 60.43 55.2 61.14 54.43 61.56 53.4 61.7 52.14 61.67 51.53 61.57 50.97 61.39 50.46 61.15 49.99 60.84 49.53 60.46 49.2 60.05 48.89 59.6 48.64 59.1 48.45 58.57 48.31 57.85 48.22 57.38 48.19 55.94 48.33 54.77 48.76 53.86 49.53 53.21 50.44 52.82 51.7 52.69 53.24 52.69 53.48 48.41 53.48 48.41 53.29 48.47 51.97 48.67 50.75 49.01 49.53 49.35 48.6 50.08 47.67 50.82 46.7 51.68 46.11 52.63 45.52 53.68 45.05 54.82 44.73 56.05 44.53 57.38 44.46 58.6 44.51 59.76 44.66 60.83 44.9 61.83 45.24 62.75 45.67 63.52 46.21 64.44 46.91 65.12 47.71 65.66 48.6 66.04 49.53 66.36 50.67 66.36 51.85 66.36 53.13 65.96 54.26 65.48 55.2 64.81 56.13 63.95 56.86 62.9 57.45"/><circle class="cls-1" cx="57.85" cy="58.04" r="39.69" transform="translate(-23.5 67.92) rotate(-52.02)"/><circle class="cls-1" cx="57.85" cy="58.04" r="42.52" transform="translate(-10.93 102.58) rotate(-78.02)"/><circle class="cls-2" cx="57.85" cy="58.04" r="48.19" transform="translate(-14.46 96.59) rotate(-73.15)"/></svg>