<svg id="Layer_1" data-name="Layer 1" xmlns="http://www.w3.org/2000/svg" viewBox="0 0 115.71 116.07"><defs><style>.cls-1,.cls-2{fill:none;stroke:#000;}.cls-1{stroke-width:0.5px;}.cls-2{stroke-width:2px;}</style></defs><title>Tab (2)</title><circle class="cls-1" cx="57.85" cy="58.04" r="39.69" transform="translate(-17.91 89.28) rotate(-67.5)"/><circle class="cls-1" cx="57.85" cy="58.04" r="42.52"/><circle class="cls-2" cx="57.85" cy="58.04" r="48.19"/><path class="cls-1" d="M55.49,81.19h0a2.37,2.37,0,0,0,4.73,0V34.89a2.28,2.28,0,0,0-.7-1.67,2.33,2.33,0,0,0-1.67-.7,2.37,2.37,0,0,0-2.36,2.37Z"/><path class="cls-1" d="M28.56,66.28h0V49.8a2.29,2.29,0,0,1,1.09-2,2.31,2.31,0,0,1,2.26-.19l18,8.25a2.36,2.36,0,0,1,0,4.29L31.91,68.43a2.34,2.34,0,0,1-2.26-.18A2.29,2.29,0,0,1,28.56,66.28Z"/><polygon class="cls-1" points="33.29 62.6 33.29 62.6 43.21 58.05 33.29 53.48 33.29 62.6"/><path class="cls-1" d="M65.85,60.19h0a2.36,2.36,0,0,1,0-4.29l18-8.25a2.31,2.31,0,0,1,2.26.19,2.29,2.29,0,0,1,1.09,2V66.28a2.29,2.29,0,0,1-1.09,2,2.34,2.34,0,0,1-2.26.18Z"/><polygon class="cls-1" points="72.49 58.05 72.49 58.05 82.42 53.48 82.42 62.6 72.49 58.05"/></svg>