<svg id="Layer_1" data-name="Layer 1" xmlns="http://www.w3.org/2000/svg" viewBox="0 0 115.71 116.07"><defs><style>.cls-1,.cls-2{fill:none;stroke:#000;}.cls-1{stroke-width:0.5px;}.cls-2{stroke-width:2px;}</style></defs><title>Tab (2)</title><circle class="cls-1" cx="57.85" cy="58.04" r="39.69" transform="translate(-23.5 67.92) rotate(-52.02)"/><circle class="cls-1" cx="57.85" cy="58.04" r="42.52" transform="translate(-10.93 102.58) rotate(-78.02)"/><circle class="cls-2" cx="57.85" cy="58.04" r="48.19" transform="translate(-14.46 96.59) rotate(-73.15)"/><path class="cls-1" d="M55.89,77.33h0a1.91,1.91,0,0,0,.57,1.39,2,2,0,0,0,2.79,0,1.91,1.91,0,0,0,.57-1.39V38.74a1.91,1.91,0,0,0-.57-1.39,2,2,0,0,0-2.79,0,1.91,1.91,0,0,0-.57,1.39Z"/><path class="cls-1" d="M33.44,64.91h0V51.18a2,2,0,0,1,2.79-1.8l15,6.87a2,2,0,0,1,0,3.58l-15,6.87a1.92,1.92,0,0,1-1.88-.15A1.94,1.94,0,0,1,33.44,64.91Z"/><polygon class="cls-1" points="37.38 61.84 37.38 61.84 45.66 58.04 37.38 54.24 37.38 61.84"/><path class="cls-1" d="M64.51,59.83h0a2,2,0,0,1,0-3.58l15-6.87a1.94,1.94,0,0,1,1.89.16,1.9,1.9,0,0,1,.9,1.64V64.91a2,2,0,0,1-2.79,1.79Z"/><polygon class="cls-1" points="70.05 58.04 70.05 58.04 78.33 54.24 78.33 61.84 70.05 58.04"/></svg>