<svg id="Layer_1" data-name="Layer 1" xmlns="http://www.w3.org/2000/svg" viewBox="0 0 115.71 116.07"><defs><style>.cls-1,.cls-2{fill:none;stroke:#000;}.cls-1{stroke-width:0.5px;}.cls-2{stroke-width:2px;}</style></defs><title>Tab (2)</title><circle class="cls-1" cx="57.85" cy="58.04" r="39.69"/><circle class="cls-1" cx="57.85" cy="58.04" r="42.52"/><circle class="cls-1" cx="57.85" cy="58.04" r="48.19"/><circle class="cls-2" cx="57.85" cy="58.04" r="53.15"/><path class="cls-1" d="M63.52,82.13A2.15,2.15,0,0,1,61.4,84.4a2.27,2.27,0,1,1,0-4.54A2.15,2.15,0,0,1,63.52,82.13Z"/><path class="cls-1" d="M56.58,75.05a2.27,2.27,0,1,1-2.27-2.27A2.27,2.27,0,0,1,56.58,75.05Z"/><path class="cls-1" d="M43.43,64.27a2.27,2.27,0,0,0,2.26,2.27H70A2.27,2.27,0,0,0,70,62H48V47.83H64a2.42,2.42,0,0,0,2.35-2.27A2.34,2.34,0,0,0,64,43.3H48V29.11H70a2.27,2.27,0,0,0,0-4.53H45.69a2.26,2.26,0,0,0-2.26,2.28V64.27"/></svg>