<svg id="Layer_1" data-name="Layer 1" xmlns="http://www.w3.org/2000/svg" viewBox="0 0 115.71 116.07"><defs><style>.cls-1,.cls-2{fill:none;stroke:#000;}.cls-1{stroke-width:0.5px;}.cls-2{stroke-width:2px;}</style></defs><title>Tab (2)</title><polygon class="cls-1" points="68.28 52.02 63.77 52.02 63.67 51.2 63.48 50.44 63.19 49.75 62.82 49.13 62.35 48.58 61.78 48.09 61.2 47.7 60.56 47.38 59.87 47.14 59.12 46.96 58.31 46.86 57.45 46.69 56.8 46.85 56.17 46.92 55.57 47.05 55 47.22 54.46 47.44 53.95 47.72 53.41 48.09 52.97 48.5 52.63 48.96 52.39 49.53 52.24 50.02 52.19 50.63 52.26 51.31 52.46 51.94 52.8 52.52 53.28 53.06 53.89 53.55 54.63 54 55.09 54.21 55.65 54.43 56.44 54.66 57.07 54.9 57.94 55.2 58.91 55.39 60.52 55.83 61.95 56.25 63.2 56.66 64.27 57.07 65.16 57.48 65.87 57.87 66.85 58.62 67.77 59.48 68.28 60.45 68.73 61.53 69 62.72 69.09 64.03 68.99 65.44 68.7 66.74 68.22 67.93 67.55 69.01 66.68 69.98 65.62 70.84 64.58 71.48 63.44 72.01 62.1 72.42 60.9 72.71 59.5 72.88 58.01 72.94 56.44 72.88 54.84 72.68 53.44 72.36 52.16 71.9 51 71.31 49.96 70.59 48.99 69.68 48.19 68.62 47.55 67.43 47.07 66.11 46.76 64.64 46.62 63.04 51.2 63.04 51.32 63.98 51.55 64.84 51.88 65.62 52.31 66.33 52.85 66.95 53.6 67.5 54.15 67.91 54.88 68.25 55.66 68.52 56.44 68.71 57.43 68.82 58.41 68.86 59.1 68.83 59.76 68.75 60.38 68.62 60.98 68.43 61.55 68.19 62.1 67.9 62.67 67.49 63.14 67.04 63.51 66.53 63.77 66 63.93 65.41 63.98 64.77 63.94 64.24 63.81 63.7 63.59 63.22 63.28 62.72 62.89 62.24 62.4 61.77 61.96 61.43 61.35 61.1 60.6 60.86 59.69 60.44 58.63 60.11 57.42 59.79 56.18 59.48 54.88 59.12 53.6 58.73 52.61 58.3 51.64 57.84 50.77 57.35 50.05 56.82 49.26 56.07 48.61 55.2 48.1 54.3 47.74 53.28 47.53 52.17 47.45 50.97 47.55 49.69 47.93 48.51 48.31 47.43 48.97 46.46 49.82 45.58 50.77 44.81 51.88 44.23 52.96 43.86 54.12 43.39 55.36 43.13 56.66 42.98 58.04 42.92 59.48 42.98 60.83 43.17 62.1 43.49 63.24 43.86 64.31 44.49 65.28 45.18 66.19 46.05 66.94 47.03 67.52 48.11 67.94 49.31 68.19 50.61 68.28 52.02"/><circle class="cls-1" cx="57.85" cy="58.04" r="39.69" transform="translate(-23.5 67.92) rotate(-52.02)"/><circle class="cls-1" cx="57.85" cy="58.04" r="42.52" transform="translate(-10.93 102.58) rotate(-78.02)"/><circle class="cls-2" cx="57.85" cy="58.04" r="48.19" transform="translate(-14.46 96.59) rotate(-73.15)"/></svg>