<svg id="Layer_1" data-name="Layer 1" xmlns="http://www.w3.org/2000/svg" viewBox="0 0 149.15 145.72"><defs><style>.cls-1,.cls-2,.cls-3{fill:none;stroke:#000;}.cls-1{stroke-width:0.5px;}.cls-2{stroke-width:2px;}</style></defs><title>Tab (2)</title><polygon class="cls-1" points="37.28 18.38 34.38 18.32 34.23 25.89 32.84 25.86 33.16 10.15 36.28 10.21 37.13 10.24 37.88 10.32 38.54 10.42 39.11 10.56 39.57 10.73 39.95 10.94 40.33 11.13 40.64 11.69 40.88 12.21 41.04 12.81 41.14 13.51 41.16 14.29 41.07 15.24 40.87 16.04 40.54 16.81 40.09 17.2 39.51 17.57 38.81 17.8 39.23 17.91 39.59 18.05 39.9 18.22 40.17 18.43 40.39 18.67 40.56 18.94 40.66 19.18 40.75 19.48 40.81 19.81 40.85 20.19 40.87 20.62 40.87 21.09 40.85 22.1 40.85 22.7 40.86 23.32 40.88 23.96 40.92 24.63 40.97 25.32 41.04 26.03 39.52 26 39.5 25.69 39.49 25.29 39.48 24.94 39.47 24.5 39.48 24.01 39.48 23.47 39.49 22.93 39.5 22.45 39.5 22 39.49 21.6 39.48 21.25 39.47 20.96 39.43 20.53 39.38 20.15 39.19 19.81 39.19 19.61 39.2 19.28 38.99 19.08 38.81 18.87 38.59 18.7 38.32 18.56 38.02 18.46 37.67 18.4 37.28 18.38"/><polygon class="cls-1" points="34.4 17.21 36.06 17.25 36.66 17.24 37.2 17.2 37.68 17.12 38.1 17.01 38.47 16.76 38.76 16.77 39.05 16.41 39.27 16.08 39.48 15.68 39.61 15.22 39.7 14.7 39.74 14.11 39.72 13.59 39.66 13.13 39.55 12.73 39.34 12.39 39.17 12.11 38.9 11.88 38.65 11.73 38.33 11.61 37.95 11.52 37.51 11.44 37.01 11.39 36.52 11.37 34.52 11.33 34.4 17.21"/><polygon class="cls-1" points="49.48 15.24 50.79 15.27 50.6 24.71 50.6 24.83 50.61 25.01 50.62 25.24 50.63 25.51 50.65 25.84 50.68 26.22 49.36 26.2 49.28 24.91 48.91 25.48 48.5 25.75 48.03 26.05 47.56 26.25 46.97 26.37 46.37 26.4 45.93 26.37 45.53 26.29 45.16 26.16 44.73 25.99 44.53 25.78 44.27 25.39 44.06 25.22 43.89 24.9 43.76 24.54 43.67 24.16 43.62 23.74 43.61 23.29 43.77 15.12 44.95 15.15 44.8 22.8 44.97 23.54 45.11 24.15 45.37 24.62 45.72 24.96 46.19 25.17 46.76 25.25 47.59 25.16 48.17 24.87 48.67 24.37 49.03 23.66 49.26 22.65 49.35 21.62 49.48 15.24"/><polygon class="cls-1" points="53.62 26.28 53.82 16.43 52.06 16.4 52.08 15.29 53.84 15.33 53.89 13.03 53.93 12.48 54.02 12.01 54.15 11.6 54.34 11.26 54.58 10.98 54.87 10.77 55.14 10.64 55.48 10.55 55.88 10.47 56.39 10.43 56.88 10.4 57.48 10.4 57.46 11.48 57.15 11.47 56.76 11.46 56.37 11.46 56.13 11.63 55.88 11.72 55.69 11.83 55.54 11.97 55.45 12.12 55.38 12.33 55.31 12.58 55.27 12.89 55.24 13.25 55.22 13.66 55.19 15.35 57.38 15.4 57.36 16.5 55.16 16.46 54.97 26.31 53.62 26.28"/><polygon class="cls-1" points="58.9 26.39 59.1 16.54 57.41 16.5 57.44 15.4 59.12 15.43 59.17 13.13 59.18 12.59 59.37 12.12 59.51 11.71 59.7 11.36 59.93 11.09 60.22 10.88 60.5 10.75 60.83 10.65 61.24 10.58 61.7 10.53 62.24 10.51 62.84 10.51 62.81 11.59 62.5 11.58 62.03 11.57 61.77 11.56 61.48 11.74 61.24 11.82 61.04 11.94 60.9 12.07 60.8 12.23 60.73 12.44 60.67 12.69 60.62 13 60.59 13.36 60.57 13.77 60.54 15.46 62.73 15.51 62.71 16.61 60.52 16.57 60.32 26.42 58.9 26.39"/><polygon class="cls-1" points="63.83 26.49 64.02 16.97 64.02 16.75 64.01 16.52 63.99 16.26 63.96 15.99 63.92 15.7 63.87 15.38 65.25 15.41 65.36 16.98 65.73 16.47 66.14 16.06 66.59 15.74 67.07 15.52 67.63 15.39 68.15 15.35 68.41 15.36 68.39 16.5 68.1 16.5 67.61 16.51 67.26 16.58 66.9 16.7 66.57 16.86 66.27 17.08 66.01 17.32 65.81 17.63 65.64 17.94 65.5 18.29 65.4 18.67 65.34 19.08 65.31 19.53 65.17 26.52 63.83 26.49"/><polygon class="cls-1" points="70.86 20.25 75.83 20.35 75.84 19.89 75.8 18.89 75.61 18.07 75.28 17.5 74.82 16.97 74.22 16.68 73.48 16.58 72.7 16.66 72.06 16.93 71.56 17.43 71.19 18.04 70.96 18.88 70.87 19.92 70.86 20.25"/><polygon class="cls-1" points="77.11 23.44 76.93 24.53 76.57 25.42 75.92 26.02 75.3 26.58 74.4 26.86 73.31 26.94 72.51 26.87 71.81 26.7 71.21 26.43 70.71 25.92 70.26 25.58 69.98 25.01 69.82 24.55 69.69 23.99 69.6 23.34 69.53 22.6 69.51 21.76 69.51 20.83 69.53 20.22 69.54 19.91 69.56 19.52 69.59 19.17 69.62 18.86 69.66 18.59 69.93 17.62 70.43 16.82 70.92 16.21 71.64 15.78 72.51 15.53 73.54 15.46 74.14 15.51 74.69 15.62 75.18 15.79 75.63 16.03 76.11 16.34 76.36 16.71 76.62 17.11 76.84 17.54 77 18.04 77.11 18.57 77.18 19.14 77.19 19.76 77.15 21.49 70.84 21.37 70.82 22.31 70.87 23.37 71.06 24.24 71.39 24.92 71.86 25.41 72.48 25.71 73.24 25.82 73.97 25.77 74.58 25.58 75.06 25.24 75.4 24.77 75.61 24.16 75.69 23.41 77.11 23.44"/><rect class="cls-1" x="79.48" y="11.17" width="1.68" height="1.54" transform="translate(66.77 92.01) rotate(-88.85)"/><rect class="cls-1" x="74.66" y="20.63" width="10.96" height="1.42" transform="translate(57.2 101.03) rotate(-88.85)"/><polygon class="cls-1" points="89.25 21.2 89.21 19.88 89.03 18.8 88.71 17.96 88.25 17.35 87.66 16.98 86.92 16.85 86.42 16.88 85.99 16.99 85.61 17.19 85.28 17.48 85.02 17.7 84.81 18.29 84.57 18.61 84.56 18.99 84.56 19.43 84.55 19.93 84.53 20.53 84.52 21.1 84.51 21.75 84.5 22.32 84.49 22.84 84.48 23.36 84.47 23.67 84.66 24 84.84 24.48 85.09 24.89 85.4 25.2 85.77 25.43 86.19 25.57 86.68 25.62 87.27 25.59 87.62 25.46 88.01 25.25 88.34 24.96 88.63 24.57 88.85 24.1 88.96 23.76 89.05 23.45 89.13 22.91 89.19 22.4 89.23 21.83 89.25 21.2"/><polygon class="cls-1" points="90.78 15.9 90.75 16.11 90.73 16.36 90.7 16.67 90.69 17.02 90.67 17.42 90.66 17.82 90.48 26.72 90.45 27.47 90.39 28.12 90.29 28.69 90.03 29.14 90.02 29.55 89.81 29.85 89.45 30.24 89.02 30.56 88.52 30.8 87.94 30.97 87.3 31.07 86.59 31.09 85.58 30.98 84.75 30.7 84.11 30.23 83.64 29.6 83.35 28.79 83.25 27.8 84.7 27.83 84.74 28.48 84.9 29.04 85.18 29.44 85.58 29.74 86.1 29.93 86.73 30 87.18 29.99 87.54 29.93 87.88 29.82 88.17 29.67 88.42 29.47 88.63 29.11 88.77 29.12 88.9 28.7 88.99 28.38 89.06 28.01 89.11 27.6 89.13 27.16 89.17 25.27 88.86 25.71 88.5 26.07 88.08 26.27 87.61 26.54 87.09 26.65 86.51 26.68 85.83 26.62 85.23 26.45 84.7 26.2 84.25 25.82 83.88 25.35 83.59 24.78 83.43 24.33 83.3 23.8 83.2 23.33 83.14 22.55 83.11 21.83 83.11 21.03 83.14 20.27 83.2 19.57 83.3 18.94 83.43 18.37 83.58 17.86 83.78 17.42 84.1 16.89 84.61 16.46 84.94 16.13 85.47 15.89 86.07 15.76 86.73 15.73 87.28 15.78 87.79 15.92 88.25 16.14 88.68 16.44 89.06 16.83 89.41 17.31 89.52 15.87 90.78 15.9"/><polygon class="cls-1" points="98.54 21.42 97.82 21.43 97.18 21.44 96.62 21.48 96.14 21.53 95.85 21.6 95.4 21.68 94.91 21.88 94.5 22.15 94.18 22.49 93.95 22.9 93.8 23.38 93.75 23.93 93.75 24.25 93.79 24.54 93.84 24.81 93.92 25.06 94.03 25.29 94.16 25.49 94.34 25.69 94.55 25.86 94.77 25.99 95.02 26.08 95.3 26.14 95.6 26.17 96.48 26.09 97.2 25.8 97.76 25.32 98.17 24.63 98.42 23.64 98.51 22.66 98.54 21.42"/><polygon class="cls-1" points="98.57 27.19 98.6 25.69 98.11 26.16 97.63 26.46 97.1 26.84 96.55 27.05 95.95 27.17 95.33 27.2 94.88 27.17 94.46 27.08 94.08 26.94 93.73 26.75 93.43 26.38 93.15 26.22 92.93 25.91 92.75 25.56 92.62 25.19 92.52 24.79 92.47 24.36 92.46 23.91 92.61 22.87 93.01 22.02 93.72 21.35 94.68 20.73 95.87 20.57 97.38 20.45 98.56 20.42 98.58 19.23 98.57 18.85 98.53 18.5 98.46 18.2 98.36 17.97 98.23 17.71 98.06 17.52 97.87 17.36 97.63 17.23 97.36 17.12 97.05 17.04 96.71 16.99 96.32 16.97 95.72 17.01 95.22 17.16 94.82 17.41 94.53 17.89 94.34 18.22 94.26 18.79 93.07 18.77 93.09 17.86 93.36 17.16 93.87 16.6 94.57 16.21 95.47 15.98 96.57 15.92 97.61 16.03 98.46 16.32 99.12 16.77 99.58 17.41 99.85 18.21 99.92 19.19 99.8 25.21 99.8 25.53 99.8 25.85 99.81 26.18 99.83 26.5 99.85 26.86 99.88 27.21 98.57 27.19"/><polygon class="cls-1" points="103.5 27.29 102.25 27.26 102.28 26.97 102.32 26.55 102.34 26.35 102.37 26.02 102.38 25.67 102.39 25.3 102.67 11.55 103.93 11.57 103.81 17.65 104.18 17.19 104.45 16.82 105.02 16.54 105.5 16.34 106 16.22 106.55 16.19 107.3 16.26 107.83 16.43 108.36 16.7 108.81 17.08 109.19 17.57 109.48 18.19 109.64 18.61 109.76 19.14 109.86 19.73 110.05 20.41 110.04 21.04 110.02 21.97 110 22.78 109.99 23.52 109.76 24.18 109.64 24.78 109.49 25.3 109.32 25.76 109 26.34 108.61 26.68 108.15 27.17 107.61 27.42 107.07 27.57 106.32 27.61 105.76 27.55 105.25 27.41 104.78 27.19 104.25 26.89 103.97 26.59 103.64 26.03 103.5 27.29"/><polygon class="cls-1" points="106.18 26.46 106.65 26.43 107.09 26.31 107.44 26.11 107.75 25.82 108.01 25.45 108.21 25 108.32 24.67 108.41 24.28 108.48 23.84 108.54 23.36 108.58 22.83 108.6 22.25 108.61 21.53 108.59 21.01 108.57 20.33 108.53 19.85 108.48 19.44 108.41 19.11 108.23 18.57 107.97 18.16 107.66 17.77 107.27 17.52 106.82 17.36 106.3 17.3 105.8 17.34 105.36 17.48 104.97 17.73 104.64 18.1 104.42 18.51 104.15 19.05 104.05 19.41 103.97 19.83 103.91 20.32 103.85 20.91 103.82 21.46 103.8 22.12 103.84 23.43 104.03 24.51 104.28 25.35 104.82 25.95 105.43 26.32 106.18 26.46"/><polygon class="cls-1" points="113.27 21.11 118.24 21.2 118.25 20.74 118.2 19.74 118.01 18.92 117.69 18.36 117.22 17.82 116.62 17.54 115.78 17.43 115.1 17.51 114.46 17.78 113.96 18.28 113.59 18.89 113.36 19.74 113.27 20.77 113.27 21.11"/><polygon class="cls-1" points="119.52 24.29 119.34 25.38 118.97 26.27 118.42 26.88 117.7 27.44 116.8 27.72 115.57 27.79 114.92 27.73 114.22 27.56 113.61 27.29 113.11 26.77 112.76 26.44 112.38 25.86 112.22 25.4 112.09 24.85 112 24.2 111.94 23.45 111.91 22.61 111.91 21.68 111.93 21.08 111.94 20.77 111.96 20.37 111.99 20.02 112.02 19.71 112.06 19.45 112.33 18.47 112.75 17.68 113.32 17.06 114.04 16.63 114.92 16.38 115.8 16.31 116.54 16.36 117.09 16.47 117.58 16.65 118.03 16.89 118.42 17.2 118.76 17.57 119.02 17.96 119.24 18.39 119.4 18.89 119.52 19.42 119.58 19.99 119.59 20.61 119.56 22.35 113.24 22.22 113.22 23.17 113.27 24.23 113.46 25.09 113.79 25.77 114.27 26.26 114.88 26.56 115.59 26.68 116.38 26.62 116.98 26.43 117.46 26.1 117.8 25.63 118.01 25.02 118.1 24.27 119.52 24.29"/><ellipse class="cls-1" cx="75.12" cy="65.68" rx="19.84" ry="19.75" transform="translate(7.94 139.47) rotate(-88.85)"/><path class="cls-2" d="M59.83,121.12a14.17,14.17,0,0,0,28.34.57l.73-36.24a24.1,24.1,0,1,0-28.34-.57Z"/><path class="cls-3" d="M72,46.18l-.19,9.63a11.76,11.76,0,0,1,3.17,8.37,11.08,11.08,0,0,1-3.74,8.14l0,7.46,5.32.11,0-5.48a17,17,0,0,0,1-20l.16-8.09"/><polygon class="cls-1" points="14.14 66.84 19.46 66.95 17.15 58.05 14.14 66.84"/><polygon class="cls-1" points="12.39 72.22 10.96 72.19 16.31 56.57 17.89 56.6 22.53 72.42 20.97 72.39 19.78 68.18 13.71 68.06 12.39 72.22"/><polygon class="cls-1" points="30 61.61 31.25 61.64 31.07 71.08 31.06 71.21 31.06 71.38 31.05 71.61 31.05 71.89 31.04 72.22 31.2 72.6 29.88 72.57 29.8 71.28 29.43 71.75 29.02 72.13 28.55 72.42 28.05 72.62 27.49 72.74 26.89 72.77 26.45 72.74 26.05 72.66 25.68 72.54 25.37 72.37 25.05 72.15 24.79 71.89 24.58 71.6 24.41 71.27 24.28 70.92 24.19 70.53 24.14 70.11 24.13 69.66 24.29 61.5 25.59 61.52 25.43 69.18 25.42 69.91 25.63 70.52 25.89 70.99 26.24 71.33 26.71 71.54 27.28 71.62 28.05 71.54 28.69 71.24 29.19 70.74 29.55 70.03 29.78 69.11 29.87 67.99 30 61.61"/><polygon class="cls-1" points="33.42 69.39 34.8 69.42 34.8 69.68 34.84 70.37 34.98 70.93 35.23 71.37 35.58 71.69 36.04 71.88 36.72 71.96 37.26 71.91 37.8 71.75 38.23 71.48 38.53 71.09 38.72 70.62 38.79 69.96 38.76 69.6 38.65 69.26 38.45 68.94 38.18 68.64 37.83 68.35 37.4 68.09 35.6 67.09 35.04 66.72 34.58 66.31 34.22 65.86 34.02 65.36 33.83 64.85 33.79 64.23 33.82 63.78 33.9 63.37 34.06 63.01 34.21 62.67 34.44 62.38 34.72 62.03 35 62.04 35.33 61.76 35.68 61.63 36.08 61.55 36.5 61.5 36.93 61.49 37.89 61.59 38.64 61.85 39.22 62.28 39.74 62.87 39.86 63.62 39.93 64.53 39.92 64.72 38.69 64.69 38.69 64.55 38.65 63.97 38.51 63.48 38.26 63.11 37.91 62.84 37.46 62.67 36.91 62.6 36.35 62.64 35.9 62.76 35.55 62.97 35.3 63.26 35.14 63.65 35.08 64.12 35.11 64.48 35.23 64.88 35.42 65.14 35.7 65.45 36.06 65.75 36.5 66.03 38.18 66.97 38.77 67.36 39.24 67.8 39.63 68.26 39.87 68.78 40.01 69.36 40.06 69.97 39.94 70.91 39.56 71.67 39.16 72.25 38.49 72.67 37.64 72.9 36.7 72.97 35.61 72.86 34.8 72.58 34.18 72.12 33.74 71.49 33.49 70.69 33.42 69.71 33.42 69.39"/><polygon class="cls-1" points="124.9 74.48 117.84 74.34 118.16 58.62 125.21 58.76 125.19 59.99 119.56 59.87 119.44 65.69 124.73 65.79 124.71 66.95 119.42 66.84 119.29 73.05 124.92 73.17 124.9 74.48"/><rect class="cls-1" x="127.21" y="58.89" width="1.68" height="1.54" transform="translate(65.83 186.49) rotate(-88.85)"/><rect class="cls-1" x="122.39" y="68.35" width="10.96" height="1.42" transform="translate(56.25 195.52) rotate(-88.85)"/><polygon class="cls-1" points="132.33 74.63 131.01 74.61 131.2 65.17 131.2 65.03 131.2 64.84 131.19 64.61 131.17 64.33 131.15 63.98 131.13 63.65 132.42 63.67 132.51 64.98 132.88 64.51 133.28 64.02 133.76 63.83 134.27 63.62 134.82 63.5 135.42 63.47 135.86 63.5 136.27 63.58 136.63 63.71 136.97 63.88 137.26 64.1 137.52 64.37 137.74 64.66 137.91 64.98 138.04 65.34 138.14 65.72 138.19 66.14 138.2 66.59 138.03 74.75 136.72 74.72 136.87 67.09 136.84 66.34 136.69 65.73 136.44 65.25 136.09 64.9 135.61 64.69 135.03 64.61 134.26 64.69 133.63 64.99 133.25 65.5 132.77 66.21 132.55 67.13 132.46 68.27 132.33 74.63"/></svg>