<svg id="Layer_1" data-name="Layer 1" xmlns="http://www.w3.org/2000/svg" viewBox="0 0 115.71 116.07"><defs><style>.cls-1,.cls-2{fill:none;stroke:#000;}.cls-1{stroke-width:0.5px;}.cls-2{stroke-width:2px;}</style></defs><title>Tab (2)</title><polygon class="cls-1" points="50.75 45.25 65.94 45.25 65.94 49.15 53.93 49.15 53 55.75 53.7 55.2 54.47 54.84 55.29 54.52 56.19 54.29 57.14 54.15 58.16 54.1 59.52 54.17 60.69 54.39 61.95 54.75 63.02 55.2 64 55.9 64.89 56.69 65.65 57.59 66.36 58.58 66.77 59.66 67.12 60.87 67.33 62.12 67.4 63.48 67.32 64.88 67.07 66.18 66.67 67.39 66.1 68.51 65.37 69.53 64.48 70.47 63.52 71.24 62.42 71.87 61.26 72.37 60.02 72.72 58.68 72.93 57.26 73 55.98 72.94 54.78 72.77 53.67 72.49 52.63 72.21 51.67 71.59 50.8 70.97 49.98 70.19 49.35 69.38 48.73 68.36 48.31 67.31 48.02 66.16 47.85 64.92 52.19 64.92 52.4 65.56 52.56 66.16 52.8 66.7 53.09 67.2 53.45 67.65 53.88 68.05 54.34 68.39 54.84 68.66 55.38 68.87 55.96 69.03 56.57 69.12 57.23 69.15 58.06 69.11 58.83 68.98 59.53 68.77 60.17 68.47 60.69 68.09 61.25 67.62 61.7 67.07 62.06 66.54 62.34 65.81 62.55 65.09 62.67 64.31 62.71 63.48 62.67 62.65 62.55 61.87 62.34 61.16 62.06 60.5 61.7 59.91 61.25 59.37 60.69 58.9 60.17 58.52 59.53 58.22 58.83 58.04 58.06 57.88 57.23 57.83 56.31 58.04 55.45 58.04 54.66 58.4 53.94 58.84 53.28 59.41 52.69 60.11 48.72 59.99 50.75 45.25"/><circle class="cls-1" cx="57.85" cy="58.04" r="39.69" transform="translate(-23.5 67.92) rotate(-52.02)"/><circle class="cls-1" cx="57.85" cy="58.04" r="42.52" transform="translate(-10.93 102.58) rotate(-78.02)"/><circle class="cls-2" cx="57.85" cy="58.04" r="48.19" transform="translate(-14.46 96.59) rotate(-73.15)"/></svg>