<svg id="Layer_1" data-name="Layer 1" xmlns="http://www.w3.org/2000/svg" viewBox="0 0 115.71 171.08"><defs><style>.cls-1,.cls-2,.cls-3{fill:none;stroke:#000;}.cls-1{stroke-width:0.15px;}.cls-2{stroke-width:0.5px;}.cls-3{stroke-width:2px;}</style></defs><title>Tab (2)</title><polygon class="cls-1" points="46.88 19.94 43.71 19.94 43.71 28.21 42.24 28.21 42.24 11.06 45.61 11.06 46.54 11.08 47.36 11.14 48.08 11.24 48.7 11.38 49.22 11.55 49.63 11.77 50.05 12.13 50.4 12.62 50.75 13.13 50.75 13.79 50.98 14.55 51.02 15.45 50.95 16.43 50.75 17.31 50.4 18.03 49.91 18.6 49.29 19.02 48.53 19.28 48.99 19.39 49.39 19.54 49.74 19.72 50.03 19.94 50.28 20.2 50.47 20.49 50.59 20.75 50.75 21.12 50.75 21.43 50.75 21.84 50.75 22.31 50.75 22.83 50.75 23.96 50.75 24.58 50.89 25.25 50.93 25.95 50.99 26.79 51.06 27.43 51.15 28.21 49.5 28.21 49.47 27.87 49.44 27.49 49.42 27.05 49.41 26.57 49.4 26.04 49.4 25.45 49.39 24.86 49.39 24.33 49.38 23.96 49.36 23.41 49.35 23.04 49.33 22.71 49.27 22.25 49.2 21.83 49.12 21.47 49.02 21.12 48.9 20.89 48.77 20.67 48.56 20.45 48.31 20.27 47.91 20.13 47.69 20.02 47.31 19.96 46.88 19.94"/><polygon class="cls-1" points="43.71 18.74 45.52 18.74 46.18 18.72 46.77 18.66 47.29 18.57 47.75 18.44 48.14 18.29 48.46 18.06 48.77 17.76 49.02 17.39 49.22 16.95 49.36 16.45 49.44 15.88 49.47 15.23 49.44 14.67 49.36 14.17 49.23 13.73 49.04 13.36 48.8 13.06 48.51 12.82 48.22 12.62 47.91 12.62 47.46 12.45 46.98 12.38 46.44 12.34 45.82 12.32 43.71 12.32 43.71 18.74"/><polygon class="cls-1" points="54.13 11.06 55.68 11.06 55.68 22.31 55.7 23.15 55.74 23.96 55.82 24.53 55.93 25.07 56.07 25.5 56.24 25.82 56.59 26.26 56.99 26.61 57.45 26.79 57.97 27.08 58.53 27.19 59.25 27.23 59.77 27.19 60.34 27.08 60.85 26.79 61.31 26.61 61.71 26.26 62.09 25.82 62.23 25.5 62.37 25.07 62.49 24.53 62.56 23.96 62.61 23.15 62.63 22.31 62.63 11.06 64.15 11.06 64.15 22.31 64.12 23.29 64.04 24.17 63.91 24.97 63.72 25.67 63.48 26.27 63.19 26.79 62.76 27.31 62.09 27.74 61.6 28.07 60.88 28.3 60.06 28.45 59.25 28.5 58.23 28.45 57.42 28.3 56.7 28.07 56.07 27.74 55.53 27.31 55.09 26.79 54.8 26.27 54.56 25.66 54.37 24.96 54.24 24.17 54.16 23.28 54.13 22.31 54.13 11.06"/><polygon class="cls-1" points="67.38 28.21 67.38 11.06 74.57 11.06 74.57 12.39 68.93 12.39 68.93 18.74 74.2 18.74 74.2 20 68.93 20 68.93 28.21 67.38 28.21"/><polygon class="cls-1" points="11.4 53.72 11.4 36.57 12.93 36.57 12.93 44.35 19.21 36.57 21.01 36.57 14.49 44.59 20.99 53.72 19.18 53.72 12.93 44.98 12.93 53.72 11.4 53.72"/><polygon class="cls-1" points="30.74 53.72 23.05 53.72 23.05 36.57 30.74 36.57 30.74 37.9 24.59 37.9 24.59 44.25 30.38 44.25 30.38 45.51 24.59 45.51 24.59 52.3 30.74 52.3 30.74 53.72"/><polygon class="cls-1" points="33.55 53.72 33.55 36.57 35.12 36.57 35.12 52.3 40.83 52.3 40.83 53.72 33.55 53.72"/><polygon class="cls-1" points="42.89 53.72 42.89 36.57 44.46 36.57 44.46 52.3 50.17 52.3 50.17 53.72 42.89 53.72"/><polygon class="cls-1" points="59.69 53.72 51.99 53.72 51.99 36.57 59.69 36.57 59.69 37.9 53.58 37.9 53.58 44.25 59.25 44.25 59.25 45.51 53.58 45.51 53.58 52.3 59.69 52.3 59.69 53.72"/><polygon class="cls-1" points="66.94 45.45 63.76 45.45 63.76 53.72 62.26 53.72 62.26 36.57 65.66 36.57 66.59 36.59 67.41 36.65 68.13 36.75 68.75 36.89 69.27 37.07 69.68 37.28 70.1 37.64 70.59 38.13 70.59 38.65 70.91 39.3 71.03 40.06 71.07 40.97 71 41.95 70.79 42.82 70.45 43.54 69.97 44.11 69.34 44.53 68.59 44.79 69.04 44.9 69.44 45.05 69.79 45.23 70.08 45.45 70.33 45.71 70.59 46 70.59 46.26 70.74 46.63 70.81 46.94 70.87 47.36 70.9 47.82 70.91 48.34 70.91 49.47 70.92 50.09 70.94 50.77 70.98 51.47 71.04 52.3 71.11 52.94 71.2 53.72 69.55 53.72 69.52 53.39 69.49 53 69.47 52.56 69.46 52.08 69.45 51.55 69.45 50.97 69.44 50.37 69.44 49.84 69.43 49.47 69.42 48.92 69.4 48.55 69.38 48.22 69.32 47.76 69.25 47.35 69.17 46.98 69.07 46.63 68.95 46.4 68.81 46.19 68.61 45.96 68.36 45.78 68.07 45.64 67.76 45.53 67.36 45.48 66.94 45.45"/><polygon class="cls-1" points="63.76 44.25 65.57 44.25 66.23 44.23 66.82 44.17 67.34 44.08 67.76 43.95 68.19 43.8 68.51 43.57 68.82 43.27 69.07 42.9 69.27 42.46 69.41 41.96 69.49 41.39 69.52 40.75 69.49 40.18 69.41 39.68 69.28 39.25 69.09 38.88 68.85 38.57 68.56 38.33 68.28 38.13 67.93 38.13 67.51 37.96 67.03 37.89 66.49 37.85 65.87 37.83 63.76 37.83 63.76 44.25"/><polygon class="cls-1" points="74.43 53.72 74.43 36.57 75.99 36.57 75.99 52.3 81.7 52.3 81.7 53.72 74.43 53.72"/><rect class="cls-1" x="83.57" y="36.57" width="1.55" height="17.15"/><polygon class="cls-1" points="88.39 53.72 88.39 36.57 95.58 36.57 95.58 37.9 89.94 37.9 89.94 44.25 95.21 44.25 95.21 45.51 89.94 45.51 89.94 53.72 88.39 53.72"/><polygon class="cls-1" points="100.41 53.72 100.41 37.9 96.1 37.9 96.1 36.57 106.06 36.57 106.06 37.9 101.77 37.9 101.77 53.72 100.41 53.72"/><path class="cls-2" d="M91.85,72.15h-68a5.67,5.67,0,0,0-5.67,5.67h0v68h0a5.67,5.67,0,0,0,5.67,5.67h68a5.67,5.67,0,0,0,5.67-5.67v-68A5.67,5.67,0,0,0,91.85,72.15Z"/><path class="cls-2" d="M15.32,77.82v68h0a8.5,8.5,0,0,0,8.5,8.5h68a8.51,8.51,0,0,0,8.51-8.5v-68a8.51,8.51,0,0,0-8.51-8.51h-68a8.5,8.5,0,0,0-8.5,8.51"/><path class="cls-3" d="M91.85,160A14.17,14.17,0,0,0,106,145.85v-68A14.17,14.17,0,0,0,91.85,63.64h-68A14.17,14.17,0,0,0,9.65,77.82h0v68h0A14.17,14.17,0,0,0,23.82,160Z"/></svg>