<svg id="Layer_1" data-name="Layer 1" xmlns="http://www.w3.org/2000/svg" viewBox="0 0 153.05 154.59"><defs><style>.cls-1,.cls-2,.cls-3{fill:none;stroke:#000;}.cls-1{stroke-width:0.15px;}.cls-2{stroke-width:2px;}.cls-3{stroke-width:0.5px;}</style></defs><title>Tab (2)</title><path class="cls-1" d="M12.12,8.75a2.83,2.83,0,0,0-2.83,2.83"/><path class="cls-1" d="M9.29,141.55a2.83,2.83,0,0,0,2.83,2.83"/><path class="cls-1" d="M142.09,144.38a2.83,2.83,0,0,0,2.83-2.83"/><path class="cls-1" d="M144.92,11.58a2.83,2.83,0,0,0-2.83-2.83"/><rect class="cls-2" x="9.29" y="8.75" width="135.64" height="135.64" rx="2.83"/><circle class="cls-3" cx="19.07" cy="134.61" r="2.83"/><path class="cls-3" d="M29.64,134.61a2.84,2.84,0,0,1-5.67,0,2.84,2.84,0,1,1,5.67,0Z"/><path class="cls-3" d="M37.42,134.61a2.91,2.91,0,0,1-2.83,2.83,2.86,2.86,0,0,1-2.84-2.83,2.81,2.81,0,0,1,2.84-2.84A2.86,2.86,0,0,1,37.42,134.61Z"/><circle class="cls-3" cx="42.28" cy="134.61" r="2.83"/><path class="cls-3" d="M52.86,134.61a2.84,2.84,0,0,1-5.67,0,2.84,2.84,0,1,1,5.67,0Z"/><circle class="cls-3" cx="57.76" cy="134.61" r="2.83"/><circle class="cls-3" cx="65.5" cy="134.61" r="2.83"/><path class="cls-3" d="M76.07,134.61a2.84,2.84,0,0,1-5.67,0,2.84,2.84,0,1,1,5.67,0Z"/><path class="cls-3" d="M83.81,134.61a2.84,2.84,0,0,1-5.67,0,2.84,2.84,0,1,1,5.67,0Z"/><circle class="cls-3" cx="88.71" cy="134.61" r="2.83"/><path class="cls-3" d="M99.29,134.61a2.84,2.84,0,0,1-5.67,0,2.84,2.84,0,1,1,5.67,0Z"/><circle class="cls-3" cx="104.19" cy="134.61" r="2.83"/><circle class="cls-3" cx="111.93" cy="134.61" r="2.83"/><circle class="cls-3" cx="119.63" cy="134.61" r="2.83"/><path class="cls-3" d="M130.24,134.61a2.84,2.84,0,0,1-5.67,0,2.84,2.84,0,1,1,5.67,0Z"/><circle class="cls-3" cx="135.14" cy="134.61" r="2.83"/><path class="cls-3" d="M21.9,126.87a2.83,2.83,0,0,1-2.83,2.83,2.84,2.84,0,1,1,0-5.67A2.84,2.84,0,0,1,21.9,126.87Z"/><path class="cls-3" d="M29.64,126.87A2.84,2.84,0,1,1,26.8,124,2.84,2.84,0,0,1,29.64,126.87Z"/><path class="cls-3" d="M37.42,126.87a2.86,2.86,0,0,1-2.83,2.83,2.84,2.84,0,1,1,0-5.67A2.86,2.86,0,0,1,37.42,126.87Z"/><path class="cls-3" d="M45.12,126.87A2.84,2.84,0,1,1,42.28,124,2.84,2.84,0,0,1,45.12,126.87Z"/><path class="cls-3" d="M52.86,126.87A2.84,2.84,0,1,1,50,124,2.84,2.84,0,0,1,52.86,126.87Z"/><path class="cls-3" d="M60.59,126.87A2.84,2.84,0,1,1,57.76,124,2.83,2.83,0,0,1,60.59,126.87Z"/><path class="cls-3" d="M68.33,126.87A2.84,2.84,0,1,1,65.5,124,2.83,2.83,0,0,1,68.33,126.87Z"/><path class="cls-3" d="M76.07,126.87A2.84,2.84,0,1,1,73.24,124,2.83,2.83,0,0,1,76.07,126.87Z"/><path class="cls-3" d="M83.81,126.87A2.84,2.84,0,1,1,81,124,2.84,2.84,0,0,1,83.81,126.87Z"/><path class="cls-3" d="M91.55,126.87A2.84,2.84,0,1,1,88.71,124,2.84,2.84,0,0,1,91.55,126.87Z"/><path class="cls-3" d="M99.29,126.87A2.84,2.84,0,1,1,96.45,124,2.84,2.84,0,0,1,99.29,126.87Z"/><path class="cls-3" d="M107,126.87a2.84,2.84,0,1,1-2.84-2.84A2.84,2.84,0,0,1,107,126.87Z"/><path class="cls-3" d="M114.76,126.87a2.84,2.84,0,1,1-2.83-2.84A2.83,2.83,0,0,1,114.76,126.87Z"/><path class="cls-3" d="M122.46,126.87a2.81,2.81,0,0,1-2.83,2.83,2.84,2.84,0,1,1,0-5.67A2.81,2.81,0,0,1,122.46,126.87Z"/><path class="cls-3" d="M130.24,126.87a2.84,2.84,0,1,1-2.83-2.84A2.83,2.83,0,0,1,130.24,126.87Z"/><path class="cls-3" d="M138,126.87a2.89,2.89,0,0,1-2.84,2.83,2.84,2.84,0,0,1,0-5.67A2.89,2.89,0,0,1,138,126.87Z"/><circle class="cls-3" cx="19.07" cy="119.09" r="2.83"/><path class="cls-3" d="M29.64,119.09a2.84,2.84,0,0,1-5.67,0,2.84,2.84,0,1,1,5.67,0Z"/><path class="cls-3" d="M37.42,119.09a2.83,2.83,0,0,1-2.83,2.83,2.79,2.79,0,0,1-2.84-2.83,2.84,2.84,0,0,1,2.84-2.84A2.89,2.89,0,0,1,37.42,119.09Z"/><circle class="cls-3" cx="42.28" cy="119.09" r="2.83"/><path class="cls-3" d="M52.86,119.09a2.84,2.84,0,0,1-5.67,0,2.84,2.84,0,1,1,5.67,0Z"/><circle class="cls-3" cx="57.76" cy="119.09" r="2.83"/><circle class="cls-3" cx="65.5" cy="119.09" r="2.83"/><path class="cls-3" d="M76.07,119.09a2.84,2.84,0,0,1-5.67,0,2.84,2.84,0,1,1,5.67,0Z"/><path class="cls-3" d="M83.81,119.09a2.84,2.84,0,0,1-5.67,0,2.84,2.84,0,1,1,5.67,0Z"/><circle class="cls-3" cx="88.71" cy="119.09" r="2.83"/><path class="cls-3" d="M99.29,119.09a2.84,2.84,0,0,1-5.67,0,2.84,2.84,0,1,1,5.67,0Z"/><circle class="cls-3" cx="104.19" cy="119.09" r="2.83"/><circle class="cls-3" cx="111.93" cy="119.09" r="2.83"/><circle class="cls-3" cx="119.63" cy="119.09" r="2.83"/><path class="cls-3" d="M130.24,119.09a2.84,2.84,0,0,1-5.67,0,2.84,2.84,0,1,1,5.67,0Z"/><circle class="cls-3" cx="135.14" cy="119.09" r="2.83"/><path class="cls-3" d="M21.9,111.39a2.83,2.83,0,0,1-2.83,2.83,2.84,2.84,0,1,1,0-5.67A2.84,2.84,0,0,1,21.9,111.39Z"/><path class="cls-3" d="M29.64,111.39a2.84,2.84,0,1,1-2.84-2.84A2.84,2.84,0,0,1,29.64,111.39Z"/><path class="cls-3" d="M37.42,111.39a2.86,2.86,0,0,1-2.83,2.83,2.84,2.84,0,1,1,0-5.67A2.86,2.86,0,0,1,37.42,111.39Z"/><path class="cls-3" d="M45.12,111.39a2.84,2.84,0,1,1-2.84-2.84A2.84,2.84,0,0,1,45.12,111.39Z"/><path class="cls-3" d="M52.86,111.39A2.84,2.84,0,1,1,50,108.55,2.84,2.84,0,0,1,52.86,111.39Z"/><path class="cls-3" d="M60.59,111.39a2.84,2.84,0,1,1-2.83-2.84A2.83,2.83,0,0,1,60.59,111.39Z"/><path class="cls-3" d="M68.33,111.39a2.84,2.84,0,1,1-2.83-2.84A2.83,2.83,0,0,1,68.33,111.39Z"/><path class="cls-3" d="M76.07,111.39a2.84,2.84,0,1,1-2.83-2.84A2.83,2.83,0,0,1,76.07,111.39Z"/><path class="cls-3" d="M83.81,111.39A2.84,2.84,0,1,1,81,108.55,2.84,2.84,0,0,1,83.81,111.39Z"/><path class="cls-3" d="M91.55,111.39a2.84,2.84,0,1,1-2.84-2.84A2.84,2.84,0,0,1,91.55,111.39Z"/><path class="cls-3" d="M99.29,111.39a2.84,2.84,0,1,1-2.84-2.84A2.84,2.84,0,0,1,99.29,111.39Z"/><path class="cls-3" d="M107,111.39a2.84,2.84,0,1,1-2.84-2.84A2.84,2.84,0,0,1,107,111.39Z"/><path class="cls-3" d="M114.76,111.39a2.84,2.84,0,1,1-2.83-2.84A2.83,2.83,0,0,1,114.76,111.39Z"/><path class="cls-3" d="M122.46,111.39a2.81,2.81,0,0,1-2.83,2.83,2.84,2.84,0,1,1,0-5.67A2.81,2.81,0,0,1,122.46,111.39Z"/><path class="cls-3" d="M130.24,111.39a2.84,2.84,0,1,1-2.83-2.84A2.83,2.83,0,0,1,130.24,111.39Z"/><path class="cls-3" d="M138,111.39a2.89,2.89,0,0,1-2.84,2.83,2.84,2.84,0,0,1,0-5.67A2.89,2.89,0,0,1,138,111.39Z"/><circle class="cls-3" cx="19.07" cy="103.65" r="2.83"/><path class="cls-3" d="M29.64,103.65a2.84,2.84,0,1,1-2.84-2.83A2.84,2.84,0,0,1,29.64,103.65Z"/><path class="cls-3" d="M37.42,103.65a2.86,2.86,0,0,1-2.83,2.84,2.84,2.84,0,1,1,0-5.67A2.85,2.85,0,0,1,37.42,103.65Z"/><circle class="cls-3" cx="42.28" cy="103.65" r="2.83"/><path class="cls-3" d="M52.86,103.65A2.84,2.84,0,1,1,50,100.82,2.84,2.84,0,0,1,52.86,103.65Z"/><circle class="cls-3" cx="57.76" cy="103.65" r="2.83"/><circle class="cls-3" cx="65.5" cy="103.65" r="2.83"/><path class="cls-3" d="M76.07,103.65a2.84,2.84,0,1,1-2.83-2.83A2.84,2.84,0,0,1,76.07,103.65Z"/><path class="cls-3" d="M83.81,103.65A2.84,2.84,0,1,1,81,100.82,2.84,2.84,0,0,1,83.81,103.65Z"/><circle class="cls-3" cx="88.71" cy="103.65" r="2.83"/><path class="cls-3" d="M99.29,103.65a2.84,2.84,0,1,1-2.84-2.83A2.84,2.84,0,0,1,99.29,103.65Z"/><circle class="cls-3" cx="104.19" cy="103.65" r="2.83"/><circle class="cls-3" cx="111.93" cy="103.65" r="2.83"/><circle class="cls-3" cx="119.63" cy="103.65" r="2.83"/><path class="cls-3" d="M130.24,103.65a2.84,2.84,0,1,1-2.83-2.83A2.84,2.84,0,0,1,130.24,103.65Z"/><circle class="cls-3" cx="135.14" cy="103.65" r="2.83"/><circle class="cls-3" cx="19.07" cy="95.91" r="2.83"/><path class="cls-3" d="M29.64,95.91a2.84,2.84,0,1,1-2.84-2.83A2.84,2.84,0,0,1,29.64,95.91Z"/><path class="cls-3" d="M37.42,95.91a2.86,2.86,0,0,1-2.83,2.84,2.84,2.84,0,1,1,0-5.67A2.86,2.86,0,0,1,37.42,95.91Z"/><circle class="cls-3" cx="42.28" cy="95.91" r="2.83"/><path class="cls-3" d="M52.86,95.91A2.84,2.84,0,1,1,50,93.08,2.84,2.84,0,0,1,52.86,95.91Z"/><circle class="cls-3" cx="57.76" cy="95.91" r="2.83"/><circle class="cls-3" cx="65.5" cy="95.91" r="2.83"/><path class="cls-3" d="M76.07,95.91a2.84,2.84,0,1,1-2.83-2.83A2.84,2.84,0,0,1,76.07,95.91Z"/><path class="cls-3" d="M83.81,95.91A2.84,2.84,0,1,1,81,93.08,2.84,2.84,0,0,1,83.81,95.91Z"/><circle class="cls-3" cx="88.71" cy="95.91" r="2.83"/><path class="cls-3" d="M99.29,95.91a2.84,2.84,0,1,1-2.84-2.83A2.84,2.84,0,0,1,99.29,95.91Z"/><circle class="cls-3" cx="104.19" cy="95.91" r="2.83"/><circle class="cls-3" cx="111.93" cy="95.91" r="2.83"/><circle class="cls-3" cx="119.63" cy="95.91" r="2.83"/><path class="cls-3" d="M130.24,95.91a2.84,2.84,0,1,1-2.83-2.83A2.84,2.84,0,0,1,130.24,95.91Z"/><circle class="cls-3" cx="135.14" cy="95.91" r="2.83"/><path class="cls-3" d="M21.9,88.17A2.84,2.84,0,0,1,19.07,91a2.84,2.84,0,1,1,0-5.67A2.83,2.83,0,0,1,21.9,88.17Z"/><path class="cls-3" d="M29.64,88.17a2.84,2.84,0,1,1-2.84-2.83A2.84,2.84,0,0,1,29.64,88.17Z"/><path class="cls-3" d="M37.42,88.17A2.86,2.86,0,0,1,34.59,91a2.84,2.84,0,1,1,0-5.67A2.86,2.86,0,0,1,37.42,88.17Z"/><path class="cls-3" d="M45.12,88.17a2.84,2.84,0,1,1-2.84-2.83A2.84,2.84,0,0,1,45.12,88.17Z"/><path class="cls-3" d="M52.86,88.17A2.84,2.84,0,1,1,50,85.34,2.84,2.84,0,0,1,52.86,88.17Z"/><path class="cls-3" d="M60.59,88.17a2.84,2.84,0,1,1-2.83-2.83A2.84,2.84,0,0,1,60.59,88.17Z"/><path class="cls-3" d="M68.33,88.17a2.84,2.84,0,1,1-2.83-2.83A2.84,2.84,0,0,1,68.33,88.17Z"/><path class="cls-3" d="M76.07,88.17a2.84,2.84,0,1,1-2.83-2.83A2.84,2.84,0,0,1,76.07,88.17Z"/><path class="cls-3" d="M83.81,88.17A2.84,2.84,0,1,1,81,85.34,2.84,2.84,0,0,1,83.81,88.17Z"/><path class="cls-3" d="M91.55,88.17a2.84,2.84,0,1,1-2.84-2.83A2.84,2.84,0,0,1,91.55,88.17Z"/><path class="cls-3" d="M99.29,88.17a2.84,2.84,0,1,1-2.84-2.83A2.84,2.84,0,0,1,99.29,88.17Z"/><path class="cls-3" d="M107,88.17a2.84,2.84,0,1,1-2.84-2.83A2.84,2.84,0,0,1,107,88.17Z"/><path class="cls-3" d="M114.76,88.17a2.84,2.84,0,1,1-2.83-2.83A2.84,2.84,0,0,1,114.76,88.17Z"/><path class="cls-3" d="M122.46,88.17A2.81,2.81,0,0,1,119.63,91a2.84,2.84,0,1,1,0-5.67A2.81,2.81,0,0,1,122.46,88.17Z"/><path class="cls-3" d="M130.24,88.17a2.84,2.84,0,1,1-2.83-2.83A2.84,2.84,0,0,1,130.24,88.17Z"/><path class="cls-3" d="M138,88.17A2.89,2.89,0,0,1,135.14,91a2.84,2.84,0,0,1,0-5.67A2.89,2.89,0,0,1,138,88.17Z"/><path class="cls-3" d="M21.9,80.44a2.83,2.83,0,0,1-2.83,2.83,2.84,2.84,0,1,1,0-5.67A2.84,2.84,0,0,1,21.9,80.44Z"/><path class="cls-3" d="M29.64,80.44A2.84,2.84,0,1,1,26.8,77.6,2.84,2.84,0,0,1,29.64,80.44Z"/><path class="cls-3" d="M37.42,80.44a2.86,2.86,0,0,1-2.83,2.83,2.84,2.84,0,1,1,0-5.67A2.86,2.86,0,0,1,37.42,80.44Z"/><path class="cls-3" d="M45.12,80.44a2.84,2.84,0,1,1-2.84-2.84A2.84,2.84,0,0,1,45.12,80.44Z"/><path class="cls-3" d="M52.86,80.44A2.84,2.84,0,1,1,50,77.6,2.84,2.84,0,0,1,52.86,80.44Z"/><path class="cls-3" d="M60.59,80.44a2.84,2.84,0,1,1-2.83-2.84A2.83,2.83,0,0,1,60.59,80.44Z"/><path class="cls-3" d="M68.33,80.44A2.84,2.84,0,1,1,65.5,77.6,2.83,2.83,0,0,1,68.33,80.44Z"/><path class="cls-3" d="M76.07,80.44a2.84,2.84,0,1,1-2.83-2.84A2.83,2.83,0,0,1,76.07,80.44Z"/><path class="cls-3" d="M83.81,80.44A2.84,2.84,0,1,1,81,77.6,2.84,2.84,0,0,1,83.81,80.44Z"/><path class="cls-3" d="M91.55,80.44a2.84,2.84,0,1,1-2.84-2.84A2.84,2.84,0,0,1,91.55,80.44Z"/><path class="cls-3" d="M99.29,80.44a2.84,2.84,0,1,1-2.84-2.84A2.84,2.84,0,0,1,99.29,80.44Z"/><path class="cls-3" d="M107,80.44a2.84,2.84,0,1,1-2.84-2.84A2.84,2.84,0,0,1,107,80.44Z"/><path class="cls-3" d="M114.76,80.44a2.84,2.84,0,1,1-2.83-2.84A2.83,2.83,0,0,1,114.76,80.44Z"/><path class="cls-3" d="M122.46,80.44a2.81,2.81,0,0,1-2.83,2.83,2.84,2.84,0,1,1,0-5.67A2.81,2.81,0,0,1,122.46,80.44Z"/><path class="cls-3" d="M130.24,80.44a2.84,2.84,0,1,1-2.83-2.84A2.83,2.83,0,0,1,130.24,80.44Z"/><path class="cls-3" d="M138,80.44a2.89,2.89,0,0,1-2.84,2.83,2.84,2.84,0,0,1,0-5.67A2.89,2.89,0,0,1,138,80.44Z"/><path class="cls-3" d="M21.9,72.7a2.83,2.83,0,0,1-2.83,2.83,2.84,2.84,0,1,1,0-5.67A2.84,2.84,0,0,1,21.9,72.7Z"/><path class="cls-3" d="M29.64,72.7a2.84,2.84,0,1,1-2.84-2.84A2.84,2.84,0,0,1,29.64,72.7Z"/><path class="cls-3" d="M37.42,72.7a2.86,2.86,0,0,1-2.83,2.83,2.84,2.84,0,1,1,0-5.67A2.86,2.86,0,0,1,37.42,72.7Z"/><path class="cls-3" d="M45.12,72.7a2.84,2.84,0,1,1-2.84-2.84A2.84,2.84,0,0,1,45.12,72.7Z"/><path class="cls-3" d="M52.86,72.7A2.84,2.84,0,1,1,50,69.86,2.84,2.84,0,0,1,52.86,72.7Z"/><path class="cls-3" d="M60.59,72.7a2.84,2.84,0,1,1-2.83-2.84A2.83,2.83,0,0,1,60.59,72.7Z"/><path class="cls-3" d="M68.33,72.7a2.84,2.84,0,1,1-2.83-2.84A2.83,2.83,0,0,1,68.33,72.7Z"/><path class="cls-3" d="M76.07,72.7a2.84,2.84,0,1,1-2.83-2.84A2.83,2.83,0,0,1,76.07,72.7Z"/><path class="cls-3" d="M83.81,72.7A2.84,2.84,0,1,1,81,69.86,2.84,2.84,0,0,1,83.81,72.7Z"/><path class="cls-3" d="M91.55,72.7a2.84,2.84,0,1,1-2.84-2.84A2.84,2.84,0,0,1,91.55,72.7Z"/><path class="cls-3" d="M99.29,72.7a2.84,2.84,0,1,1-2.84-2.84A2.84,2.84,0,0,1,99.29,72.7Z"/><path class="cls-3" d="M107,72.7a2.84,2.84,0,1,1-2.84-2.84A2.84,2.84,0,0,1,107,72.7Z"/><path class="cls-3" d="M114.76,72.7a2.84,2.84,0,1,1-2.83-2.84A2.83,2.83,0,0,1,114.76,72.7Z"/><path class="cls-3" d="M122.46,72.7a2.81,2.81,0,0,1-2.83,2.83,2.84,2.84,0,1,1,0-5.67A2.81,2.81,0,0,1,122.46,72.7Z"/><path class="cls-3" d="M130.24,72.7a2.84,2.84,0,1,1-2.83-2.84A2.83,2.83,0,0,1,130.24,72.7Z"/><path class="cls-3" d="M138,72.7a2.89,2.89,0,0,1-2.84,2.83,2.84,2.84,0,0,1,0-5.67A2.89,2.89,0,0,1,138,72.7Z"/><circle class="cls-3" cx="19.07" cy="64.96" r="2.83"/><path class="cls-3" d="M29.64,65a2.84,2.84,0,1,1-2.84-2.84A2.84,2.84,0,0,1,29.64,65Z"/><path class="cls-3" d="M37.42,65a2.86,2.86,0,0,1-2.83,2.83,2.84,2.84,0,1,1,0-5.67A2.86,2.86,0,0,1,37.42,65Z"/><circle class="cls-3" cx="42.28" cy="64.96" r="2.83"/><path class="cls-3" d="M52.86,65A2.84,2.84,0,1,1,50,62.12,2.84,2.84,0,0,1,52.86,65Z"/><circle class="cls-3" cx="57.76" cy="64.96" r="2.83"/><circle class="cls-3" cx="65.5" cy="64.96" r="2.83"/><path class="cls-3" d="M76.07,65a2.84,2.84,0,1,1-2.83-2.84A2.83,2.83,0,0,1,76.07,65Z"/><path class="cls-3" d="M83.81,65A2.84,2.84,0,1,1,81,62.12,2.84,2.84,0,0,1,83.81,65Z"/><circle class="cls-3" cx="88.71" cy="64.96" r="2.83"/><path class="cls-3" d="M99.29,65a2.84,2.84,0,1,1-2.84-2.84A2.84,2.84,0,0,1,99.29,65Z"/><circle class="cls-3" cx="104.19" cy="64.96" r="2.83"/><circle class="cls-3" cx="111.93" cy="64.96" r="2.83"/><circle class="cls-3" cx="119.63" cy="64.96" r="2.83"/><path class="cls-3" d="M130.24,65a2.84,2.84,0,1,1-2.83-2.84A2.83,2.83,0,0,1,130.24,65Z"/><circle class="cls-3" cx="135.14" cy="64.96" r="2.83"/><path class="cls-3" d="M21.9,57.22a2.83,2.83,0,0,1-2.83,2.83,2.84,2.84,0,1,1,0-5.67A2.84,2.84,0,0,1,21.9,57.22Z"/><path class="cls-3" d="M29.64,57.22a2.84,2.84,0,1,1-2.84-2.84A2.84,2.84,0,0,1,29.64,57.22Z"/><path class="cls-3" d="M37.42,57.22a2.86,2.86,0,0,1-2.83,2.83,2.84,2.84,0,1,1,0-5.67A2.86,2.86,0,0,1,37.42,57.22Z"/><path class="cls-3" d="M45.12,57.22a2.84,2.84,0,1,1-2.84-2.84A2.84,2.84,0,0,1,45.12,57.22Z"/><path class="cls-3" d="M52.86,57.22A2.84,2.84,0,1,1,50,54.38,2.84,2.84,0,0,1,52.86,57.22Z"/><path class="cls-3" d="M60.59,57.22a2.84,2.84,0,1,1-2.83-2.84A2.83,2.83,0,0,1,60.59,57.22Z"/><path class="cls-3" d="M68.33,57.22a2.84,2.84,0,1,1-2.83-2.84A2.83,2.83,0,0,1,68.33,57.22Z"/><path class="cls-3" d="M76.07,57.22a2.84,2.84,0,1,1-2.83-2.84A2.83,2.83,0,0,1,76.07,57.22Z"/><path class="cls-3" d="M83.81,57.22A2.84,2.84,0,1,1,81,54.38,2.84,2.84,0,0,1,83.81,57.22Z"/><path class="cls-3" d="M91.55,57.22a2.84,2.84,0,1,1-2.84-2.84A2.84,2.84,0,0,1,91.55,57.22Z"/><path class="cls-3" d="M99.29,57.22a2.84,2.84,0,1,1-2.84-2.84A2.84,2.84,0,0,1,99.29,57.22Z"/><path class="cls-3" d="M107,57.22a2.84,2.84,0,1,1-2.84-2.84A2.84,2.84,0,0,1,107,57.22Z"/><path class="cls-3" d="M114.76,57.22a2.84,2.84,0,1,1-2.83-2.84A2.83,2.83,0,0,1,114.76,57.22Z"/><path class="cls-3" d="M122.46,57.22a2.81,2.81,0,0,1-2.83,2.83,2.84,2.84,0,1,1,0-5.67A2.81,2.81,0,0,1,122.46,57.22Z"/><path class="cls-3" d="M130.24,57.22a2.84,2.84,0,1,1-2.83-2.84A2.83,2.83,0,0,1,130.24,57.22Z"/><path class="cls-3" d="M138,57.22a2.89,2.89,0,0,1-2.84,2.83,2.84,2.84,0,0,1,0-5.67A2.89,2.89,0,0,1,138,57.22Z"/><path class="cls-3" d="M21.9,49.48a2.84,2.84,0,0,1-2.83,2.84,2.84,2.84,0,1,1,0-5.67A2.83,2.83,0,0,1,21.9,49.48Z"/><path class="cls-3" d="M29.64,49.48a2.84,2.84,0,1,1-2.84-2.83A2.84,2.84,0,0,1,29.64,49.48Z"/><path class="cls-3" d="M37.42,49.48a2.86,2.86,0,0,1-2.83,2.84,2.84,2.84,0,1,1,0-5.67A2.86,2.86,0,0,1,37.42,49.48Z"/><path class="cls-3" d="M45.12,49.48a2.84,2.84,0,1,1-2.84-2.83A2.84,2.84,0,0,1,45.12,49.48Z"/><path class="cls-3" d="M52.86,49.48A2.84,2.84,0,1,1,50,46.65,2.84,2.84,0,0,1,52.86,49.48Z"/><path class="cls-3" d="M60.59,49.48a2.84,2.84,0,1,1-2.83-2.83A2.84,2.84,0,0,1,60.59,49.48Z"/><path class="cls-3" d="M68.33,49.48a2.84,2.84,0,1,1-2.83-2.83A2.84,2.84,0,0,1,68.33,49.48Z"/><path class="cls-3" d="M76.07,49.48a2.84,2.84,0,1,1-2.83-2.83A2.84,2.84,0,0,1,76.07,49.48Z"/><path class="cls-3" d="M83.81,49.48A2.84,2.84,0,1,1,81,46.65,2.84,2.84,0,0,1,83.81,49.48Z"/><path class="cls-3" d="M91.55,49.48a2.84,2.84,0,1,1-2.84-2.83A2.84,2.84,0,0,1,91.55,49.48Z"/><path class="cls-3" d="M99.29,49.48a2.84,2.84,0,1,1-2.84-2.83A2.84,2.84,0,0,1,99.29,49.48Z"/><path class="cls-3" d="M107,49.48a2.84,2.84,0,1,1-2.84-2.83A2.84,2.84,0,0,1,107,49.48Z"/><path class="cls-3" d="M114.76,49.48a2.84,2.84,0,1,1-2.83-2.83A2.84,2.84,0,0,1,114.76,49.48Z"/><path class="cls-3" d="M122.46,49.48a2.81,2.81,0,0,1-2.83,2.84,2.84,2.84,0,1,1,0-5.67A2.81,2.81,0,0,1,122.46,49.48Z"/><path class="cls-3" d="M130.24,49.48a2.84,2.84,0,1,1-2.83-2.83A2.84,2.84,0,0,1,130.24,49.48Z"/><path class="cls-3" d="M138,49.48a2.89,2.89,0,0,1-2.84,2.84,2.84,2.84,0,0,1,0-5.67A2.89,2.89,0,0,1,138,49.48Z"/><circle class="cls-3" cx="19.07" cy="41.74" r="2.83"/><path class="cls-3" d="M29.64,41.74a2.84,2.84,0,1,1-2.84-2.83A2.84,2.84,0,0,1,29.64,41.74Z"/><path class="cls-3" d="M37.42,41.74a2.86,2.86,0,0,1-2.83,2.84,2.84,2.84,0,1,1,0-5.67A2.86,2.86,0,0,1,37.42,41.74Z"/><circle class="cls-3" cx="42.28" cy="41.74" r="2.83"/><path class="cls-3" d="M52.86,41.74A2.84,2.84,0,1,1,50,38.91,2.84,2.84,0,0,1,52.86,41.74Z"/><circle class="cls-3" cx="57.76" cy="41.74" r="2.83"/><circle class="cls-3" cx="65.5" cy="41.74" r="2.83"/><path class="cls-3" d="M76.07,41.74a2.84,2.84,0,1,1-2.83-2.83A2.84,2.84,0,0,1,76.07,41.74Z"/><path class="cls-3" d="M83.81,41.74A2.84,2.84,0,1,1,81,38.91,2.84,2.84,0,0,1,83.81,41.74Z"/><circle class="cls-3" cx="88.71" cy="41.74" r="2.83"/><path class="cls-3" d="M99.29,41.74a2.84,2.84,0,1,1-2.84-2.83A2.84,2.84,0,0,1,99.29,41.74Z"/><circle class="cls-3" cx="104.19" cy="41.74" r="2.83"/><circle class="cls-3" cx="111.93" cy="41.74" r="2.83"/><circle class="cls-3" cx="119.63" cy="41.74" r="2.83"/><path class="cls-3" d="M130.24,41.74a2.84,2.84,0,1,1-2.83-2.83A2.84,2.84,0,0,1,130.24,41.74Z"/><circle class="cls-3" cx="135.14" cy="41.74" r="2.83"/><path class="cls-3" d="M21.9,34.05a2.86,2.86,0,0,1-2.83,2.83,2.92,2.92,0,0,1-2.84-2.83,2.86,2.86,0,0,1,2.84-2.84A2.81,2.81,0,0,1,21.9,34.05Z"/><path class="cls-3" d="M29.64,34.05a2.84,2.84,0,0,1-5.67,0,2.84,2.84,0,1,1,5.67,0Z"/><path class="cls-3" d="M37.42,34.05a2.89,2.89,0,0,1-2.83,2.83,2.84,2.84,0,0,1-2.84-2.83,2.79,2.79,0,0,1,2.84-2.84A2.84,2.84,0,0,1,37.42,34.05Z"/><path class="cls-3" d="M45.12,34.05a2.84,2.84,0,0,1-5.67,0,2.84,2.84,0,1,1,5.67,0Z"/><path class="cls-3" d="M52.86,34.05a2.84,2.84,0,0,1-5.67,0,2.84,2.84,0,1,1,5.67,0Z"/><path class="cls-3" d="M60.59,34.05a2.84,2.84,0,0,1-5.67,0,2.84,2.84,0,1,1,5.67,0Z"/><path class="cls-3" d="M68.33,34.05a2.84,2.84,0,0,1-5.67,0,2.84,2.84,0,1,1,5.67,0Z"/><path class="cls-3" d="M76.07,34.05a2.84,2.84,0,0,1-5.67,0,2.84,2.84,0,1,1,5.67,0Z"/><path class="cls-3" d="M83.81,34.05a2.84,2.84,0,0,1-5.67,0,2.84,2.84,0,1,1,5.67,0Z"/><path class="cls-3" d="M91.55,34.05a2.84,2.84,0,0,1-5.67,0,2.84,2.84,0,1,1,5.67,0Z"/><path class="cls-3" d="M99.29,34.05a2.84,2.84,0,0,1-5.67,0,2.84,2.84,0,1,1,5.67,0Z"/><path class="cls-3" d="M107,34.05a2.84,2.84,0,0,1-5.67,0,2.84,2.84,0,1,1,5.67,0Z"/><path class="cls-3" d="M114.76,34.05a2.84,2.84,0,0,1-5.67,0,2.84,2.84,0,1,1,5.67,0Z"/><path class="cls-3" d="M122.46,34.05a2.83,2.83,0,0,1-2.83,2.83,2.89,2.89,0,0,1-2.84-2.83,2.84,2.84,0,0,1,2.84-2.84A2.79,2.79,0,0,1,122.46,34.05Z"/><path class="cls-3" d="M130.24,34.05a2.84,2.84,0,0,1-5.67,0,2.84,2.84,0,1,1,5.67,0Z"/><path class="cls-3" d="M138,34.05a2.92,2.92,0,0,1-2.84,2.83,2.86,2.86,0,0,1-2.83-2.83,2.81,2.81,0,0,1,2.83-2.84A2.86,2.86,0,0,1,138,34.05Z"/><path class="cls-3" d="M21.9,26.27a2.83,2.83,0,0,1-2.83,2.83,2.84,2.84,0,1,1,0-5.67A2.84,2.84,0,0,1,21.9,26.27Z"/><path class="cls-3" d="M29.64,26.27a2.84,2.84,0,1,1-2.84-2.84A2.84,2.84,0,0,1,29.64,26.27Z"/><path class="cls-3" d="M37.42,26.27a2.86,2.86,0,0,1-2.83,2.83,2.84,2.84,0,1,1,0-5.67A2.86,2.86,0,0,1,37.42,26.27Z"/><path class="cls-3" d="M45.12,26.27a2.84,2.84,0,1,1-2.84-2.84A2.84,2.84,0,0,1,45.12,26.27Z"/><path class="cls-3" d="M52.86,26.27A2.84,2.84,0,1,1,50,23.43,2.84,2.84,0,0,1,52.86,26.27Z"/><path class="cls-3" d="M60.59,26.27a2.84,2.84,0,1,1-2.83-2.84A2.83,2.83,0,0,1,60.59,26.27Z"/><path class="cls-3" d="M68.33,26.27a2.84,2.84,0,1,1-2.83-2.84A2.83,2.83,0,0,1,68.33,26.27Z"/><path class="cls-3" d="M76.07,26.27a2.84,2.84,0,1,1-2.83-2.84A2.83,2.83,0,0,1,76.07,26.27Z"/><path class="cls-3" d="M83.81,26.27A2.84,2.84,0,1,1,81,23.43,2.84,2.84,0,0,1,83.81,26.27Z"/><path class="cls-3" d="M91.55,26.27a2.84,2.84,0,1,1-2.84-2.84A2.84,2.84,0,0,1,91.55,26.27Z"/><path class="cls-3" d="M99.29,26.27a2.84,2.84,0,1,1-2.84-2.84A2.84,2.84,0,0,1,99.29,26.27Z"/><path class="cls-3" d="M107,26.27a2.84,2.84,0,1,1-2.84-2.84A2.84,2.84,0,0,1,107,26.27Z"/><path class="cls-3" d="M114.76,26.27a2.84,2.84,0,1,1-2.83-2.84A2.83,2.83,0,0,1,114.76,26.27Z"/><path class="cls-3" d="M122.46,26.27a2.81,2.81,0,0,1-2.83,2.83,2.84,2.84,0,1,1,0-5.67A2.81,2.81,0,0,1,122.46,26.27Z"/><path class="cls-3" d="M130.24,26.27a2.84,2.84,0,1,1-2.83-2.84A2.83,2.83,0,0,1,130.24,26.27Z"/><path class="cls-3" d="M138,26.27a2.89,2.89,0,0,1-2.84,2.83,2.84,2.84,0,0,1,0-5.67A2.89,2.89,0,0,1,138,26.27Z"/><path class="cls-3" d="M21.9,18.53a2.83,2.83,0,0,1-2.83,2.83,2.89,2.89,0,0,1-2.84-2.83,3,3,0,0,1,2.84-2.84A2.89,2.89,0,0,1,21.9,18.53Z"/><path class="cls-3" d="M29.64,18.53a2.84,2.84,0,0,1-5.67,0,2.84,2.84,0,1,1,5.67,0Z"/><path class="cls-3" d="M37.42,18.53a2.86,2.86,0,0,1-2.83,2.83,2.81,2.81,0,0,1-2.84-2.83,2.86,2.86,0,0,1,2.84-2.84A2.92,2.92,0,0,1,37.42,18.53Z"/><path class="cls-3" d="M45.12,18.53a2.84,2.84,0,0,1-5.67,0,2.84,2.84,0,1,1,5.67,0Z"/><path class="cls-3" d="M52.86,18.53a2.84,2.84,0,0,1-5.67,0,2.84,2.84,0,1,1,5.67,0Z"/><path class="cls-3" d="M60.59,18.53a2.84,2.84,0,0,1-5.67,0,2.84,2.84,0,1,1,5.67,0Z"/><path class="cls-3" d="M68.33,18.53a2.84,2.84,0,0,1-5.67,0,2.84,2.84,0,1,1,5.67,0Z"/><path class="cls-3" d="M76.07,18.53a2.84,2.84,0,0,1-5.67,0,2.84,2.84,0,1,1,5.67,0Z"/><path class="cls-3" d="M83.81,18.53a2.84,2.84,0,0,1-5.67,0,2.84,2.84,0,1,1,5.67,0Z"/><path class="cls-3" d="M91.55,18.53a2.84,2.84,0,0,1-5.67,0,2.84,2.84,0,1,1,5.67,0Z"/><path class="cls-3" d="M99.29,18.53a2.84,2.84,0,0,1-5.67,0,2.84,2.84,0,1,1,5.67,0Z"/><path class="cls-3" d="M107,18.53a2.84,2.84,0,0,1-5.67,0,2.84,2.84,0,1,1,5.67,0Z"/><path class="cls-3" d="M114.76,18.53a2.84,2.84,0,0,1-5.67,0,2.84,2.84,0,1,1,5.67,0Z"/><path class="cls-3" d="M122.46,18.53a2.81,2.81,0,0,1-2.83,2.83,2.86,2.86,0,0,1-2.84-2.83,2.92,2.92,0,0,1,2.84-2.84A2.86,2.86,0,0,1,122.46,18.53Z"/><path class="cls-3" d="M130.24,18.53a2.84,2.84,0,0,1-5.67,0,2.84,2.84,0,1,1,5.67,0Z"/><path class="cls-3" d="M138,18.53a2.89,2.89,0,0,1-2.84,2.83,2.83,2.83,0,0,1-2.83-2.83,2.89,2.89,0,0,1,2.83-2.84A3,3,0,0,1,138,18.53Z"/></svg>