<svg id="Layer_1" data-name="Layer 1" xmlns="http://www.w3.org/2000/svg" viewBox="0 0 395.29 41.65"><title>Tab (2)</title><path d="M20.57,12.51H18.8L12,29.66h1.59L15.4,25h8.4l1.81,4.68h1.7ZM16,23.69l3.61-9.8,3.75,9.8Z"/><polygon points="38.81 17.71 38.81 26.83 38.82 27.32 38.82 27.74 38.84 28.18 38.85 28.65 38.87 29.14 38.9 29.66 37.48 29.66 37.41 27.78 36.82 28.44 36.21 28.98 35.57 29.4 34.91 29.66 34.22 29.88 33.5 29.94 32.27 29.66 31.27 29.41 30.49 28.76 29.93 27.84 29.6 26.66 29.48 25.21 29.48 17.71 30.93 17.71 30.93 25.03 31.01 26.12 31.24 27.02 31.62 27.72 32.16 28.22 32.98 28.52 33.69 28.61 34.22 28.59 34.72 28.5 35.18 28.36 35.6 28.16 35.99 27.9 36.34 27.58 36.66 27.22 36.91 26.83 37.11 26.39 37.25 25.93 37.34 25.42 37.36 24.89 37.36 17.71 38.81 17.71"/><polygon points="43.84 29.66 43.84 18.84 41.48 18.84 41.48 17.71 43.84 17.71 43.84 14.85 43.91 14.05 44.13 13.4 44.5 12.89 45.02 12.66 45.69 12.31 46.51 12.24 46.68 12.24 46.88 12.26 47.15 12.28 47.39 12.3 47.7 12.34 48.04 12.38 48.04 13.6 48.03 13.6 48.02 13.59 48.01 13.59 47.99 13.59 47.97 13.59 47.96 13.59 47.15 13.56 46.7 13.57 46.43 13.6 46.19 13.64 45.98 13.71 45.81 13.8 45.67 13.91 45.56 14.04 45.48 14.2 45.41 14.41 45.35 14.64 45.33 14.92 45.31 15.22 45.31 17.71 48.04 17.71 48.04 18.84 45.31 18.84 45.31 29.66 43.84 29.66"/><polygon points="49.81 29.66 49.81 28.22 56.54 18.93 49.98 18.93 49.98 17.71 58.23 17.71 58.23 19.13 51.6 28.37 58.49 28.37 58.49 29.66 49.81 29.66"/><polygon points="70.69 17.71 70.69 26.83 70.69 27.32 70.7 27.74 70.71 28.18 70.73 28.65 70.75 29.14 70.78 29.66 69.36 29.66 69.28 27.78 68.7 28.44 68.08 28.98 67.45 29.4 66.78 29.66 66.09 29.88 65.38 29.94 64.16 29.66 63.15 29.41 62.37 28.76 61.81 27.84 61.47 26.66 61.32 25.21 61.32 17.71 62.81 17.71 62.81 25.03 62.89 26.12 63.12 27.02 63.5 27.72 64.16 28.22 64.72 28.52 65.57 28.61 66.1 28.59 66.59 28.5 66.99 28.36 67.48 28.16 67.87 27.9 68.22 27.58 68.53 27.22 68.79 26.83 68.99 26.39 69.13 25.93 69.21 25.42 69.24 24.89 69.24 17.71 70.69 17.71"/><path d="M83.21,17.71l-.06,1.92L82.63,19l-.58-.63L81.42,18l-.7-.31L80,17.51l-.81-.06-.84.05-.68.15-.66.26-.6.42-.54.39-.36.57-.48.56-.3.62-.23.69-.17.7-.1.77,0,.83,0,.84.09.79.15.73.22.67.28.63.33.56.46.58.53.47.6.37.66.27.8.29h.73l.84-.14.78-.18.71-.31L82,28.6l.59-.55.52-.67v1.8L83,30.38l-.31,1-.53.77-.74.54-.94.33-1.16.11-1-.06-.67-.18-.61-.38-.45-.33-.28-.54L76.2,31H74.58l.17,1,.42.86.67.66.92.48,1.16.28,1.41.1.89,0,.94-.12.59-.21.64-.29.55-.37.47-.46.36-.39.23-.7.29-.66.16-.74.1-.74,0-1v-8.6l0-.46,0-.55,0-.73,0-.62Zm-.13,6.51-.07.61-.12.57-.17.53-.21.49-.27.41-.36.49-.41.37L81,28l-.52.2-.57.13-.62,0-.62-.05-.56-.13L77.61,28l-.45-.3-.39-.39-.34-.45-.22-.47L76,25.87l-.14-.53-.1-.58L75.72,24l0-.53,0-.65.07-.6.11-.57.15-.48.2-.54.24-.44.34-.48.39-.39.44-.3.49-.21.55-.13.6,0,.63,0,.58.13.65.21.34.3.42.39.35.48.26.45.21.53.16.51.11.59.07.63,0,.67Z"/><rect x="95.12" y="12.5" width="1.78" height="1.95"/><rect x="95.34" y="17.71" width="1.4" height="11.96"/><polygon points="101.01 29.66 101.01 20.45 101.01 20.02 101.01 19.58 101.01 19.13 100.85 18.67 100.83 18.33 100.8 17.71 102.25 17.71 102.32 19.75 102.9 19.09 103.5 18.54 104.13 18.12 104.78 17.82 105.46 17.64 106.17 17.58 107.08 17.64 107.87 17.85 108.55 18.33 109.11 18.66 109.51 19.26 109.9 20 110.53 19.26 111.19 18.66 111.86 18.33 112.55 17.85 113.26 17.64 113.99 17.58 115.18 17.71 116.22 18.1 117 18.76 117.55 19.68 118.02 20.87 118.02 22.32 118.02 29.66 116.55 29.66 116.55 22.49 116.47 21.39 116.24 20.49 115.86 19.79 115.32 19.29 114.63 18.99 113.79 18.88 113.26 18.91 112.76 19 112.34 19.15 111.88 19.36 111.5 19.62 111.15 19.95 110.85 20.31 110.6 20.71 110.41 21.16 110.27 21.62 110.19 22.12 110.16 22.66 110.16 29.66 108.71 29.66 108.71 22.49 108.64 21.39 108.41 20.49 108.03 19.79 107.5 19.29 106.68 18.99 105.98 18.88 105.45 18.91 104.95 19 104.48 19.15 104.06 19.35 103.67 19.61 103.31 19.93 103.01 20.3 102.76 20.7 102.57 21.16 102.43 21.61 102.35 22.12 102.32 22.66 102.32 29.66 101.01 29.66"/><path d="M140.47,24.35l-.1-.54-.16-.5-.22-.46-.29-.43-.35-.39L139,21.7l-.41-.28-.45-.26-.5-.2-.54-.17-.58-.13,1-.33.81-.45.63-.57.45-.7.27-.81.09-.94-.18-1.37L139,14.44l-.9-.84-1.26-.6-1.63-.34-2-.15h-4.33V29.66h6.83l1.72-.52,1.34-.66,1-.92.57-1.18.19-1.45ZM130.4,13.89h3.08L135,14l1,.26.9.41.64.59.27.75.24.93,0,.6-.2.55v.47l-.4.42-.36.34-.44.29-.39.16-.44.14-.51.1-.56.08-.62.05H130.4Zm8.39,11.63-.13.51-.21.47-.31.33-.28.45-.59.32-.43.21-.47.17-.5.13-.55.1-.58.06-.63,0H130.4V21.4h3.46l1.52.09,1.24.3,1,.5.69.69.42,1,.14,1Z"/><polygon points="144.38 29.66 144.38 20.59 144.37 20.34 144.36 19.99 144.35 19.56 144.33 19.03 144.3 18.33 144.26 17.71 145.73 17.71 145.83 19.56 146.19 18.97 146.63 18.49 147.15 18.12 147.74 17.85 148.41 17.69 149.2 17.64 149.39 17.64 149.51 17.65 149.64 17.66 149.78 17.68 149.92 17.69 149.92 19.07 149.79 19.07 149.67 19.07 149.54 19.07 149.41 19.07 149.2 19.07 148.62 19.1 148.15 19.19 147.72 19.33 147.33 19.53 146.98 19.79 146.67 20.11 146.36 20.44 146.36 20.81 146.08 21.16 145.97 21.67 145.91 22.16 145.88 22.69 145.88 29.66 144.38 29.66"/><path d="M160.83,29.24l0-.4,0-.39,0-.36V21.74l0-.42-.16-.38v-.83l-.25-.82-.46-.66-.63-.52-.8-.37-1-.22-1.14-.07-1.24.09-1,.27-.83.52-.64.57-.51.82-.15,1h1.51l.13-.65.27-.54.41-.41.67-.3.59-.18.84-.06.89.07.72.2.56.34.4.47.24.61.08.74V22.4h-2.08l-.74,0-.7.07-.65.12-.62.15-.57.21-.53.25-.58.37-.48.4-.37.53-.26.54-.16.61,0,.66,0,.5.09.57.15.47.22.43.14.38.47.34.37.28.4.36h.45l.48.17.67.08.43,0,.86-.07.79-.21.75-.29.59-.44.55-.57.48-.69.13,2h1.43Zm-1.64-4,0,.51-.09.47-.14.44-.21.4-.26.37-.32.34-.44.29-.31.24-.42.18-.44.13-.48.08-.51,0-.38,0-.29-.05-.4-.08-.31-.12-.28-.14-.26-.18-.24-.23-.2-.25-.15-.28-.11-.31-.07-.23,0-.48,0-.51.13-.45.23-.41.31-.36.41-.31.49-.32h.42l.44-.22.48-.1.51-.08.55,0h2.34Z"/><polygon points="164.69 29.66 164.69 20.45 164.68 20.02 164.68 19.58 164.66 19.13 164.65 18.67 164.63 18.33 164.6 17.71 166.05 17.71 166.2 19.75 166.71 19.09 167.32 18.54 167.95 18.12 168.61 17.82 169.29 17.64 170 17.58 171.24 17.71 172.25 18.1 173.04 18.76 173.61 19.68 173.94 20.87 174.06 22.32 174.06 29.66 172.58 29.66 172.58 22.49 172.57 21.94 172.52 21.45 172.45 21 172.36 20.6 172.23 20.25 172.08 19.95 171.87 19.62 171.53 19.36 171.18 19.15 170.78 19 170.32 18.91 169.81 18.88 169.27 18.91 168.77 19 168.31 19.15 167.88 19.36 167.48 19.62 167.13 19.95 166.82 20.31 166.57 20.71 166.37 21.16 166.2 21.62 166.2 22.12 166.2 22.66 166.2 29.66 164.69 29.66"/><path d="M187.84,28.14l0-.34,0-.31v-15H186.3v7.16l-.51-.68-.58-.66-.63-.32-.69-.31-.68-.19-.88-.06-.82.05-.75.17-.68.27-.61.39-.54.47-.47.6-.33.58-.27.64-.32.7v1.56l-.17.87.17.84v1.53l.35.71.29.61.36.59.47.58.54.48.61.37.67.2.74.22.8.06.84-.07.71-.21.69-.28.64-.44.57-.56.52-.68.08,2h1.5Zm-1.56-3.78-.07.64-.16.59v.55l-.31.51-.24.46-.35.5-.41.41-.46.32-.51.22-.56.14-.64.05L182,28.7l-.57-.13-.51-.22-.49-.31-.37-.4-.34-.49-.24-.32-.19-.64-.15-.54-.11-.59-.06-.63,0-.68,0-.69.06-.63.1-.6.14-.67.18-.37.23-.45.33-.51.42-.4.42-.32.51-.23.57-.14.62,0,.71,0,.49.14.52.22.47.31.41.4.35.48.26.46.34.41v.64l.16.58.07.63,0,.67Z"/><polygon points="192.76 29.66 192.76 18.84 190.45 18.84 190.45 17.71 192.76 17.71 192.76 14.85 192.83 14.05 193.06 13.4 193.43 12.89 193.95 12.66 194.55 12.31 195.43 12.24 195.6 12.24 195.8 12.26 196.04 12.28 196.32 12.3 196.62 12.34 196.97 12.38 196.97 13.6 196.96 13.6 196.94 13.59 196.93 13.59 196.91 13.59 196.9 13.59 196.88 13.59 195.93 13.56 195.62 13.57 195.35 13.6 195.11 13.64 194.9 13.71 194.73 13.8 194.55 13.91 194.55 14.04 194.4 14.2 194.33 14.41 194.28 14.64 194.25 14.92 194.24 15.22 194.24 17.71 196.97 17.71 196.97 18.84 194.24 18.84 194.24 29.66 192.76 29.66"/><path d="M208.32,29.24l0-.4,0-.39,0-.36V21.32l0-.38,0-.32,0-.28,0-.23-.29-.82-.46-.66-.62-.52-.8-.37-1-.22-1.14-.07-1.24.09-1,.27-.83.52-.63.57-.43.82-.23,1h1.5l.13-.65.27-.54.42-.41.55-.3.8-.18.75-.06.88.07.72.2.49.34.47.47.24.61.08.74V22.4H204.6l-.74,0-.81.07-.54.12-.61.15-.57.21-.53.25-.58.37-.48.4-.37.53-.27.54-.16.61-.05.66,0,.5.09.57.15.47.22.43.28.38L200,29l.23.28.54.36h.45l.49.17.52.08.57,0,.87-.07.78-.21.71-.29.74-.44.45-.57.47-.69.13,2h1.44Zm-1.64-4,0,.51-.08.47-.15.44-.2.4-.33.37-.26.34-.36.29-.38.24-.42.18-.45.13-.48.08-.49,0-.4,0-.36-.05-.33-.08-.31-.12-.28-.14-.26-.18-.24-.23-.2-.25-.15-.28-.11-.31-.19-.23v-.48l.15-.51.13-.45.23-.41.31-.36.41-.31L202,24h.41l.44-.22.48-.1.52-.08.55,0h2.33Z"/><rect x="212.09" y="12.51" width="1.48" height="17.15"/><rect x="217.63" y="12.51" width="1.48" height="17.15"/><polygon points="229.85 29.66 229.85 20.45 229.84 20.02 229.84 19.58 229.82 19.13 229.81 18.67 229.79 18.33 229.76 17.71 231.21 17.71 231.4 19.75 231.87 19.09 232.48 18.54 233.11 18.12 233.77 17.82 234.45 17.64 235.16 17.58 236.4 17.71 237.41 18.1 238.2 18.76 238.77 19.68 239.1 20.87 239.22 22.32 239.22 29.66 237.74 29.66 237.74 22.49 237.73 21.94 237.69 21.45 237.61 21 237.52 20.6 237.39 20.25 237.24 19.95 237.07 19.62 236.69 19.36 236.34 19.15 235.94 19 235.48 18.91 234.97 18.88 234.43 18.91 233.93 19 233.47 19.15 233.04 19.36 232.65 19.62 232.29 19.95 231.98 20.31 231.73 20.71 231.4 21.16 231.4 21.62 231.4 22.12 231.4 22.66 231.4 29.66 229.85 29.66"/><rect x="243.04" y="12.5" width="1.78" height="1.95"/><rect x="243.18" y="17.71" width="1.48" height="11.96"/><polygon points="257.91 26.03 257.82 26.65 257.68 27.22 257.48 27.74 257.22 28.21 256.91 28.62 256.51 28.99 256.1 29.28 255.63 29.66 255.13 29.66 254.57 29.84 254.08 29.93 253.34 29.95 252.5 29.9 251.72 29.66 251.02 29.5 250.38 29.15 249.82 28.71 249.32 28.16 248.94 27.59 248.63 26.83 248.41 26.27 248.21 25.52 248.11 24.71 248.07 23.84 248.11 22.91 248.2 22.06 248.41 21.16 248.59 20.55 248.88 19.9 249.24 19.32 249.73 18.74 250.3 18.33 250.95 17.89 251.67 17.63 252.47 17.48 253.34 17.42 254.08 17.45 254.57 17.53 255.13 17.67 255.63 17.87 256.1 18.12 256.51 18.33 256.91 18.8 257.24 19.23 257.5 19.71 257.69 20.23 257.82 20.8 257.88 21.43 256.25 21.43 256.21 21 256.12 20.61 255.99 20.25 255.82 19.92 255.61 19.62 255.37 19.35 255.09 19.11 254.78 18.91 254.45 18.76 254.08 18.65 253.69 18.59 253.27 18.57 252.16 18.71 251.24 19.15 250.55 19.87 250.04 20.88 249.74 22.18 249.64 23.77 249.74 25.26 250.04 26.48 250.55 27.44 251.24 28.12 252.16 28.52 253.27 28.66 254.08 28.59 254.78 28.37 255.35 28 255.8 27.49 256.13 26.83 256.34 26.03 257.91 26.03"/><polygon points="261.21 29.66 261.21 12.51 262.58 12.51 262.58 19.72 263.23 19.07 263.83 18.53 264.46 18.11 265.12 17.82 265.81 17.64 266.52 17.58 267.75 17.71 268.77 18.1 269.55 18.76 270.12 19.68 270.45 20.87 270.56 22.32 270.56 29.66 269.09 29.66 269.09 22.49 269.01 21.39 268.78 20.49 268.4 19.79 267.86 19.29 267.17 18.99 266.33 18.88 265.79 18.91 265.42 19 264.83 19.15 264.4 19.36 264.02 19.62 263.66 19.95 263.36 20.31 263.1 20.71 262.91 21.16 262.77 21.62 262.58 22.12 262.58 22.66 262.58 29.66 261.21 29.66"/><polygon points="276.75 26.55 276.75 26.83 276.75 27.18 276.75 27.44 276.95 27.68 277.02 27.88 277.11 28.06 277.25 28.24 277.43 28.39 277.63 28.51 277.88 28.59 278.15 28.64 278.46 28.66 278.66 28.66 278.87 28.64 279.08 28.61 279.3 28.57 279.59 28.52 279.74 28.46 279.74 29.66 279.4 29.82 279.08 29.88 278.8 29.92 278.54 29.95 278.31 29.97 278.12 29.98 277.27 29.9 276.58 29.66 276.04 29.28 275.65 28.74 275.42 28.05 275.35 27.2 275.35 18.84 273 18.84 273 17.71 275.35 17.71 275.35 15.22 276.75 14.58 276.75 17.71 279.59 17.71 279.59 18.84 276.75 18.84 276.75 26.55"/><path d="M299.22,21.32l-.21-.7-.27-.64-.33-.58-.46-.6-.53-.47-.6-.41-.68-.28-.74-.16-.81-.06-.83.06-.75.19-.7.31-.65.35-.73.64-.4.68V12.51h-1.48V26.62l-.11,3h1.5l.09-2,.4.68.69.56.63.44.69.28.82.21.73.07.8-.06.73-.22.58-.2.69-.37.54-.48.48-.58.36-.59.29-.61.23-.71.24-.74v-3.3Zm-1.28,3.11-.06.63-.11.59-.15.54-.2.64-.24.32-.35.49-.41.4-.45.31-.52.22-.56.13-.63.05-.5-.05-.71-.14-.51-.22-.47-.32-.4-.41-.35-.5-.24-.46-.15-.51-.2-.55-.11-.59-.07-.64,0-.68,0-.67.07-.63.12-.59.19-.63.18-.42.25-.46.36-.49.41-.4.47-.31.52-.22.64-.13.57,0,.63,0,.57.14.51.22.56.32.28.41.34.5.23.45.18.39.15.66.1.6.06.64,0,.69Z"/><path d="M313,23.43l0-.84-.11-.79-.18-.64-.25-.77-.33-.62-.4-.57-.5-.54-.44-.33-.75-.46-.69-.25-.76-.15-.82,0-.85.06-.8.15-.73.26-.66.44-.6.41-.53.57-.42.61-.34.66-.27.58-.28.9v3.41l.28.76.26.6.34.74.41.59.52.55.59.44.65.35.72.16.79.24.85.05.68,0,.63-.08.59-.18.55-.15.64-.25.34-.3.45-.38.39-.44.32-.49.26-.54.19-.59.13-.65h-1.48l-.1.43-.13.53-.18.23-.19.33-.29.31-.3.27-.33.23-.35.19-.38.15-.4.11-.41.06-.37,0-.73,0-.61-.12-.54-.2-.49-.29-.47-.37-.35-.44-.27-.44-.23-.51-.17-.54-.13-.59-.08-.65,0-.69H313Zm-9.13-.71.25-1.26.39-1,.57-.8.69-.57.85-.35,1-.11.57,0,.52.1.48.17.44.24.4.31.35.37.36.38.16.42.19.54.14.43.1.55.05.58Z"/><polygon points="316.08 29.66 316.08 20.45 316.07 20.02 316.07 19.58 316.06 19.13 316.04 18.67 316.02 18.33 315.99 17.71 317.44 17.71 317.51 19.75 318.1 19.09 318.71 18.54 319.27 18.12 320 17.82 320.68 17.64 321.39 17.58 322.63 17.71 323.65 18.1 324.43 18.76 324.94 19.68 325.34 20.87 325.45 22.32 325.45 29.66 323.97 29.66 323.97 22.49 323.96 21.94 323.92 21.45 323.85 21 323.75 20.6 323.62 20.25 323.47 19.95 323.22 19.62 322.92 19.36 322.57 19.15 322.11 19 321.71 18.91 321.2 18.88 320.66 18.91 320.17 19 319.7 19.15 319.27 19.36 318.88 19.62 318.52 19.95 318.21 20.31 317.96 20.71 317.76 21.16 317.63 21.62 317.54 22.12 317.51 22.66 317.51 29.66 316.08 29.66"/><polygon points="338.7 17.71 338.7 26.83 338.7 27.32 338.71 27.74 338.72 28.18 338.73 28.65 338.76 29.14 338.78 29.66 337.36 29.66 337.29 27.78 336.7 28.44 336.09 28.98 335.45 29.4 334.79 29.66 334.1 29.88 333.45 29.94 332.16 29.66 331.15 29.41 330.37 28.76 329.81 27.84 329.48 26.66 329.37 25.21 329.37 17.71 330.82 17.71 330.82 25.03 330.89 26.12 331.12 27.02 331.51 27.72 332.04 28.22 332.73 28.52 333.45 28.61 334.11 28.59 334.6 28.5 335.06 28.36 335.49 28.16 335.88 27.9 336.28 27.58 336.54 27.22 336.8 26.83 336.99 26.39 337.14 25.93 337.22 25.42 337.25 24.89 337.25 17.71 338.7 17.71"/><polygon points="345.11 26.55 345.12 26.83 345.14 27.18 345.19 27.44 345.24 27.68 345.31 27.88 345.4 28.06 345.54 28.24 345.72 28.39 345.92 28.51 346.16 28.59 346.44 28.64 346.75 28.66 346.95 28.66 347.16 28.64 347.37 28.61 347.62 28.57 347.8 28.52 348.03 28.46 348.03 29.66 347.62 29.82 347.38 29.88 347.09 29.92 346.83 29.95 346.61 29.97 346.4 29.98 345.56 29.9 344.79 29.66 344.33 29.28 343.94 28.74 343.71 28.05 343.64 27.2 343.64 18.84 341.29 18.84 341.29 17.71 343.64 17.71 343.64 15.22 345.11 14.58 345.11 17.71 347.8 17.71 347.8 18.84 345.11 18.84 345.11 26.55"/><polygon points="349.66 29.66 349.66 28.22 356.39 18.93 349.83 18.93 349.83 17.71 358.09 17.71 358.09 19.13 351.46 28.37 358.25 28.37 358.25 29.66 349.66 29.66"/><path d="M371.42,23.43l0-.84-.1-.79-.19-.64-.25-.77-.33-.62-.4-.57-.49-.54-.57-.33-.63-.46-.69-.25-.76-.15-.82,0-.85.06-.67.15-.85.26-.67.44-.6.41-.53.57-.42.61-.34.66-.26.58-.19.9-.12.83,0,.89,0,.88.11.81.19.76.26.6.34.74.41.59.52.55.59.44.65.35.72.16.79.24.85.05.68,0,.7-.08.52-.18.55-.15.51-.25.47-.3.45-.38.34-.44.37-.49.26-.54.19-.59.13-.65h-1.48l-.1.43-.13.53-.18.23-.22.33-.26.31-.3.27-.33.23-.36.19-.43.15-.33.11-.42.06-.44,0-.66,0-.61-.12-.54-.2-.49-.29-.44-.37-.37-.44-.28-.44-.23-.51-.17-.54-.13-.59-.07-.65,0-.69h9.17Zm-9.13-.71.25-1.26.39-1,.55-.8.71-.57.85-.35,1-.11.57,0,.52.1.49.17.43.24.4.31.35.37.28.38.24.42.19.54.14.43.1.55.05.58Z"/><polygon points="374.48 29.66 374.48 20.45 374.48 20.02 374.47 19.58 374.46 19.13 374.44 18.67 374.42 18.33 374.39 17.71 375.97 17.71 375.97 19.75 376.5 19.09 377.11 18.54 377.75 18.12 378.4 17.82 379.08 17.64 379.79 17.58 381.03 17.71 382.05 18.1 382.84 18.76 383.4 19.68 383.74 20.87 383.85 22.32 383.85 29.66 382.37 29.66 382.37 22.49 382.36 21.94 382.32 21.45 382.25 21 382.15 20.6 382.02 20.25 381.87 19.95 381.64 19.62 381.32 19.36 380.97 19.15 380.57 19 380.11 18.91 379.6 18.88 379.07 18.91 378.56 19 378.1 19.15 377.67 19.36 377.28 19.62 376.92 19.95 376.61 20.31 376.36 20.71 376.17 21.16 375.97 21.62 375.97 22.12 375.97 22.66 375.97 29.66 374.48 29.66"/></svg>