<svg id="Layer_1" data-name="Layer 1" xmlns="http://www.w3.org/2000/svg" viewBox="0 0 115.71 116.07"><defs><style>.cls-1,.cls-2{fill:none;stroke:#000;}.cls-1{stroke-width:0.5px;}.cls-2{stroke-width:2px;}</style></defs><title>Tab (2)</title><path class="cls-1" d="M55.89,46.07h0V38.88a2,2,0,0,1,1-1.77,2,2,0,0,1,2,0,2,2,0,0,1,1,1.77v7.19A12.68,12.68,0,0,1,69.73,54L76,69.38a2.16,2.16,0,0,1-.2,2,1.87,1.87,0,0,1-1.63.88H60.44a4,4,0,1,1-5.17,0H41.59A1.87,1.87,0,0,1,40,71.33a2.16,2.16,0,0,1-.2-2L46,54A12.68,12.68,0,0,1,55.89,46.07Z"/><path class="cls-1" d="M44.49,68.26h0l5.15-12.84a8.84,8.84,0,0,1,16.43,0l5.14,12.84Z"/><path class="cls-1" d="M91.87,18.35h-68A5.67,5.67,0,0,0,18.17,24h0v68h0a5.67,5.67,0,0,0,5.67,5.67h68a5.67,5.67,0,0,0,5.67-5.67V24A5.67,5.67,0,0,0,91.87,18.35Z"/><path class="cls-1" d="M15.33,24v68h0a8.51,8.51,0,0,0,8.51,8.51h68a8.5,8.5,0,0,0,8.5-8.51V24a8.49,8.49,0,0,0-8.5-8.5h-68A8.5,8.5,0,0,0,15.33,24"/><path class="cls-2" d="M91.87,106.23A14.17,14.17,0,0,0,106,92.05V24A14.17,14.17,0,0,0,91.87,9.85h-68A14.18,14.18,0,0,0,9.66,24h0v68h0a14.18,14.18,0,0,0,14.18,14.18Z"/></svg>