<svg id="Layer_1" data-name="Layer 1" xmlns="http://www.w3.org/2000/svg" viewBox="0 0 115.71 116.07"><defs><style>.cls-1,.cls-2{fill:none;stroke:#000;}.cls-1{stroke-width:0.5px;}.cls-2{stroke-width:2px;}</style></defs><title>Tab (2)</title><circle class="cls-1" cx="57.85" cy="58.04" r="39.69"/><circle class="cls-1" cx="57.85" cy="58.04" r="42.52"/><circle class="cls-2" cx="57.85" cy="58.04" r="48.19"/><path class="cls-1" d="M54.74,82.13a2.56,2.56,0,1,1-2.56-2.55A2.55,2.55,0,0,1,54.74,82.13Z"/><path class="cls-1" d="M54.74,89.22a2.56,2.56,0,1,1-2.56-2.55A2.56,2.56,0,0,1,54.74,89.22Z"/><path class="cls-1" d="M47.65,89.22a2.55,2.55,0,1,1-2.55-2.55A2.54,2.54,0,0,1,47.65,89.22Z"/><circle class="cls-1" cx="52.18" cy="75.05" r="2.55"/><path class="cls-1" d="M66.07,75.05a2.55,2.55,0,1,1-2.55-2.56A2.55,2.55,0,0,1,66.07,75.05Z"/><path class="cls-1" d="M63.74,26.86a2.55,2.55,0,0,0-1.53-2.33,2.35,2.35,0,0,0-2.76.48h0l-6.67,6.22h0A2.55,2.55,0,0,0,56.25,35h0l2.39-2.22V64.27a2.55,2.55,0,1,0,5.1,0Z"/></svg>