<svg id="Layer_1" data-name="Layer 1" xmlns="http://www.w3.org/2000/svg" viewBox="0 0 115.71 116.07"><defs><style>.cls-1,.cls-2{fill:none;stroke:#000;}.cls-1{stroke-width:0.5px;}.cls-2{stroke-width:2px;}</style></defs><title>Tab (2)</title><polygon class="cls-1" points="35.51 43.67 40.27 43.67 40.27 61.42 40.45 63.71 40.99 65.44 41.9 66.84 43.16 67.84 44.79 68.45 46.78 68.65 48.79 68.45 50.43 67.84 51.71 66.84 52.63 65.44 53.17 63.71 53.36 61.42 53.36 43.67 58.12 43.67 58.12 61.71 58.03 63.44 57.85 65.04 57.38 66.54 56.8 67.82 56.06 69.01 55.02 70.06 54.1 70.96 52.91 71.69 51.59 72.21 50.12 72.67 48.52 72.92 46.78 73 43.34 72.69 40.52 71.75 38.33 70.18 36.76 67.98 35.83 65.16 35.51 61.71 35.51 43.67"/><polygon class="cls-1" points="67.28 68.19 81.2 68.19 81.2 72.21 62.09 72.21 62.14 70.81 62.3 69.57 62.57 68.4 62.95 67.3 63.52 66.26 64.03 65.3 64.65 64.49 65.38 63.71 66.36 62.89 67.19 62.11 68.27 61.33 69.46 60.56 69.69 60.42 69.93 60.27 70.19 60.12 70.47 59.95 70.75 59.78 71.06 59.6 72.78 58.51 74.19 57.41 75.29 56.3 76.08 55.2 76.55 54.08 76.7 52.95 76.67 52.37 76.55 51.65 76.36 51.06 76.1 50.53 75.76 50.04 75.34 49.53 74.86 49.23 74.35 48.91 73.8 48.67 73.2 48.5 72.57 48.4 72.03 48.36 71.11 48.41 70.38 48.54 69.71 48.77 69.19 49.08 68.57 49.53 68.09 49.99 67.72 50.52 67.41 51.1 67.18 51.75 67.01 52.37 66.91 53.2 66.87 54.01 66.87 54.44 62.59 54.44 62.59 54.25 62.66 52.78 62.87 51.42 63.21 50.17 63.7 49.03 64.32 47.99 65.08 47.07 65.97 46.27 66.98 45.62 68.09 45.11 69.19 44.75 70.66 44.53 72.03 44.46 73.41 44.52 74.62 44.7 75.75 45.01 76.8 45.43 77.7 45.97 78.64 46.7 79.46 47.46 80.13 48.37 80.53 49.37 81.02 50.46 81.25 51.64 81.32 52.91 81.14 54.64 80.53 56.28 79.71 57.83 78.45 59.3 76.83 60.67 74.86 61.95 74.1 62.4 72.23 63.53 70.66 64.59 69.38 65.58 68.39 66.54 67.69 67.39 67.28 68.19"/><circle class="cls-2" cx="57.85" cy="58.04" r="48.19" transform="translate(-17.91 89.28) rotate(-67.5)"/><circle class="cls-1" cx="57.85" cy="58.04" r="42.52" transform="translate(-8.7 105.85) rotate(-80.78)"/><circle class="cls-1" cx="57.85" cy="58.04" r="39.69" transform="translate(-17.91 89.28) rotate(-67.5)"/></svg>