<svg id="Layer_1" data-name="Layer 1" xmlns="http://www.w3.org/2000/svg" viewBox="0 0 115.71 116.07"><defs><style>.cls-1,.cls-2{fill:none;stroke:#000;}.cls-1{stroke-width:0.5px;}.cls-2{stroke-width:2px;}</style></defs><title>Tab (2)</title><circle class="cls-1" cx="57.85" cy="58.04" r="39.68" transform="translate(-10.08 103.87) rotate(-79.1)"/><circle class="cls-1" cx="57.85" cy="58.04" r="42.51"/><circle class="cls-2" cx="57.85" cy="58.04" r="48.18"/><polygon class="cls-1" points="72.74 71.14 72.74 71.14 42.97 71.14 57.85 39.24 72.74 71.14"/><path class="cls-1" d="M75.85,75h-36a2,2,0,0,1-1.67-.86,2.29,2.29,0,0,1-.18-2L56.06,33.73a1.94,1.94,0,0,1,3.59,0l18,38.48a2.26,2.26,0,0,1-.17,2A2,2,0,0,1,75.85,75Z"/></svg>