<svg id="Layer_1" data-name="Layer 1" xmlns="http://www.w3.org/2000/svg" viewBox="0 0 115.71 116.07"><defs><style>.cls-1,.cls-2{fill:none;stroke:#000;}.cls-1{stroke-width:0.5px;}.cls-2{stroke-width:2px;}</style></defs><title>Tab (2)</title><path class="cls-1" d="M58.67,75H29.91a1.61,1.61,0,0,1-1.43-2.28L42.86,41.93A1.6,1.6,0,0,1,44.29,41a1.58,1.58,0,0,1,1.44.91L60.11,72.74A1.61,1.61,0,0,1,58.67,75Z"/><polygon class="cls-1" points="56.19 71.83 56.19 71.83 32.37 71.83 44.29 46.34 56.19 71.83"/><polygon class="cls-1" points="59.55 44.21 59.55 44.21 83.37 44.21 71.44 69.7 59.55 44.21"/><path class="cls-1" d="M57.06,41H85.82a1.59,1.59,0,0,1,1.33.76,1.55,1.55,0,0,1,.1,1.52L72.87,74.11a1.61,1.61,0,0,1-1.43.91A1.59,1.59,0,0,1,70,74.11L55.63,43.3A1.61,1.61,0,0,1,57.06,41Z"/><path class="cls-1" d="M91.87,18.35h-68A5.67,5.67,0,0,0,18.17,24h0v68h0a5.67,5.67,0,0,0,5.67,5.67h68a5.67,5.67,0,0,0,5.67-5.67V24A5.67,5.67,0,0,0,91.87,18.35Z"/><path class="cls-1" d="M15.33,24v68h0a8.51,8.51,0,0,0,8.51,8.51h68a8.5,8.5,0,0,0,8.5-8.51V24a8.49,8.49,0,0,0-8.5-8.5h-68A8.5,8.5,0,0,0,15.33,24"/><path class="cls-2" d="M91.87,106.23A14.17,14.17,0,0,0,106,92.05V24A14.17,14.17,0,0,0,91.87,9.85h-68A14.18,14.18,0,0,0,9.66,24h0v68h0a14.18,14.18,0,0,0,14.18,14.18Z"/></svg>