<svg id="Layer_1" data-name="Layer 1" xmlns="http://www.w3.org/2000/svg" viewBox="0 0 115.71 116.07"><defs><style>.cls-1,.cls-2{fill:none;stroke:#000;}.cls-1{stroke-width:0.5px;}.cls-2{stroke-width:2px;}</style></defs><title>Tab (2)</title><path class="cls-1" d="M55.89,77.33h0a2,2,0,1,0,3.93,0V38.74a1.91,1.91,0,0,0-.57-1.39,2,2,0,0,0-3.36,1.39Z"/><path class="cls-1" d="M33.44,64.91h0V51.18a2,2,0,0,1,2.79-1.8l15,6.87a2,2,0,0,1,0,3.58l-15,6.87a1.92,1.92,0,0,1-1.88-.15A1.94,1.94,0,0,1,33.44,64.91Z"/><polygon class="cls-1" points="37.38 61.84 37.38 61.84 45.65 58.04 37.38 54.24 37.38 61.84"/><path class="cls-1" d="M64.51,59.83h0a2,2,0,0,1,0-3.58l15-6.87a1.94,1.94,0,0,1,1.89.16,1.9,1.9,0,0,1,.9,1.64V64.91a2,2,0,0,1-2.79,1.79Z"/><polygon class="cls-1" points="70.05 58.04 70.05 58.04 78.33 54.24 78.33 61.84 70.05 58.04"/><path class="cls-1" d="M91.87,18.35h-68A5.67,5.67,0,0,0,18.17,24h0v68h0a5.67,5.67,0,0,0,5.67,5.67h68a5.67,5.67,0,0,0,5.67-5.67V24A5.67,5.67,0,0,0,91.87,18.35Z"/><path class="cls-1" d="M15.33,24v68h0a8.51,8.51,0,0,0,8.51,8.51h68a8.5,8.5,0,0,0,8.5-8.51V24a8.49,8.49,0,0,0-8.5-8.5h-68A8.5,8.5,0,0,0,15.33,24"/><path class="cls-2" d="M91.87,106.23A14.17,14.17,0,0,0,106,92.05V24A14.17,14.17,0,0,0,91.87,9.85h-68A14.18,14.18,0,0,0,9.66,24h0v68h0a14.18,14.18,0,0,0,14.18,14.18Z"/></svg>