<svg id="Layer_1" data-name="Layer 1" xmlns="http://www.w3.org/2000/svg" viewBox="0 0 115.71 116.07"><defs><style>.cls-1,.cls-2{fill:none;stroke:#000;}.cls-1{stroke-width:0.5px;}.cls-2{stroke-width:2px;}</style></defs><title>Tab (2)</title><polygon class="cls-1" points="53.12 68.19 67.04 68.19 67.04 72.21 47.93 72.21 47.98 70.81 48.14 69.57 48.41 68.4 48.79 67.3 49.35 66.26 49.86 65.3 50.49 64.49 51.22 63.71 52.19 62.89 53.03 62.11 54.11 61.33 55.29 60.56 55.52 60.42 55.77 60.27 56.03 60.12 56.3 59.95 56.59 59.78 56.9 59.6 58.62 58.51 60.03 57.41 61.13 56.3 61.91 55.2 62.39 54.08 62.54 52.95 62.5 52.37 62.39 51.65 62.2 51.06 61.94 50.53 61.6 50.04 61.18 49.53 60.69 49.23 60.19 48.91 59.64 48.67 59.04 48.5 58.41 48.4 57.85 48.36 56.94 48.41 56.22 48.54 55.55 48.77 55.02 49.09 54.41 49.53 53.93 49.99 53.56 50.52 53.25 51.1 53.02 51.75 52.85 52.37 52.74 53.2 52.71 54.01 52.71 54.44 48.43 54.44 48.43 54.25 48.5 52.78 48.71 51.42 49.05 50.17 49.53 49.03 50.16 47.99 50.92 47.07 51.81 46.27 52.81 45.62 53.93 45.11 55.02 44.75 56.5 44.53 57.85 44.46 59.25 44.52 60.46 44.7 61.59 45.01 62.64 45.43 63.52 45.97 64.48 46.7 65.3 47.46 65.97 48.37 66.36 49.37 66.86 50.46 67.08 51.64 67.16 52.91 66.98 54.64 66.36 56.28 65.55 57.83 64.29 59.3 62.67 60.67 60.69 61.95 59.94 62.4 58.07 63.53 56.5 64.59 55.22 65.58 54.23 66.54 53.53 67.39 53.12 68.19"/><circle class="cls-2" cx="57.85" cy="58.04" r="48.19" transform="translate(-17.91 89.28) rotate(-67.5)"/><circle class="cls-1" cx="57.85" cy="58.04" r="42.52" transform="translate(-8.7 105.85) rotate(-80.78)"/><circle class="cls-1" cx="57.85" cy="58.04" r="39.69" transform="translate(-17.91 89.28) rotate(-67.5)"/></svg>