<svg id="Layer_1" data-name="Layer 1" xmlns="http://www.w3.org/2000/svg" viewBox="0 0 151.71 152.19"><defs><style>.cls-1,.cls-2,.cls-3{fill:none;stroke:#000;}.cls-1,.cls-3{stroke-width:0.5px;}.cls-2{stroke-width:2px;}.cls-3{stroke-linecap:round;stroke-linejoin:round;}</style></defs><title>Tab (2)</title><circle class="cls-1" cx="75.86" cy="76.1" r="48.19"/><circle class="cls-1" cx="75.86" cy="76.1" r="42.52"/><circle class="cls-1" cx="75.86" cy="76.1" r="39.69" transform="translate(-23.48 117.06) rotate(-67.5)"/><circle class="cls-2" cx="75.86" cy="76.1" r="65.77"/><circle class="cls-1" cx="75.86" cy="76.1" r="62.93" transform="translate(-23.48 117.06) rotate(-67.5)"/><circle class="cls-1" cx="75.86" cy="76.1" r="51.59"/><path class="cls-3" d="M75.86,69.37a8.58,8.58,0,0,0-7.29,4.06"/><path class="cls-3" d="M75.86,69.37a8.61,8.61,0,0,1,7.3,4.06l7.16,16.51H61.41l7.16-16.51"/><path class="cls-3" d="M78.41,53.14a2.55,2.55,0,0,0-2.8-2.54,2.63,2.63,0,0,0-2.3,2.67V64.35a.17.17,0,0,1-.15.18A13.36,13.36,0,0,0,64,71.1L55.18,91.48a2.57,2.57,0,0,0,.21,2.41,2.51,2.51,0,0,0,2,1.15H72.3a4.42,4.42,0,0,0,.77,5.53,4.25,4.25,0,0,0,5.58,0A4.42,4.42,0,0,0,79.42,95H94.29a2.54,2.54,0,0,0,2.25-3.56L87.71,71.1a13.38,13.38,0,0,0-9.15-6.57.18.18,0,0,1-.15-.18Z"/></svg>