<svg id="Layer_1" data-name="Layer 1" xmlns="http://www.w3.org/2000/svg" viewBox="0 0 115.71 116.07"><defs><style>.cls-1,.cls-2{fill:none;stroke:#000;}.cls-1{stroke-width:2px;}.cls-2{stroke-width:0.5px;}</style></defs><title>Tab (2)</title><circle class="cls-1" cx="57.85" cy="58.04" r="48.19" transform="translate(-17.91 89.28) rotate(-67.5)"/><circle class="cls-2" cx="57.85" cy="58.04" r="42.52" transform="translate(-8.7 105.85) rotate(-80.78)"/><circle class="cls-2" cx="57.85" cy="58.04" r="39.69" transform="translate(-17.91 89.28) rotate(-67.5)"/><path class="cls-2" d="M44.49,68.26h0l5.15-12.84a8.84,8.84,0,0,1,16.43,0l5.14,12.84Z"/><path class="cls-2" d="M55.89,46.07h0V38.88a2,2,0,0,1,1-1.77,1.91,1.91,0,0,1,2,0,2,2,0,0,1,1,1.77v7.19A12.68,12.68,0,0,1,69.73,54L76,69.38a2.16,2.16,0,0,1-.2,2,1.87,1.87,0,0,1-1.63.88H60.44a4,4,0,1,1-5.17,0H41.59A1.87,1.87,0,0,1,40,71.33a2.16,2.16,0,0,1-.2-2L46,54A12.66,12.66,0,0,1,55.89,46.07Z"/></svg>