<svg id="Layer_1" data-name="Layer 1" xmlns="http://www.w3.org/2000/svg" viewBox="0 0 115.71 116.07"><defs><style>.cls-1,.cls-2{fill:none;stroke:#000;}.cls-1{stroke-width:0.5px;}.cls-2{stroke-width:2px;}</style></defs><title>Tab (2)</title><circle class="cls-1" cx="57.85" cy="58.04" r="39.69"/><circle class="cls-1" cx="57.85" cy="58.04" r="42.52"/><circle class="cls-2" cx="57.85" cy="58.04" r="48.19"/><polyline class="cls-1" points="52.53 34.11 52.53 34.11 53.03 33.03 53.45 32.27 53.95 31.56 54.55 31.02 55.39 30.46 56.15 29.95 56.79 29.69 57.71 29.49 58.66 29.41 59.46 29.41 60.22 29.69 61.14 29.89 61.78 30.31 62.63 30.82 63.15 31.33 64.31 32.81 64.56 33.52 64.82 34.48 64.97 35.36 64.97 36.15 64.84 36.89 64.52 37.77 64.09 38.73 63.52 39.55 46.14 62.74"/><polyline class="cls-1" points="47.89 32.02 47.89 32.02 48.47 30.74 49.11 29.69 50.11 28.16 51.43 26.86 52.51 26.26 53.89 25.3 55.39 24.84 56.82 24.45 58.44 24.3 60.21 24.3 61.58 24.73 63.23 25.13 64.51 26 65.8 26.86 66.98 27.96 68.82 30.31 69.42 31.99 69.81 33.38 70.08 34.99 70.08 36.61 69.78 38.19 69.19 39.7 68.61 41.03 67.83 42.39 53.29 61.72 67.1 61.72"/><path class="cls-1" d="M66.07,82.13a2.55,2.55,0,1,1-2.55-2.55A2.54,2.54,0,0,1,66.07,82.13Z"/><path class="cls-1" d="M54.74,82.13a2.56,2.56,0,1,1-2.56-2.55A2.55,2.55,0,0,1,54.74,82.13Z"/><path class="cls-1" d="M54.74,89.22a2.56,2.56,0,1,1-2.56-2.55A2.55,2.55,0,0,1,54.74,89.22Z"/><path class="cls-1" d="M47.65,89.22a2.55,2.55,0,1,1-2.55-2.55A2.54,2.54,0,0,1,47.65,89.22Z"/><circle class="cls-1" cx="52.18" cy="75.05" r="2.55"/><path class="cls-1" d="M46.14,62.74a2.56,2.56,0,0,0,2,4.09"/><path class="cls-1" d="M66.07,75.05a2.55,2.55,0,1,1-2.55-2.56A2.55,2.55,0,0,1,66.07,75.05Z"/><path class="cls-1" d="M67.1,61.72a2.56,2.56,0,0,1,0,5.11H48.18"/><path class="cls-1" d="M47.89,32a2.55,2.55,0,0,0,4.64,2.1"/></svg>