<?xml version="1.0" encoding="utf-8"?>
<!-- Generator: Adobe Illustrator 24.0.1, SVG Export Plug-In . SVG Version: 6.00 Build 0)  -->
<svg version="1.1" id="Layer_1" xmlns="http://www.w3.org/2000/svg" xmlns:xlink="http://www.w3.org/1999/xlink" x="0px" y="0px"
	 viewBox="0 0 113.39 113.39" style="enable-background:new 0 0 113.39 113.39;" xml:space="preserve">
<style type="text/css">
	.st0{fill:none;stroke:#000000;stroke-width:0.5;}
	.st1{fill:none;stroke:#000000;}
	.st2{fill:none;stroke:#000000;stroke-width:2;}
	.st3{fill:none;stroke:#000000;stroke-width:0.5;stroke-linecap:round;stroke-linejoin:round;}
</style>
<g>
	<g>
		<path class="st0" d="M90.71,17.01H22.68c-3.13,0-5.67,2.54-5.67,5.67h0v68.03h0c0,3.13,2.54,5.67,5.67,5.67h68.03
			c3.13,0,5.67-2.54,5.67-5.67V22.68C96.38,19.54,93.84,17.01,90.71,17.01z"/>
		<g>
			<path class="st0" d="M14.17,22.68v68.03h0c0,4.7,3.81,8.5,8.5,8.5h68.03c4.7,0,8.5-3.81,8.5-8.5V22.68c0-4.7-3.81-8.5-8.5-8.5
				H22.68C17.98,14.17,14.17,17.98,14.17,22.68"/>
		</g>
		<g>
			<path class="st2" d="M90.71,104.88c7.83,0,14.17-6.35,14.17-14.17V22.68c0-7.83-6.35-14.17-14.17-14.17H22.68
				C14.85,8.5,8.5,14.85,8.5,22.68v0v68.03v0c0,7.83,6.35,14.17,14.17,14.17H90.71z"/>
		</g>
	</g>
	<g>
		<polygon class="st0" points="71.58,73.99 41.81,73.99 56.69,42.09 		"/>
	</g>
	<path class="st0" d="M74.69,77.95L74.69,77.95H38.7c-0.68,0-1.31-0.35-1.67-0.92c-0.36-0.5-0.41-1.29-0.12-1.9L54.9,36.58
		c0.38-0.7,1.03-1.14,1.79-1.14c0.77,0,1.42,0.45,1.79,1.14l17.99,38.56c0.29,0.61,0.24,1.4-0.12,1.9
		C75.99,77.61,75.36,77.95,74.69,77.95z"/>
</g>
</svg>
