<?xml version="1.0" encoding="utf-8"?>
<!-- Generator: Adobe Illustrator 24.0.1, SVG Export Plug-In . SVG Version: 6.00 Build 0)  -->
<svg version="1.1" id="Layer_1" xmlns="http://www.w3.org/2000/svg" xmlns:xlink="http://www.w3.org/1999/xlink" x="0px" y="0px"
	 viewBox="0 0 113.39 113.39" style="enable-background:new 0 0 113.39 113.39;" xml:space="preserve">
<style type="text/css">
	.st0{fill:none;stroke:#000000;stroke-width:0.5;}
	.st1{fill:none;stroke:#000000;}
	.st2{fill:none;stroke:#000000;stroke-width:2;}
	.st3{fill:none;stroke:#000000;stroke-width:0.5;stroke-linecap:round;stroke-linejoin:round;}
</style>
<g>
	<g>
		<path class="st0" d="M22.68,96.38h68.03c3.13,0,5.67-2.54,5.67-5.67h0V22.68h0c0-3.13-2.54-5.67-5.67-5.67H22.68
			c-3.13,0-5.67,2.54-5.67,5.67v68.03C17.01,93.84,19.54,96.38,22.68,96.38z"/>
		<g>
			<path class="st0" d="M99.21,90.71V22.68h0c0-4.7-3.81-8.5-8.5-8.5H22.68c-4.7,0-8.5,3.81-8.5,8.5v68.03c0,4.7,3.81,8.5,8.5,8.5
				h68.03C95.41,99.21,99.21,95.41,99.21,90.71"/>
		</g>
		<g>
			<path class="st2" d="M22.68,8.5C14.85,8.5,8.5,14.85,8.5,22.68v68.03c0,7.83,6.35,14.17,14.17,14.17h68.03
				c7.83,0,14.17-6.35,14.17-14.17v0V22.68v0c0-7.83-6.35-14.17-14.17-14.17H22.68z"/>
		</g>
	</g>
	<g>
		<polygon class="st0" points="41.81,39.39 71.58,39.39 56.69,71.29 		"/>
	</g>
	<path class="st0" d="M38.7,35.43L38.7,35.43h35.99c0.68,0,1.31,0.35,1.67,0.92c0.36,0.5,0.41,1.29,0.12,1.9L58.49,76.81
		c-0.38,0.7-1.03,1.14-1.79,1.14c-0.77,0-1.42-0.45-1.79-1.14L36.9,38.25c-0.29-0.61-0.24-1.4,0.12-1.9
		C37.39,35.78,38.02,35.43,38.7,35.43z"/>
</g>
</svg>
