<?xml version="1.0" encoding="utf-8"?>
<!-- Generator: Adobe Illustrator 24.0.1, SVG Export Plug-In . SVG Version: 6.00 Build 0)  -->
<svg version="1.1" id="Layer_1" xmlns="http://www.w3.org/2000/svg" xmlns:xlink="http://www.w3.org/1999/xlink" x="0px" y="0px"
	 viewBox="0 0 116.47 51.14" style="enable-background:new 0 0 116.47 51.14;" xml:space="preserve">
<style type="text/css">
	.st0{fill:none;stroke:#000000;stroke-width:0.5;}
	.st1{fill:none;stroke:#000000;}
	.st2{fill:none;stroke:#000000;stroke-width:2;}
	.st3{fill:none;stroke:#000000;stroke-width:0.5;stroke-linecap:round;stroke-linejoin:round;}
</style>
<g>
	<path class="st1" d="M17.11,14.13v19h11.83v4.01H12.77V14.13H17.11z"/>
	<path class="st1" d="M53.93,25.77c-0.07,5.95-3.71,11.9-11.8,11.9c-8.09,0-11.83-5.82-11.83-11.87c0-6.05,3.88-12.13,11.83-12.13
		C50.05,13.67,54,19.75,53.93,25.77z M34.57,25.87c0.1,3.78,2.14,7.82,7.56,7.82s7.46-4.08,7.53-7.86c0.07-3.88-2.1-8.22-7.53-8.22
		S34.47,21.99,34.57,25.87z"/>
	<path class="st1" d="M74.21,19.75c-1.55-1.48-3.85-2.3-5.85-2.3c-4.93,0-7.92,3.75-7.92,8.48c0,3.78,2.2,7.69,7.92,7.69
		c1.81,0,3.39-0.39,5.19-1.84v-4.08h-5.88v-3.88h9.86v9.7c-2.27,2.6-5.13,4.14-9.17,4.14c-8.65,0-12.16-5.69-12.16-11.74
		c0-6.48,4.04-12.46,12.16-12.46c3.09,0,6.18,1.18,8.55,3.52L74.21,19.75z"/>
	<path class="st1" d="M103.7,25.77c-0.07,5.95-3.71,11.9-11.8,11.9c-8.09,0-11.83-5.82-11.83-11.87c0-6.05,3.88-12.13,11.83-12.13
		C99.82,13.67,103.77,19.75,103.7,25.77z M84.34,25.87c0.1,3.78,2.14,7.82,7.56,7.82s7.46-4.08,7.53-7.86
		c0.07-3.88-2.1-8.22-7.53-8.22S84.24,21.99,84.34,25.87z"/>
</g>
</svg>
