<?xml version="1.0" encoding="utf-8"?>
<!-- Generator: Adobe Illustrator 24.0.1, SVG Export Plug-In . SVG Version: 6.00 Build 0)  -->
<svg version="1.1" id="Layer_1" xmlns="http://www.w3.org/2000/svg" xmlns:xlink="http://www.w3.org/1999/xlink" x="0px" y="0px"
	 viewBox="0 0 162.71 162.71" style="enable-background:new 0 0 162.71 162.71;" xml:space="preserve">
<style type="text/css">
	.st0{fill:none;stroke:#000000;stroke-width:0.5;}
	.st1{fill:none;stroke:#000000;}
	.st2{fill:none;stroke:#000000;stroke-width:2;}
	.st3{fill:none;stroke:#000000;stroke-width:0.5;stroke-linecap:round;stroke-linejoin:round;}
</style>
<g>
	<g>
		<g>
			<polygon class="st0" points="78.95,113.36 78.95,113.36 78.95,116.76 80.49,116.76 80.49,130.97 83.04,130.97 83.04,116.76 
				84.35,116.76 84.35,113.36 104.19,113.36 100.34,109.54 60.09,109.54 60.09,69.66 56.31,65.87 56.31,113.36 			"/>
		</g>
	</g>
	<g>
		<g>
			<polygon class="st0" points="84.35,49.86 84.35,49.86 84.35,46.11 83.04,46.11 83.04,31.89 80.49,31.89 80.49,46.11 78.95,46.11 
				78.95,49.86 59.18,49.86 62.93,53.68 103.19,53.68 103.19,93.52 107.02,97.31 107.02,49.86 			"/>
		</g>
	</g>
	<g>
		<g>
			<path class="st0" d="M91.97,104.89L91.97,104.89l0.02-3.69l-3.3-3.21l0.02,6.91c0,0.25,0.13,0.47,0.34,0.6
				c0.38,0.22,0.82,0.34,1.26,0.34c0.45,0,0.96-0.12,1.29-0.34C91.82,105.37,91.96,105.14,91.97,104.89z"/>
		</g>
	</g>
	<g>
		<g>
			<path class="st0" d="M95.89,105.13L95.89,105.13l-3.32-3.29v3.05c0,0.23,0.12,0.44,0.31,0.56c0.36,0.22,0.77,0.35,1.22,0.37
				c0.43,0.02,0.88-0.05,1.3-0.21C95.63,105.52,95.81,105.35,95.89,105.13L95.89,105.13z"/>
		</g>
	</g>
	<g>
		<g>
			<path class="st0" d="M67.25,85.43L67.25,85.43l0.02-8.7l-4.01-3.88v12.58c0,0.17,0.05,0.34,0.15,0.48
				c0.12,0.17,0.28,0.31,0.47,0.41c0.18,0.09,0.37,0.16,0.57,0.19c0.26,0.05,0.53,0.07,0.79,0.07c0.52-0.02,1.1-0.17,1.59-0.44
				C67.08,85.99,67.24,85.72,67.25,85.43z"/>
		</g>
	</g>
	<g>
		<g>
			<path class="st0" d="M72.34,105.18L72.34,105.18l0.12-21.14c0.05-0.1,0.12-0.2,0.2-0.28c0.04-0.04,0.09-0.05,0.15-0.05
				c0.05,0.01,0.1,0.04,0.13,0.07c0.08,0.09,0.14,0.18,0.18,0.39v20.99c0,0.32,0.17,0.61,0.45,0.77c0.53,0.3,1.13,0.45,1.74,0.45
				c0.61,0,1.21-0.16,1.77-0.45c0.25-0.16,0.42-0.45,0.42-0.77V87.02l-9.5-9.54l0.07,27.7c0,0.32,0.17,0.61,0.51,0.78
				c0.43,0.29,1,0.44,1.58,0.44c0.59,0,1.25-0.15,1.68-0.44C72.14,105.8,72.32,105.5,72.34,105.18z"/>
		</g>
	</g>
	<g>
		<g>
			<path class="st0" d="M107.38,86.78L107.38,86.78c0.6,0.24,1.18,0.24,1.75,0.46c0.52,0.18,1.01,0.42,1.48,0.69
				c0.51,0.24,0.78,0.5,1.14,0.79c0.43,0.35,0.83,0.72,1.2,1.13c0.23,0.23,0.45,0.48,0.66,0.74c0.34,0.53,0.87,1.07,1.29,1.61
				c0.43,0.48,0.87,1.11,1.32,1.66c0.24,0.29,0.57,0.58,0.74,0.85c1.81,1.45,4.06,2.23,6.38,2.22c2.1-0.01,4.12-0.82,5.64-2.26
				c-0.24-0.1-0.47-0.19-0.85-0.27c-0.21-0.12-0.56-0.23-0.91-0.33c-0.48-0.14-0.96-0.28-1.43-0.43c-0.1-0.03-0.2-0.06-0.31-0.1
				c-0.69-0.24-1.36-0.54-2-0.85c-0.66-0.43-1.28-0.87-1.85-1.36c-0.11-0.1-0.22-0.21-0.32-0.32c-0.2-0.22-0.4-0.45-0.59-0.67
				l-1.1-1.32c-0.52-0.6-1.06-1.16-1.63-1.7c-0.4-0.29-0.82-0.71-1.2-1.02c-0.69-0.43-1.38-0.77-2.1-1.01
				c-0.74-0.21-1.3-0.33-1.98-0.33c-0.81-0.01-1.59,0.12-2.4,0.38C109.28,85.69,108.28,86.18,107.38,86.78z"/>
		</g>
	</g>
	<g>
		<g>
			<path class="st0" d="M109.92,94.17L109.92,94.17c0.1,1.61,0.54,3.18,1.19,4.61c0.83,1.51,1.88,2.85,3.15,3.95
				c1.31,1.14,2.82,2.02,4.45,2.62c1.78,0.65,3.73,0.99,5.54,1.01l2.89-7.72c-0.34,0-0.68,0-1.02,0.01
				c-1.09,0.03-2.18,0.07-3.27,0.12c-0.73,0.03-1.46,0.03-2.19,0.01c-0.46-0.01-0.92-0.05-1.37-0.12c-0.62-0.09-1.24-0.31-1.84-0.31
				c-0.69-0.34-1.42-0.61-2.11-0.93c-0.76-0.35-1.41-0.75-2.23-1.18C112.04,95.53,110.97,94.9,109.92,94.17z"/>
		</g>
	</g>
	<g>
		<g>
			<path class="st0" d="M110.68,69.79L110.68,69.79c-0.05,1.35,0.03,2.7,0.23,4.03c0.21,1.18,0.48,2.33,0.89,3.44
				c0.41,1.09,0.93,2.13,1.56,3.11c0.59,0.99,1.41,1.94,2.25,2.79c0.84,0.84,1.75,1.6,2.73,2.27c1.28,0.78,2.35,1.59,3.61,2.07
				c1.24,0.59,2.53,1.09,3.84,1.51c1.59,0.51,3.2,0.85,4.84,1.26v-8.71c-1.91-0.05-3.82-0.21-5.66-0.86
				c-1.77-0.5-3.47-1.24-5.05-2.19c-1.55-0.93-3.13-2.03-4.31-3.27C113.95,73.56,112.17,71.74,110.68,69.79z"/>
		</g>
	</g>
	<g>
		<g>
			<path class="st0" d="M129.08,73.64L129.08,73.64l-0.29-8.35h0c-0.66-0.33-1.22-0.7-1.81-1.11c-0.44-0.3-0.85-0.64-1.24-1.01
				c-0.45-0.33-0.68-0.7-0.98-1.08c-0.32-0.42-0.61-0.86-0.87-1.33c-0.19-0.35-0.37-0.7-0.54-1.06c-0.3-0.67-0.58-1.34-0.89-2.02
				c-0.4-1.11-0.84-2.21-1.28-3.32c-0.11-0.27-0.22-0.54-0.34-0.81c-0.66,1.88-0.98,3.85-0.96,5.84c0.02,1.88,0.38,3.74,1.07,5.49
				c0.71,1.79,1.75,3.44,3.06,4.86C125.47,71.32,127.18,72.63,129.08,73.64z"/>
		</g>
	</g>
	<g>
		<g>
			<path class="st0" d="M114.58,70.16L114.58,70.16c0.64,1.05,1.35,2.06,2.2,3.02c0.48,0.72,1.11,1.39,1.79,2.02
				c0.59,0.48,1.23,1.03,1.91,1.46c0.58,0.37,1.2,0.67,1.97,0.91c0.41,0.2,0.96,0.35,1.52,0.45c0.63,0.11,1.32,0.17,1.89,0.18
				c0.35,0.01,0.71,0,1.06-0.02c0.74-0.05,1.48-0.11,2.22-0.18c-1.02-0.78-2.2-1.57-3.28-2.31c-0.35-0.34-0.58-0.62-1-0.92
				c-0.51-0.47-0.97-0.99-1.39-1.54c-0.64-0.84-1.24-1.71-1.79-2.62c-0.4-0.59-0.78-1.34-1.13-2.02c-0.59-1.14-1.15-2.29-1.7-3.46
				c-0.5-1.08-1.03-2.16-1.58-3.22c-0.22-0.39-0.5-0.84-0.73-1.25c-0.43-0.66-0.94-1.27-1.52-1.81c-0.45-0.42-1.08-0.77-1.53-1.04
				c-0.65-0.31-1.34-0.51-2.05-0.6c-1-0.12-2.01-0.13-3.01-0.03c0.44,0.27,0.85,0.59,1.22,0.96c0.38,0.39,0.72,0.81,1.01,1.28
				c0.24,0.38,0.44,0.77,0.62,1.17c0.26,0.61,0.5,1.22,0.7,1.86c0.07,0.21,0.13,0.42,0.2,0.63c0.11,0.37,0.22,0.75,0.33,1.26
				c0.13,0.33,0.27,0.79,0.4,1.25c0.05,0.16,0.1,0.33,0.15,0.49c0.24,0.78,0.5,1.56,0.87,2.32
				C113.95,69.01,114.32,69.59,114.58,70.16z"/>
		</g>
	</g>
	<g>
		<g>
			<path class="st0" d="M95.94,73.82L95.94,73.82h-6.73c-0.77,0.08-1.65,0.33-2.39,0.74c-0.57,0.32-1.04,0.79-1.22,1.37l2.49,2.59
				l0.16,0.19l0.19,0.22l0.21,0.16l7.29,7.23v-7.81l0.56-0.15l-0.02,8.5l2.82,2.8v-12.4c0-0.49-0.1-0.98-0.29-1.58
				c-0.17-0.25-0.42-0.6-0.74-0.87c-0.26-0.22-0.55-0.4-0.86-0.53C96.94,74.08,96.44,73.93,95.94,73.82L95.94,73.82z"/>
		</g>
	</g>
	<g>
		<g>
			<path class="st0" d="M92.38,67.54L92.38,67.54c-0.78,0-1.54,0.29-2.11,0.83c-0.53,0.49-0.83,1.18-0.83,1.9
				c0,0.72,0.3,1.41,0.83,1.9C90.84,72.7,91.6,73,92.38,73c0.78,0,1.54-0.3,2.11-0.83c0.53-0.49,0.83-1.18,0.83-1.9
				c0-0.72-0.3-1.41-0.83-1.9C93.92,67.83,93.16,67.54,92.38,67.54z"/>
		</g>
	</g>
	<g>
		<g>
			<path class="st0" d="M77.52,64.66L77.52,64.66H74.1l7.8,7.74v-3.26c0-0.64-0.13-1.28-0.39-1.96c-0.22-0.42-0.55-0.87-0.97-1.22
				c-0.34-0.29-0.62-0.52-1.13-0.69C78.81,65,78.17,64.8,77.52,64.66z"/>
		</g>
	</g>
	<g>
		<g>
			<path class="st0" d="M76.71,60.02L76.71,60.02v-0.14c-0.02-0.94-0.43-1.84-1.14-2.46c-0.76-0.68-1.76-1.05-2.78-1.03
				c-0.95,0.02-1.87,0.37-2.58,1c-0.66,0.58-1.08,1.29-1.15,2.28l3.87,3.84c1-0.01,1.96-0.4,2.69-1.07
				C76.3,61.81,76.69,60.94,76.71,60.02z"/>
		</g>
	</g>
	<g>
		<g>
			<path class="st1" d="M116.04,124.11c-4.93,3.95-10.37,7.05-16.27,9.14c-5.93,2.1-12.16,3.17-18.43,3.17
				c-14.6,0-28.61-5.8-38.94-16.13c-10.33-10.33-16.13-24.33-16.13-38.94c0-6.2,1.05-12.35,3.1-18.2c2.05-5.84,5.2-11.3,8.93-16.14
				L116.04,124.11z"/>
		</g>
	</g>
	<g>
		<g>
			<path class="st1" d="M81.35,26.29L81.35,26.29c14.61,0,28.61,5.8,38.94,16.13c10.33,10.33,16.13,24.33,16.13,38.93
				c0,6.19-1.04,12.33-3.08,18.17c-2.03,5.83-5.03,11.27-8.88,16.1L46.75,38.53C56.54,30.61,68.76,26.29,81.35,26.29z"/>
		</g>
	</g>
	<g>
		<g>
			<path class="st1" d="M81.35,10.49L81.35,10.49c-16.81,0-33.06,5.98-45.87,17.01c-0.13,0-0.25,0-0.38,0.19
				c-0.11,0.1-0.22,0.19-0.33,0.29c-0.19,0.09-0.19,0.18-0.19,0.27c-0.22,0.1-0.33,0.2-0.45,0.3c-0.11,0.1-0.23,0.21-0.34,0.31
				c-0.09,0.08-0.18,0.16-0.27,0.24c-0.12,0.11-0.23,0.22-0.35,0.32c-0.11,0.1-0.22,0.21-0.33,0.31c-0.1,0.1-0.21,0.19-0.31,0.29
				c-0.13,0.12-0.25,0.32-0.38,0.32c-0.2,0.23-0.41,0.43-0.59,0.62c-0.16,0.16-0.32,0.31-0.48,0.47c-0.22,0.22-0.44,0.45-0.66,0.67
				c-0.12,0.12-0.24,0.25-0.36,0.38c-0.12,0.12-0.24,0.25-0.35,0.38c-0.17,0.31-0.35,0.31-0.52,0.56c-0.28,0.32-0.58,0.63-0.86,0.95
				c-0.1,0.11-0.2,0.23-0.3,0.34c-0.09,0.1-0.17,0.2-0.26,0.3c-0.12,0.14-0.25,0.29-0.37,0.44c-0.11,0.12-0.21,0.25-0.32,0.37
				c-0.01,0.01-0.02,0.02-0.02,0.03C16.35,48.6,10.49,64.71,10.49,81.35c0,18.8,7.47,36.85,20.76,50.11
				c13.29,13.29,31.31,20.76,50.11,20.76c8.35,0,16.64-1.48,24.48-4.37c7.84-2.89,15.11-7.15,21.47-12.64h0.01c0.07,0,0.13,0,0.19,0
				c0.03,0,0.07-0.14,0.1-0.18c0.01-0.01,0.01-0.01,0.02-0.02c0.03-0.03,0.07-0.06,0.1-0.09l0.26-0.22
				c0.15-0.06,0.15-0.11,0.15-0.17c0-0.08,0.22-0.16,0.31-0.24c0.11-0.09,0.21-0.19,0.32-0.28c0.08-0.07,0.16-0.14,0.24-0.22
				l0.16-0.14c0.05-0.05,0.1-0.09,0.15-0.14c0.2-0.18,0.39-0.36,0.58-0.54c0.09-0.08,0.17-0.16,0.26-0.24
				c0.13-0.13,0.27-0.36,0.4-0.36h0c0.03,0,0.07,0,0.1,0l0.31-0.4c0-0.04,0-0.08,0-0.12c0.22-0.13,0.35-0.27,0.49-0.41
				c0.04-0.04,0.07-0.07,0.11-0.11c0.04-0.05,0.09-0.09,0.13-0.13c0.14-0.14,0.27-0.28,0.41-0.42c0.18-0.19,0.36-0.37,0.54-0.56
				l0.12-0.12c0.04-0.04,0.08-0.09,0.12-0.13c0.08-0.08,0.16-0.17,0.24-0.25c0.1-0.2,0.21-0.2,0.31-0.2
				c0.12-0.27,0.36-0.41,0.36-0.55c0-0.11,0.21-0.22,0.31-0.34c0.22-0.24,0.43-0.49,0.65-0.73l0.41-0.48
				c0.04-0.05,0.09-0.1,0.12-0.15c0.14-0.17,0.29-0.34,0.43-0.59c10.66-12.66,16.49-28.74,16.49-45.35
				c0-18.79-7.47-36.85-20.76-50.11C118.17,17.95,100.15,10.49,81.35,10.49z"/>
		</g>
	</g>
</g>
</svg>
