<?xml version="1.0" encoding="utf-8"?>
<!-- Generator: Adobe Illustrator 24.0.1, SVG Export Plug-In . SVG Version: 6.00 Build 0)  -->
<svg version="1.1" id="Layer_1" xmlns="http://www.w3.org/2000/svg" xmlns:xlink="http://www.w3.org/1999/xlink" x="0px" y="0px"
	 viewBox="0 0 151.55 151.55" style="enable-background:new 0 0 151.55 151.55;" xml:space="preserve">
<style type="text/css">
	.st0{fill:none;stroke:#000000;stroke-width:0.5;}
	.st1{fill:none;stroke:#000000;}
	.st2{fill:none;stroke:#000000;stroke-width:2;}
	.st3{fill:none;stroke:#000000;stroke-width:0.5;stroke-linecap:round;stroke-linejoin:round;}
</style>
<g>
	<g>
		<g>
			<polygon class="st0" points="37.46,21.74 34.55,21.74 34.55,29.32 33.17,29.32 33.17,13.6 36.29,13.6 37.14,13.62 37.9,13.67 
				38.56,13.77 39.13,13.89 39.6,14.06 39.97,14.26 40.36,14.44 40.68,15 40.93,15.51 41.11,16.11 41.21,16.8 41.25,17.59 
				41.19,18.53 41,19.33 40.68,20.11 40.24,20.52 39.67,20.9 38.97,21.14 39.4,21.24 39.76,21.37 40.08,21.54 40.35,21.74 
				40.57,21.98 40.75,22.24 40.86,22.49 40.95,22.77 41.02,23.11 41.07,23.49 41.1,23.92 41.11,24.39 41.11,25.4 41.11,26 
				41.13,26.61 41.17,27.26 41.22,27.92 41.29,28.61 41.37,29.32 39.86,29.32 39.83,29.01 39.8,28.61 39.79,28.26 39.77,27.82 
				39.77,27.33 39.76,26.8 39.76,26.25 39.76,25.78 39.75,25.32 39.73,24.92 39.72,24.58 39.7,24.28 39.65,23.86 39.59,23.48 
				39.4,23.14 39.4,22.94 39.4,22.61 39.18,22.41 39,22.21 38.77,22.04 38.5,21.91 38.2,21.82 37.85,21.76 			"/>
		</g>
	</g>
	<g>
		<g>
			<polygon class="st0" points="34.55,20.64 36.21,20.64 36.81,20.62 37.35,20.57 37.83,20.48 38.25,20.36 38.61,20.11 38.91,20.11 
				39.19,19.74 39.4,19.41 39.6,19 39.73,18.54 39.8,18.02 39.83,17.43 39.8,16.91 39.73,16.45 39.61,16.05 39.4,15.72 39.22,15.44 
				38.95,15.22 38.69,15.08 38.37,14.96 37.99,14.87 37.55,14.81 37.05,14.77 36.56,14.76 34.55,14.76 			"/>
		</g>
	</g>
	<g>
		<g>
			<polygon class="st0" points="49.59,18.36 50.91,18.36 50.91,27.81 50.91,27.93 50.92,28.11 50.93,28.34 50.95,28.61 50.98,28.94 
				51.01,29.32 49.7,29.32 49.59,28.03 49.23,28.61 48.82,28.89 48.36,29.2 47.9,29.41 47.31,29.54 46.71,29.58 46.27,29.56 
				45.87,29.49 45.5,29.37 45.06,29.21 44.86,29 44.59,28.61 44.37,28.45 44.2,28.13 44.06,27.78 43.96,27.4 43.9,26.98 
				43.88,26.53 43.88,18.36 45.06,18.36 45.06,26.02 45.25,26.75 45.41,27.36 45.67,27.82 46.03,28.16 46.5,28.36 47.08,28.43 
				47.9,28.32 48.47,28.02 48.96,27.51 49.31,26.79 49.52,25.78 49.59,24.74 			"/>
		</g>
	</g>
	<g>
		<g>
			<polygon class="st0" points="53.96,29.32 53.96,19.47 52.19,19.47 52.19,18.36 53.96,18.36 53.96,16.06 53.98,15.52 54.06,15.04 
				54.19,14.63 54.37,14.28 54.61,14 54.89,13.79 55.16,13.66 55.5,13.55 55.9,13.47 56.4,13.41 56.9,13.38 57.5,13.36 57.5,14.44 
				57.18,14.44 56.79,14.44 56.4,14.44 56.16,14.62 55.92,14.71 55.73,14.83 55.59,14.97 55.5,15.13 55.43,15.33 55.37,15.59 
				55.33,15.9 55.31,16.26 55.3,16.67 55.3,18.36 57.5,18.36 57.5,19.47 55.3,19.47 55.3,29.32 			"/>
		</g>
	</g>
	<g>
		<g>
			<polygon class="st0" points="59.24,29.32 59.24,19.47 57.55,19.47 57.55,18.36 59.24,18.36 59.24,16.06 59.24,15.52 59.42,15.04 
				59.54,14.63 59.73,14.28 59.96,14 60.25,13.79 60.52,13.66 60.85,13.55 61.25,13.47 61.72,13.41 62.25,13.38 62.85,13.36 
				62.85,14.44 62.53,14.44 62.07,14.44 61.81,14.44 61.52,14.62 61.28,14.71 61.09,14.83 60.94,14.97 60.85,15.13 60.78,15.33 
				60.73,15.59 60.69,15.9 60.66,16.26 60.65,16.67 60.65,18.36 62.85,18.36 62.85,19.47 60.65,19.47 60.65,29.32 			"/>
		</g>
	</g>
	<g>
		<g>
			<polygon class="st0" points="64.17,29.32 64.17,19.8 64.16,19.58 64.14,19.35 64.12,19.09 64.08,18.82 64.04,18.53 63.98,18.22 
				65.36,18.22 65.51,19.78 65.87,19.27 66.27,18.85 66.71,18.52 67.19,18.29 67.74,18.15 68.26,18.1 68.52,18.1 68.52,19.24 
				68.23,19.24 67.74,19.27 67.4,19.34 67.04,19.47 66.71,19.64 66.42,19.87 66.16,20.11 65.96,20.42 65.8,20.74 65.67,21.09 
				65.58,21.47 65.53,21.89 65.51,22.34 65.51,29.32 			"/>
		</g>
	</g>
	<g>
		<g>
			<polygon class="st0" points="71.07,22.94 76.04,22.94 76.04,22.48 75.98,21.48 75.77,20.67 75.44,20.11 74.96,19.58 74.35,19.31 
				73.61,19.22 72.83,19.31 72.2,19.6 71.71,20.11 71.35,20.73 71.14,21.57 71.07,22.61 			"/>
		</g>
	</g>
	<g>
		<g>
			<polygon class="st0" points="77.39,26.01 77.23,27.1 76.88,27.99 76.24,28.61 75.64,29.19 74.74,29.48 73.65,29.58 72.85,29.53 
				72.15,29.38 71.55,29.12 71.03,28.61 70.57,28.29 70.28,27.72 70.11,27.26 69.98,26.71 69.87,26.06 69.79,25.32 69.75,24.48 
				69.73,23.55 69.73,22.94 69.74,22.63 69.76,22.24 69.78,21.89 69.8,21.58 69.84,21.31 70.08,20.33 70.57,19.53 71.05,18.9 
				71.76,18.46 72.63,18.19 73.65,18.1 74.25,18.13 74.8,18.23 75.3,18.4 75.75,18.63 76.24,18.93 76.49,19.3 76.76,19.69 
				76.99,20.11 77.16,20.61 77.29,21.13 77.36,21.7 77.39,22.32 77.39,24.06 71.07,24.06 71.07,25.01 71.14,26.06 71.35,26.93 
				71.69,27.6 72.18,28.08 72.8,28.37 73.56,28.47 74.29,28.4 74.9,28.19 75.36,27.85 75.7,27.37 75.9,26.76 75.97,26.01 			"/>
		</g>
	</g>
	<g>
		<g>
			<rect x="79.6" y="13.6" class="st0" width="1.54" height="1.68"/>
		</g>
	</g>
	<g>
		<g>
			<rect x="79.66" y="18.36" class="st0" width="1.42" height="10.96"/>
		</g>
	</g>
	<g>
		<g>
			<polygon class="st0" points="89.48,23.52 89.41,22.21 89.21,21.13 88.87,20.29 88.4,19.7 87.79,19.34 87.05,19.22 86.56,19.26 
				86.13,19.38 85.75,19.59 85.44,19.88 85.18,20.11 84.98,20.7 84.74,21.03 84.74,21.41 84.74,21.85 84.74,22.35 84.74,22.94 
				84.74,23.52 84.74,24.16 84.74,24.74 84.74,25.26 84.74,25.78 84.74,26.09 84.94,26.41 85.14,26.9 85.39,27.29 85.71,27.6 
				86.08,27.82 86.5,27.95 86.99,27.99 87.58,27.95 87.93,27.82 88.31,27.6 88.64,27.3 88.92,26.91 89.13,26.43 89.24,26.09 
				89.32,25.78 89.39,25.23 89.44,24.72 89.47,24.15 			"/>
		</g>
	</g>
	<g>
		<g>
			<polygon class="st0" points="90.9,18.19 90.87,18.4 90.85,18.66 90.84,18.96 90.83,19.31 90.82,19.72 90.82,20.11 90.82,29.02 
				90.8,29.76 90.75,30.42 90.67,30.99 90.41,31.45 90.41,31.86 90.21,32.16 89.86,32.56 89.43,32.89 88.93,33.14 88.36,33.32 
				87.73,33.43 87.02,33.46 86,33.37 85.17,33.11 84.51,32.66 84.03,32.03 83.73,31.23 83.61,30.24 85.06,30.24 85.11,30.89 
				85.29,31.45 85.57,31.84 85.98,32.14 86.5,32.31 87.13,32.37 87.58,32.35 87.94,32.28 88.27,32.17 88.57,32.01 88.81,31.81 
				89.01,31.45 89.16,31.45 89.27,31.03 89.36,30.7 89.42,30.34 89.46,29.93 89.48,29.48 89.48,27.6 89.18,28.04 88.82,28.41 
				88.41,28.61 87.94,28.9 87.42,29.02 86.84,29.06 86.16,29.01 85.56,28.85 85.03,28.61 84.57,28.24 84.19,27.78 83.88,27.22 
				83.72,26.77 83.58,26.25 83.47,25.78 83.39,25 83.35,24.27 83.33,23.48 83.35,22.72 83.4,22.02 83.48,21.38 83.59,20.81 
				83.74,20.3 83.92,19.85 84.24,19.31 84.74,18.88 85.07,18.54 85.59,18.29 86.18,18.15 86.84,18.1 87.39,18.14 87.91,18.27 
				88.38,18.48 88.81,18.78 89.2,19.16 89.55,19.63 89.63,18.19 			"/>
		</g>
	</g>
	<g>
		<g>
			<polygon class="st0" points="98.76,23.56 98.05,23.58 97.41,23.61 96.85,23.65 96.37,23.71 96.08,23.79 95.63,23.87 95.14,24.09 
				94.74,24.37 94.43,24.72 94.2,25.13 94.07,25.61 94.03,26.16 94.04,26.48 94.08,26.77 94.14,27.04 94.23,27.29 94.34,27.51 
				94.47,27.72 94.66,27.91 94.86,28.07 95.09,28.2 95.35,28.29 95.62,28.34 95.92,28.36 96.8,28.26 97.51,27.96 98.07,27.47 
				98.46,26.78 98.69,25.78 98.76,24.8 			"/>
		</g>
	</g>
	<g>
		<g>
			<polygon class="st0" points="98.92,29.32 98.92,27.82 98.44,28.3 97.96,28.61 97.44,29.01 96.89,29.22 96.3,29.36 95.67,29.4 
				95.22,29.37 94.8,29.3 94.42,29.17 94.07,28.98 93.75,28.61 93.47,28.47 93.25,28.15 93.06,27.81 92.92,27.44 92.82,27.04 
				92.76,26.62 92.74,26.16 92.87,25.13 93.25,24.27 93.95,23.59 94.89,22.94 96.08,22.76 97.59,22.61 98.76,22.56 98.76,21.36 
				98.75,20.98 98.7,20.64 98.62,20.34 98.52,20.11 98.38,19.85 98.21,19.67 98.01,19.51 97.78,19.38 97.5,19.28 97.19,19.21 
				96.84,19.17 96.46,19.15 95.86,19.2 95.36,19.36 94.97,19.62 94.68,20.11 94.51,20.44 94.43,21.01 93.25,21.02 93.25,20.11 
				93.5,19.4 94,18.83 94.7,18.42 95.59,18.18 96.68,18.1 97.73,18.19 98.58,18.45 99.25,18.9 99.72,19.52 100.01,20.32 100.1,21.3 
				100.1,27.32 100.11,27.64 100.12,27.96 100.13,28.29 100.16,28.61 100.19,28.97 100.22,29.32 			"/>
		</g>
	</g>
	<g>
		<g>
			<polygon class="st0" points="103.84,29.32 102.59,29.32 102.62,29.03 102.65,28.61 102.67,28.41 102.68,28.08 102.69,27.73 
				102.7,27.36 102.7,13.6 103.96,13.6 103.96,19.68 104.32,19.22 104.58,18.84 105.15,18.54 105.62,18.33 106.13,18.21 
				106.67,18.17 107.42,18.22 107.96,18.38 108.49,18.64 108.95,19.01 109.33,19.49 109.64,20.11 109.81,20.52 109.94,21.05 
				110.05,21.64 110.25,22.31 110.25,22.94 110.25,23.87 110.25,24.68 110.25,25.42 110.04,26.09 109.93,26.69 109.8,27.22 
				109.63,27.68 109.32,28.26 108.94,28.61 108.49,29.11 107.96,29.37 107.42,29.53 106.67,29.58 106.11,29.54 105.6,29.41 
				105.12,29.2 104.58,28.91 104.3,28.61 103.96,28.06 			"/>
		</g>
	</g>
	<g>
		<g>
			<polygon class="st0" points="106.51,28.44 106.98,28.4 107.42,28.27 107.75,28.06 108.06,27.77 108.31,27.4 108.51,26.94 
				108.61,26.6 108.69,26.22 108.76,25.78 108.8,25.3 108.83,24.76 108.84,24.18 108.83,23.46 108.81,22.94 108.78,22.26 
				108.73,21.78 108.67,21.37 108.59,21.05 108.39,20.51 108.13,20.11 107.81,19.72 107.42,19.48 106.96,19.33 106.44,19.28 
				105.95,19.33 105.51,19.48 105.13,19.73 104.8,20.11 104.58,20.53 104.33,21.07 104.24,21.44 104.17,21.86 104.11,22.34 
				104.07,22.94 104.05,23.49 104.04,24.15 104.11,25.46 104.31,26.53 104.58,27.37 105.14,27.96 105.75,28.32 			"/>
		</g>
	</g>
	<g>
		<g>
			<polygon class="st0" points="113.48,22.94 118.45,22.94 118.45,22.48 118.39,21.48 118.18,20.67 117.85,20.11 117.37,19.58 
				116.76,19.31 115.92,19.22 115.25,19.31 114.61,19.6 114.12,20.11 113.76,20.73 113.55,21.57 113.48,22.61 			"/>
		</g>
	</g>
	<g>
		<g>
			<polygon class="st0" points="119.8,26.01 119.64,27.1 119.29,27.99 118.75,28.61 118.05,29.19 117.15,29.48 115.92,29.58 
				115.27,29.53 114.56,29.38 113.96,29.12 113.44,28.61 113.09,28.29 112.69,27.72 112.52,27.26 112.39,26.71 112.28,26.06 
				112.2,25.32 112.16,24.48 112.14,23.55 112.14,22.94 112.15,22.63 112.17,22.24 112.19,21.89 112.21,21.58 112.25,21.31 
				112.49,20.33 112.9,19.53 113.46,18.9 114.17,18.46 115.04,18.19 115.92,18.1 116.66,18.13 117.21,18.23 117.71,18.4 
				118.16,18.63 118.56,18.93 118.9,19.3 119.18,19.69 119.4,20.11 119.57,20.61 119.7,21.13 119.77,21.7 119.8,22.32 119.8,24.06 
				113.48,24.06 113.48,25.01 113.55,26.06 113.76,26.93 114.1,27.6 114.59,28.08 115.21,28.37 115.92,28.47 116.7,28.4 
				117.31,28.19 117.77,27.85 118.11,27.37 118.31,26.76 118.38,26.01 			"/>
		</g>
	</g>
	<g>
		<g>
			<g>
				<g>
					<ellipse class="st0" cx="76.24" cy="68.28" rx="19.75" ry="19.84"/>
				</g>
			</g>
			<g>
				<g>
					<path class="st2" d="M62.07,124.01c0,7.83,6.35,14.17,14.17,14.17c7.83,0,14.17-6.35,14.17-14.17V87.77
						c8.44-6.14,11.97-17.01,8.74-26.94c-3.23-9.92-12.48-16.64-22.91-16.64c-10.44,0-19.69,6.72-22.91,16.64
						c-3.23,9.92,0.3,20.8,8.74,26.94V124.01z"/>
				</g>
			</g>
			<g>
				<g>
					<path class="st1" d="M72.69,48.85v9.63c2.13,2.21,3.39,5.2,3.34,8.31c-0.04,3.1-1.21,6.06-3.58,8.21l0.19,7.46h5.31l-0.16-5.47
						c4.51-5.86,4.74-13.89,0.56-20.04v-8.09"/>
				</g>
			</g>
		</g>
		<g>
			<g>
				<polygon class="st0" points="15.3,70.67 20.62,70.67 18.13,61.82 				"/>
			</g>
		</g>
		<g>
			<g>
				<polygon class="st0" points="13.66,76.08 12.22,76.08 17.26,60.35 18.84,60.35 23.8,76.08 22.23,76.08 20.97,71.89 14.89,71.89 
									"/>
			</g>
		</g>
		<g>
			<g>
				<polygon class="st0" points="31.05,65.12 32.3,65.12 32.3,74.56 32.3,74.69 32.3,74.87 32.3,75.09 32.3,75.37 32.3,75.7 
					32.47,76.08 31.15,76.08 31.05,74.79 30.69,75.26 30.28,75.65 29.82,75.95 29.32,76.17 28.77,76.3 28.17,76.34 27.73,76.32 
					27.32,76.25 26.95,76.13 26.64,75.97 26.32,75.75 26.05,75.5 25.83,75.21 25.65,74.89 25.52,74.54 25.42,74.15 25.36,73.74 
					25.34,73.29 25.34,65.12 26.64,65.12 26.64,72.77 26.64,73.51 26.86,74.11 27.12,74.58 27.49,74.91 27.96,75.12 28.54,75.18 
					29.3,75.08 29.93,74.77 30.42,74.26 30.77,73.54 30.98,72.62 31.05,71.5 				"/>
			</g>
		</g>
		<g>
			<g>
				<polygon class="st0" points="34.63,72.83 36.01,72.83 36.01,73.09 36.06,73.77 36.21,74.33 36.47,74.77 36.83,75.08 37.3,75.26 
					37.97,75.33 38.52,75.27 39.06,75.1 39.47,74.82 39.77,74.42 39.95,73.95 40.01,73.29 39.97,72.93 39.85,72.59 39.65,72.27 
					39.37,71.98 39.01,71.7 38.57,71.45 36.76,70.49 36.19,70.13 35.72,69.73 35.36,69.28 35.14,68.78 34.94,68.28 34.89,67.66 
					34.91,67.21 34.99,66.8 35.14,66.43 35.28,66.1 35.5,65.8 35.77,65.45 36.06,65.45 36.38,65.16 36.73,65.03 37.12,64.93 
					37.55,64.87 37.97,64.85 38.93,64.94 39.69,65.19 40.28,65.6 40.81,66.18 40.95,66.93 41.03,67.84 41.03,68.02 39.8,68.02 
					39.8,67.88 39.75,67.3 39.59,66.82 39.34,66.45 38.98,66.18 38.53,66.03 37.97,65.97 37.42,66.02 36.97,66.14 36.63,66.36 
					36.38,66.66 36.23,67.05 36.18,67.52 36.22,67.88 36.34,68.28 36.54,68.54 36.83,68.85 37.19,69.13 37.64,69.41 39.34,70.31 
					39.93,70.69 40.41,71.12 40.81,71.57 41.06,72.09 41.22,72.66 41.27,73.27 41.18,74.21 40.81,74.98 40.42,75.57 39.76,76 
					38.91,76.25 37.97,76.34 36.88,76.25 36.07,75.98 35.44,75.54 34.99,74.92 34.72,74.12 34.63,73.14 				"/>
			</g>
		</g>
		<g>
			<g>
				<polygon class="st0" points="126.19,76.08 119.13,76.08 119.13,60.35 126.19,60.35 126.19,61.58 120.55,61.58 120.55,67.39 
					125.85,67.39 125.85,68.55 120.55,68.55 120.55,74.76 126.19,74.76 				"/>
			</g>
		</g>
		<g>
			<g>
				<rect x="128.28" y="60.35" class="st0" width="1.54" height="1.68"/>
			</g>
		</g>
		<g>
			<g>
				<rect x="128.34" y="65.12" class="st0" width="1.42" height="10.96"/>
			</g>
		</g>
		<g>
			<g>
				<polygon class="st0" points="133.62,76.08 132.3,76.08 132.3,66.64 132.3,66.5 132.29,66.31 132.28,66.08 132.25,65.8 
					132.23,65.45 132.2,65.12 133.49,65.12 133.6,66.42 133.97,65.94 134.35,65.45 134.83,65.25 135.34,65.03 135.89,64.9 
					136.49,64.85 136.93,64.88 137.33,64.95 137.71,65.07 138.04,65.23 138.34,65.45 138.6,65.71 138.82,66 139.01,66.32 
					139.15,66.67 139.25,67.05 139.31,67.47 139.33,67.92 139.33,76.08 138.01,76.08 138.01,68.45 137.96,67.7 137.8,67.09 
					137.54,66.61 137.19,66.27 136.7,66.07 136.12,66 135.35,66.1 134.73,66.41 134.35,66.93 133.9,67.65 133.69,68.58 
					133.62,69.71 				"/>
			</g>
		</g>
	</g>
</g>
</svg>
