<?xml version="1.0" encoding="utf-8"?>
<!-- Generator: Adobe Illustrator 24.0.1, SVG Export Plug-In . SVG Version: 6.00 Build 0)  -->
<svg version="1.1" id="Layer_1" xmlns="http://www.w3.org/2000/svg" xmlns:xlink="http://www.w3.org/1999/xlink" x="0px" y="0px"
	 viewBox="0 0 113.39 113.39" style="enable-background:new 0 0 113.39 113.39;" xml:space="preserve">
<style type="text/css">
	.st0{fill:none;stroke:#000000;stroke-width:0.5;}
	.st1{fill:none;stroke:#000000;}
	.st2{fill:none;stroke:#000000;stroke-width:2;}
	.st3{fill:none;stroke:#000000;stroke-width:0.5;stroke-linecap:round;stroke-linejoin:round;}
</style>
<g>
	<g>
		<path class="st0" d="M90.71,17.01H22.68c-3.13,0-5.67,2.54-5.67,5.67h0v68.03h0c0,3.13,2.54,5.67,5.67,5.67h68.03
			c3.13,0,5.67-2.54,5.67-5.67V22.68C96.38,19.54,93.84,17.01,90.71,17.01z"/>
		<g>
			<path class="st0" d="M14.17,22.68v68.03h0c0,4.7,3.81,8.5,8.5,8.5h68.03c4.7,0,8.5-3.81,8.5-8.5V22.68c0-4.7-3.81-8.5-8.5-8.5
				H22.68C17.98,14.17,14.17,17.98,14.17,22.68"/>
		</g>
		<g>
			<path class="st2" d="M90.71,104.88c7.83,0,14.17-6.35,14.17-14.17V22.68c0-7.83-6.35-14.17-14.17-14.17H22.68
				C14.85,8.5,8.5,14.85,8.5,22.68v0v68.03v0c0,7.83,6.35,14.17,14.17,14.17H90.71z"/>
		</g>
	</g>
	<g>
		<g>
			<path class="st0" d="M56.69,39.79c-1.95,0-3.78-0.76-5.16-2.14c-0.78-0.78-0.78-2.05,0-2.83s2.05-0.78,2.83,0
				c1.25,1.25,3.42,1.25,4.67,0c0.78-0.78,2.05-0.78,2.83,0c0.78,0.78,0.78,2.05,0,2.83C60.48,39.03,58.64,39.79,56.69,39.79z"/>
		</g>
		<g>
			<path class="st0" d="M56.69,47.75c-3.35,0-6.71-1.1-9.44-3.31c-0.86-0.69-1-1.95-0.3-2.81c0.69-0.86,1.95-0.99,2.81-0.3
				c4.02,3.24,9.84,3.24,13.86,0c0.86-0.69,2.12-0.56,2.81,0.3c0.69,0.86,0.56,2.12-0.3,2.81C63.4,46.65,60.05,47.75,56.69,47.75z"
				/>
		</g>
		<g>
			<path class="st0" d="M56.69,55.73c-4.88,0-9.75-1.53-13.82-4.59c-0.88-0.66-1.06-1.92-0.4-2.8c0.67-0.88,1.92-1.06,2.8-0.4
				C52,53,61.39,53,68.11,47.94c0.88-0.66,2.14-0.49,2.8,0.4c0.66,0.88,0.49,2.14-0.4,2.8C66.45,54.2,61.57,55.73,56.69,55.73z"/>
		</g>
		<g>
			<path class="st0" d="M56.69,63.75c-6.39,0-12.78-1.98-18.23-5.94c-0.89-0.65-1.09-1.9-0.44-2.79c0.65-0.89,1.9-1.09,2.79-0.44
				c9.5,6.9,22.26,6.9,31.76,0c0.9-0.65,2.14-0.45,2.79,0.44c0.65,0.89,0.45,2.14-0.44,2.79C69.47,61.77,63.08,63.75,56.69,63.75z"
				/>
		</g>
		<g>
			<path class="st0" d="M56.69,71.71c-7.94,0-15.88-2.41-22.65-7.23c-0.9-0.64-1.11-1.89-0.47-2.79c0.64-0.9,1.89-1.11,2.79-0.47
				c12.16,8.66,28.5,8.66,40.66,0c0.9-0.64,2.15-0.43,2.79,0.47c0.64,0.9,0.43,2.15-0.47,2.79C72.57,69.3,64.63,71.71,56.69,71.71z"
				/>
		</g>
		<g>
			<path class="st0" d="M56.69,79.66c-9.49,0-18.98-2.84-27.08-8.53c-0.9-0.63-1.12-1.88-0.49-2.79c0.63-0.9,1.88-1.12,2.79-0.49
				c14.82,10.41,34.74,10.41,49.55,0c0.91-0.64,2.15-0.42,2.79,0.49c0.63,0.9,0.42,2.15-0.49,2.79
				C75.67,76.82,66.18,79.66,56.69,79.66z"/>
		</g>
	</g>
</g>
</svg>
