<?xml version="1.0" encoding="utf-8"?>
<!-- Generator: Adobe Illustrator 24.0.1, SVG Export Plug-In . SVG Version: 6.00 Build 0)  -->
<svg version="1.1" id="Layer_1" xmlns="http://www.w3.org/2000/svg" xmlns:xlink="http://www.w3.org/1999/xlink" x="0px" y="0px"
	 viewBox="0 0 238.53 69.29" style="enable-background:new 0 0 238.53 69.29;" xml:space="preserve">
<style type="text/css">
	.st0{fill:none;stroke:#000000;stroke-width:0.5;}
	.st1{fill:none;stroke:#000000;}
	.st2{fill:none;stroke:#000000;stroke-width:2;}
	.st3{fill:none;stroke:#000000;stroke-width:0.5;stroke-linecap:round;stroke-linejoin:round;}
</style>
<g>
	<g>
		<g>
			<polygon class="st0" points="19.59,24.48 27.04,24.48 23.29,14.67 			"/>
		</g>
	</g>
	<g>
		<g>
			<polygon class="st0" points="15.73,30.45 22.39,13.3 24.28,13.3 31.01,30.45 29.32,30.45 27.51,25.77 19.12,25.77 17.32,30.45 
							"/>
		</g>
	</g>
	<g>
		<g>
			<polygon class="st0" points="42.52,18.49 42.52,27.7 42.53,28.1 42.53,28.52 42.55,29.03 42.56,29.43 42.58,29.93 42.61,30.45 
				41.19,30.45 41.12,28.57 40.53,29.22 39.92,29.76 39.28,30.18 38.62,30.48 38,30.66 37.21,30.72 35.99,30.59 34.98,30.19 
				34.2,29.54 33.64,28.62 33.31,27.44 33.2,26 33.2,18.49 34.64,18.49 34.64,25.81 34.72,26.91 34.95,27.8 35.33,28.5 35.87,29.03 
				36.56,29.3 37.4,29.4 38,29.37 38.43,29.28 38.89,29.03 39.31,29.03 39.7,28.68 40.06,28.37 40.37,28 40.62,27.61 40.83,27.17 
				40.83,26.71 41.05,26.19 41.07,25.67 41.07,18.49 			"/>
		</g>
	</g>
	<g>
		<g>
			<polygon class="st0" points="47.55,30.45 47.55,19.63 45.24,19.63 45.24,18.49 47.55,18.49 47.55,15.64 47.62,14.86 47.84,14.19 
				48.21,13.68 48.73,13.31 49.33,13.1 50.22,13.02 50.39,13.03 50.59,13.04 50.83,13.06 51.1,13.09 51.41,13.12 51.75,13.17 
				51.75,14.39 51.74,14.38 51.73,14.38 51.72,14.38 51.7,14.37 51.68,14.37 51.66,14.37 50.72,14.34 50.41,14.35 50.14,14.38 
				49.9,14.43 49.69,14.5 49.52,14.58 49.33,14.69 49.33,14.86 49.18,14.86 49.11,15.19 49.06,15.43 49.03,15.7 49.02,16.01 
				49.02,18.49 51.75,18.49 51.75,19.63 49.02,19.63 49.02,30.45 			"/>
		</g>
	</g>
	<g>
		<g>
			<polygon class="st0" points="53.52,30.45 53.52,29.03 60.25,19.71 53.69,19.71 53.69,18.49 61.94,18.49 61.94,19.91 55.31,29.03 
				62.1,29.03 62.1,30.45 			"/>
		</g>
	</g>
	<g>
		<g>
			<polygon class="st0" points="74.4,18.49 74.4,27.7 74.4,28.1 74.41,28.52 74.42,29.03 74.43,29.43 74.46,29.93 74.48,30.45 
				73.06,30.45 72.99,28.57 72.4,29.22 71.79,29.76 71.15,30.18 70.49,30.48 69.8,30.66 69.17,30.72 67.86,30.59 66.85,30.19 
				66.07,29.54 65.51,28.62 65.18,27.44 65.07,26 65.07,18.49 66.52,18.49 66.52,25.81 66.59,26.91 66.82,27.8 67.21,28.5 
				67.74,29.03 68.43,29.3 69.17,29.4 69.81,29.37 70.3,29.28 70.76,29.03 71.19,29.03 71.58,28.68 72.01,28.37 72.24,28 
				72.49,27.61 72.69,27.17 72.83,26.71 72.92,26.19 72.95,25.67 72.95,18.49 			"/>
		</g>
	</g>
	<g>
		<g>
			<polygon class="st0" points="79.4,24.25 79.42,24.92 79.49,25.54 79.59,26.19 79.73,26.66 79.91,27.15 80.14,27.59 80.51,28.06 
				80.86,28.45 81.31,28.75 81.82,29.03 82.38,29.03 83.01,29.03 83.63,29.03 84.19,29.03 84.71,28.77 85.17,28.48 85.59,28.1 
				85.95,27.65 86.18,27.2 86.43,26.71 86.59,26.19 86.71,25.61 86.79,25 86.81,24.35 86.79,23.67 86.72,23.04 86.6,22.45 
				86.44,21.91 86.18,21.41 85.98,20.96 85.62,20.53 85.21,20.1 84.74,19.8 84.22,19.58 83.64,19.45 83.01,19.41 82.41,19.45 
				81.86,19.58 81.36,19.8 80.92,20.1 80.51,20.53 80.19,20.96 79.95,21.41 79.76,21.89 79.6,22.42 79.49,22.99 79.43,23.6 			"/>
		</g>
	</g>
	<g>
		<g>
			<polygon class="st0" points="88.29,29.46 88.25,30.36 88.16,31.18 87.99,31.86 87.76,32.59 87.47,33.17 87.11,33.67 86.64,34.13 
				86.18,34.5 85.45,34.7 84.73,35 83.93,35.13 83.04,35.17 81.62,35.07 80.51,34.7 79.54,34.31 78.88,33.65 78.46,32.8 
				78.29,31.86 79.91,31.86 80.03,32.41 80.31,32.95 80.75,33.37 81.36,33.67 82.13,33.84 83.06,33.9 84.22,33.79 85.17,33.47 
				85.91,32.92 86.43,32.15 86.75,31.16 86.85,29.96 86.85,28.16 86.33,28.84 85.75,29.38 85.1,29.81 84.38,30.12 83.61,30.3 
				82.76,30.36 81.96,30.31 81.23,30.15 80.51,29.89 79.98,29.52 79.45,29.03 78.99,28.47 78.65,27.9 78.37,27.28 78.16,26.6 
				78.01,25.87 77.91,25.09 77.88,24.25 77.92,23.36 78.02,22.64 78.18,21.92 78.41,21.25 78.71,20.53 79.07,20.07 79.55,19.51 
				80.09,19.05 80.69,18.69 81.36,18.44 82.09,18.28 82.88,18.23 83.68,18.29 84.43,18.48 85.12,18.78 85.75,19.2 86.33,19.75 
				86.85,20.53 86.91,18.49 88.42,18.49 88.38,19.21 88.34,19.84 88.32,20.53 88.3,20.86 88.29,21.24 88.29,21.55 			"/>
		</g>
	</g>
	<g>
		<g>
			<rect x="98.82" y="13.28" class="st0" width="1.78" height="1.95"/>
		</g>
	</g>
	<g>
		<g>
			<rect x="98.96" y="18.49" class="st0" width="1.38" height="11.95"/>
		</g>
	</g>
	<g>
		<g>
			<polygon class="st0" points="104.59,30.45 104.59,21.23 104.59,20.81 104.58,20.37 104.57,19.92 104.55,19.45 104.53,18.98 
				104.5,18.49 106.02,18.49 106.02,20.53 106.6,19.87 107.2,19.33 107.83,18.9 108.48,18.6 109.16,18.42 109.87,18.36 
				110.78,18.43 111.69,18.63 112.25,18.97 112.81,19.44 113.26,20.05 113.6,20.79 114.23,20.05 114.89,19.44 115.56,18.97 
				116.25,18.63 116.96,18.43 117.69,18.36 118.91,18.49 119.92,18.89 120.69,19.55 121.25,20.53 121.58,21.65 121.7,23.1 
				121.7,30.45 120.19,30.45 120.19,23.36 120.19,22.17 119.94,21.27 119.56,20.53 119.02,20.07 118.33,19.77 117.35,19.67 
				116.96,19.7 116.46,19.79 116.01,19.93 115.58,20.14 115.2,20.53 114.85,20.73 114.52,21.1 114.3,21.5 114.11,21.93 113.97,22.4 
				113.89,22.91 113.86,23.36 113.86,30.45 112.41,30.45 112.41,23.36 112.34,22.17 112.11,21.27 111.69,20.53 111.2,20.07 
				110.52,19.77 109.68,19.67 109.15,19.7 108.65,19.78 108.18,19.93 107.76,20.13 107.37,20.53 107.01,20.72 106.71,21.08 
				106.46,21.48 106.27,21.92 106.02,22.39 106.02,22.9 106.02,23.36 106.02,30.45 			"/>
		</g>
	</g>
	<g>
		<g>
			<polygon class="st0" points="134.09,29.03 137.81,29.03 138.43,29.03 139.02,29.03 139.56,29.03 140.03,28.76 140.54,28.59 
				140.97,28.38 141.45,28.06 141.84,27.7 142.14,27.28 142.36,26.82 142.49,26.19 142.53,25.74 142.39,24.65 141.98,23.76 
				141.29,23.07 140.32,22.58 139.07,22.28 137.55,22.18 134.09,22.18 			"/>
		</g>
	</g>
	<g>
		<g>
			<polygon class="st0" points="134.09,20.9 137.19,20.9 137.83,20.89 138.46,20.84 139.02,20.77 139.52,20.53 140.03,20.53 
				140.35,20.36 140.79,20.08 141.16,19.73 141.44,19.32 141.64,18.84 141.76,18.3 141.8,17.69 141.67,16.77 141.29,16.01 
				140.65,15.43 139.75,15.01 138.59,14.86 137.19,14.67 134.09,14.67 			"/>
		</g>
	</g>
	<g>
		<g>
			<polygon class="st0" points="132.59,30.45 132.59,13.3 136.92,13.3 138.91,13.42 140.53,13.78 141.8,14.38 142.7,15.23 
				143.24,16.32 143.42,17.69 143.33,18.58 143.06,19.39 142.62,20.09 141.99,20.53 141.18,21.12 140.19,21.45 140.77,21.58 
				141.31,21.75 141.81,21.95 142.27,22.2 142.68,22.49 143.05,22.81 143.4,23.2 143.69,23.63 143.91,24.1 144.07,24.6 
				144.17,25.14 144.2,25.71 144.01,27.16 143.43,28.34 142.48,29.26 141.14,29.92 139.41,30.31 137.19,30.45 			"/>
		</g>
	</g>
	<g>
		<g>
			<polygon class="st0" points="148.07,30.45 148.07,21.38 148.07,21.12 148.06,20.78 148.04,20.34 148.02,19.81 147.99,19.2 
				147.96,18.49 149.42,18.49 149.52,20.34 149.88,19.76 150.32,19.27 150.84,18.9 151.37,18.63 152.1,18.47 152.85,18.42 
				152.96,18.42 153.08,18.43 153.21,18.43 153.34,18.45 153.47,18.46 153.61,18.48 153.61,19.86 153.49,19.86 153.36,19.86 
				153.23,19.86 153.1,19.86 152.96,19.86 152.82,19.86 152.31,19.88 151.84,19.97 151.37,20.11 151.02,20.31 150.68,20.53 
				150.37,20.89 150.13,21.22 149.93,21.6 149.78,22.01 149.67,22.46 149.6,22.95 149.58,23.36 149.58,30.45 			"/>
		</g>
	</g>
	<g>
		<g>
			<polygon class="st0" points="162.88,24.32 161.13,24.32 160.55,24.33 159.87,24.38 159.48,24.45 159,24.55 158.56,24.68 
				158.15,24.83 157.65,25.09 157.24,25.4 157.03,25.76 156.7,26.19 156.57,26.62 156.52,27.13 156.55,27.5 156.61,27.84 
				156.72,28.15 156.88,28.43 157.03,28.69 157.31,29.03 157.57,29.03 157.85,29.24 158.16,29.35 158.49,29.43 158.85,29.48 
				159.24,29.5 159.87,29.47 160.22,29.39 160.67,29.26 161.09,29.03 161.48,28.84 161.83,28.55 162.15,28.21 162.42,27.84 
				162.7,27.44 162.7,27 162.85,26.53 162.88,26.03 			"/>
		</g>
	</g>
	<g>
		<g>
			<polygon class="st0" points="163.14,30.45 163.01,28.45 162.54,29.03 161.98,29.71 161.35,30.15 160.64,30.47 159.87,30.66 
				158.99,30.72 158.42,30.69 157.9,30.62 157.41,30.49 157.03,30.31 156.56,30.08 156.19,29.8 155.86,29.46 155.58,29.03 
				155.37,28.66 155.21,28.19 155.12,27.67 155.09,27.12 155.14,26.45 155.3,25.85 155.57,25.3 155.94,24.81 156.41,24.38 
				157.03,24 157.53,23.75 158.1,23.55 158.71,23.36 159.36,23.36 160.06,23.21 160.8,23.18 162.88,23.18 162.88,21.79 162.7,21.05 
				162.7,20.53 162.16,19.97 161.6,19.64 160.88,19.43 159.87,19.37 159.15,19.43 158.46,19.6 157.9,19.9 157.48,20.32 
				157.21,20.85 157.03,21.51 155.58,21.51 155.81,20.53 156.24,19.69 156.87,19.05 157.7,18.6 158.73,18.32 159.87,18.23 
				161.11,18.31 162.08,18.53 162.89,18.9 163.51,19.41 163.97,20.08 164.26,20.89 164.3,21.12 164.34,21.4 164.37,21.73 
				164.39,22.1 164.4,22.52 164.4,22.98 164.4,28.19 164.41,28.52 164.42,28.87 164.45,29.24 164.48,29.62 164.52,30.02 
				164.58,30.45 			"/>
		</g>
	</g>
	<g>
		<g>
			<polygon class="st0" points="168.37,30.45 168.37,21.23 168.37,20.81 168.37,20.37 168.37,19.92 168.37,19.45 168.37,18.98 
				168.37,18.49 169.74,18.49 169.81,20.53 170.4,19.87 171.01,19.33 171.64,18.9 172.3,18.6 172.98,18.42 173.69,18.36 
				174.93,18.49 175.94,18.89 176.87,19.55 177.3,20.53 177.64,21.65 177.75,23.1 177.75,30.45 176.27,30.45 176.27,23.36 
				176.26,22.73 176.21,22.23 176.15,21.78 176.05,21.38 175.92,21.03 175.77,20.73 175.52,20.53 175.22,20.14 174.87,19.93 
				174.47,19.79 174.04,19.7 173.5,19.67 172.96,19.7 172.46,19.79 172,19.93 171.57,20.14 171.2,20.53 170.82,20.73 170.51,21.1 
				170.26,21.5 170.06,21.93 169.92,22.4 169.84,22.91 169.81,23.36 169.81,30.45 			"/>
		</g>
	</g>
	<g>
		<g>
			<polygon class="st0" points="191.47,13.3 191.47,27.4 191.47,27.57 191.47,27.76 191.48,28 191.49,28.27 191.51,28.58 
				191.53,29.03 191.61,30.45 190.1,30.45 190.03,28.48 189.51,29.03 188.93,29.72 188.21,30.16 187.61,30.47 186.86,30.66 
				186.06,30.72 185.38,30.67 184.52,30.51 183.85,30.24 183.25,29.87 182.7,29.39 182.23,28.81 181.87,28.22 181.58,27.59 
				181.35,26.9 181.19,26.19 181.1,25.37 181.06,24.53 181.09,23.67 181.18,22.86 181.34,22.1 181.55,21.41 181.82,20.77 
				182.15,20.19 182.54,19.59 183.16,19.1 183.77,18.72 184.45,18.45 185.2,18.29 186.01,18.23 186.83,18.3 187.58,18.48 
				188.21,18.79 188.9,19.22 189.48,19.78 189.99,20.53 189.99,13.3 			"/>
		</g>
	</g>
	<g>
		<g>
			<polygon class="st0" points="189.99,24.46 189.97,23.79 189.9,23.17 189.78,22.58 189.61,22.04 189.4,21.54 189.14,21.08 
				188.79,20.53 188.37,20.19 187.91,19.88 187.39,19.66 186.82,19.53 186.19,19.48 185.57,19.53 185,19.66 184.49,19.89 
				184.04,20.21 183.65,20.53 183.32,21.12 183.09,21.57 182.91,22.07 182.77,22.62 182.54,23.21 182.54,23.85 182.54,24.53 
				182.54,25.21 182.54,25.84 182.78,26.43 182.93,26.98 183.12,27.48 183.36,27.93 183.7,28.42 184.1,28.82 184.56,29.03 
				185.07,29.35 185.64,29.48 186.26,29.53 186.89,29.48 187.46,29.35 187.97,29.03 188.43,28.8 188.84,28.39 189.19,27.89 
				189.43,27.43 189.63,26.92 189.79,26.37 189.9,25.78 189.97,25.14 			"/>
		</g>
	</g>
	<g>
		<g>
			<polygon class="st0" points="196.45,30.45 196.45,19.63 194.14,19.63 194.14,18.49 196.45,18.49 196.45,15.64 196.52,14.86 
				196.71,14.19 197.11,13.68 197.63,13.31 198.3,13.1 199.12,13.02 199.29,13.03 199.55,13.04 199.73,13.06 200,13.09 
				200.31,13.12 200.65,13.17 200.65,14.39 200.64,14.38 200.63,14.38 200.62,14.38 200.6,14.37 200.58,14.37 200.57,14.37 
				199.55,14.34 199.31,14.35 199.04,14.38 198.8,14.43 198.59,14.5 198.42,14.58 198.28,14.69 198.17,14.86 198.09,14.86 
				198.02,15.19 197.97,15.43 197.94,15.7 197.93,16.01 197.93,18.49 200.65,18.49 200.65,19.63 197.93,19.63 197.93,30.45 			"/>
		</g>
	</g>
	<g>
		<g>
			<polygon class="st0" points="210.37,24.32 208.62,24.32 208.05,24.33 207.48,24.38 206.97,24.45 206.49,24.55 206.04,24.68 
				205.63,24.83 205.22,25.09 204.73,25.4 204.42,25.76 204.19,26.19 204.06,26.62 204.01,27.13 204.03,27.5 204.1,27.84 
				204.21,28.15 204.36,28.43 204.56,28.69 204.8,29.03 205.06,29.03 205.22,29.24 205.65,29.35 205.98,29.43 206.34,29.48 
				206.72,29.5 207.23,29.47 207.71,29.39 208.05,29.26 208.57,29.03 208.96,28.84 209.32,28.55 209.64,28.21 209.9,27.84 
				210.11,27.44 210.25,27 210.34,26.53 210.37,26.03 			"/>
		</g>
	</g>
	<g>
		<g>
			<polygon class="st0" points="210.63,30.45 210.5,28.45 210.02,29.03 209.47,29.71 208.84,30.15 208.05,30.47 207.34,30.66 
				206.48,30.72 205.91,30.69 205.38,30.62 204.9,30.49 204.45,30.31 204.04,30.08 203.68,29.8 203.34,29.46 203.07,29.03 
				202.85,28.66 202.7,28.19 202.61,27.67 202.58,27.12 202.63,26.45 202.79,25.85 203.05,25.3 203.42,24.81 203.9,24.38 204.48,24 
				205.01,23.75 205.58,23.55 206.2,23.36 206.85,23.36 207.55,23.21 208.29,23.18 210.37,23.18 210.37,21.79 210.29,21.05 
				210.05,20.53 209.65,19.97 209.09,19.64 208.36,19.43 207.48,19.37 206.64,19.43 205.94,19.6 205.38,19.9 204.97,20.32 
				204.7,20.85 204.57,21.51 203.06,21.51 203.29,20.53 203.72,19.69 204.35,19.05 205.22,18.6 206.22,18.32 207.45,18.23 
				208.6,18.31 209.57,18.53 210.37,18.9 210.88,19.41 211.46,20.08 211.75,20.89 211.79,21.12 211.82,21.4 211.85,21.73 
				211.87,22.1 211.88,22.52 211.89,22.98 211.89,28.19 211.89,28.52 211.91,28.87 211.93,29.24 211.97,29.62 212.01,30.02 
				212.06,30.45 			"/>
		</g>
	</g>
	<g>
		<g>
			<rect x="215.78" y="13.3" class="st0" width="1.48" height="17.15"/>
		</g>
	</g>
	<g>
		<g>
			<rect x="221.32" y="13.3" class="st0" width="1.48" height="17.15"/>
		</g>
	</g>
	<g>
		<g>
			<polygon class="st0" points="43.28,55.95 43.28,46.74 43.28,46.31 43.27,45.88 43.26,45.42 43.25,44.96 43.22,44.49 43.2,44 
				44.65,44 44.72,46.03 45.31,45.38 45.92,44.83 46.5,44.41 47.21,44.11 47.89,43.93 48.59,43.87 49.83,44 50.85,44.4 51.64,45.05 
				52.17,46.03 52.54,47.16 52.66,48.61 52.66,55.95 51.18,55.95 51.18,48.87 51.16,48.23 51.12,47.74 51.05,47.29 50.95,46.89 
				50.83,46.54 50.67,46.24 50.43,46.03 50.13,45.65 49.78,45.44 49.33,45.29 48.92,45.21 48.41,45.18 47.87,45.21 47.37,45.29 
				46.9,45.44 46.5,45.65 46.08,46.03 45.72,46.24 45.42,46.6 45.17,47.01 44.97,47.44 44.83,47.91 44.75,48.41 44.72,48.87 
				44.72,55.95 			"/>
		</g>
	</g>
	<g>
		<g>
			<rect x="56.47" y="38.79" class="st0" width="1.78" height="1.95"/>
		</g>
	</g>
	<g>
		<g>
			<rect x="56.62" y="44" class="st0" width="1.48" height="11.95"/>
		</g>
	</g>
	<g>
		<g>
			<polygon class="st0" points="71.34,52.32 71.26,52.94 71.11,53.51 70.91,54.03 70.65,54.54 70.33,54.91 69.95,55.28 69.53,55.57 
				69.17,55.81 68.56,56 68.01,56.13 67.41,56.21 66.78,56.24 65.93,56.19 65.16,56.04 64.45,55.79 63.82,55.44 63.25,55 
				62.76,54.54 62.38,53.88 62.06,53.25 61.82,52.56 61.65,51.7 61.54,51 61.51,50.13 61.54,49.2 61.64,48.35 61.8,47.56 
				62.03,46.84 62.32,46.19 62.67,45.61 63.16,45.03 63.73,44.55 64.38,44.19 65.1,43.92 65.9,43.77 66.78,43.71 67.41,43.74 
				68.01,43.82 68.56,43.96 69.17,44.16 69.53,44.41 69.95,44.72 70.34,45.1 70.67,45.52 70.93,46.03 71.13,46.52 71.25,47.1 
				71.31,47.72 69.69,47.72 69.64,47.3 69.55,46.91 69.42,46.54 69.17,46.21 69.17,46.03 68.8,45.64 68.52,45.4 68.22,45.21 
				67.88,45.05 67.52,44.95 67.13,44.88 66.7,44.86 65.59,45.01 64.69,45.44 63.98,46.03 63.5,47.17 63.17,48.47 63.07,50.06 
				63.17,51.55 63.5,52.77 63.98,53.73 64.69,54.54 65.59,54.81 66.7,54.95 67.52,54.88 68.21,54.54 68.79,54.29 69.17,53.78 
				69.57,53.13 69.78,52.32 			"/>
		</g>
	</g>
	<g>
		<g>
			<polygon class="st0" points="74.64,55.95 74.64,38.81 76.09,38.81 76.09,46.03 76.66,45.36 77.26,44.82 77.89,44.41 78.55,44.11 
				79.24,43.93 79.95,43.87 81.19,44 82.2,44.4 82.98,45.05 83.55,46.03 83.88,47.16 84,48.61 84,55.95 82.52,55.95 82.52,48.87 
				82.44,47.68 82.21,46.78 81.83,46.03 81.29,45.58 80.51,45.28 79.76,45.18 79.23,45.21 78.73,45.29 78.26,45.44 77.84,45.65 
				77.45,46.03 77.09,46.24 76.79,46.6 76.54,47.01 76.34,47.44 76.2,47.91 76.12,48.41 76.09,48.87 76.09,55.95 			"/>
		</g>
	</g>
	<g>
		<g>
			<polygon class="st0" points="90.25,52.84 90.26,53.17 90.29,53.47 90.33,53.73 90.38,53.97 90.45,54.17 90.54,54.35 90.68,54.54 
				90.86,54.68 91.06,54.8 91.31,54.88 91.58,54.93 91.85,54.95 92.09,54.94 92.3,54.93 92.51,54.9 92.72,54.86 92.94,54.81 
				93.17,54.75 93.17,56.04 92.83,56.11 92.51,56.17 92.23,56.21 91.85,56.24 91.85,56.26 91.55,56.27 90.7,56.19 90.01,55.96 
				89.47,55.57 89.01,55.03 88.85,54.34 88.78,53.49 88.78,45.13 86.44,45.13 86.44,44 88.78,44 88.78,41.52 90.25,40.87 90.25,44 
				92.94,44 92.94,45.13 90.25,45.13 			"/>
		</g>
	</g>
	<g>
		<g>
			<polygon class="st0" points="111.39,50.04 111.37,49.35 111.31,48.71 111.21,48.12 111.06,47.57 110.87,47.07 110.65,46.61 
				110.31,46.03 109.92,45.7 109.47,45.38 108.85,45.16 108.39,45.02 107.76,44.98 107.13,45.02 106.55,45.15 106.02,45.37 
				105.56,45.68 105.15,46.03 104.79,46.57 104.54,47.03 104.33,47.53 104.17,48.08 104.05,48.67 103.98,49.3 103.96,49.97 
				103.98,50.65 104.05,51.29 104.16,51.88 104.31,52.43 104.51,52.94 104.75,53.4 105.1,53.9 105.5,54.31 106.02,54.54 
				106.48,54.85 107.06,54.99 107.69,55.04 108.31,54.99 108.85,54.86 109.39,54.54 109.85,54.33 110.25,53.93 110.6,53.44 
				110.84,52.99 111.04,52.48 111.19,51.94 111.3,51.35 111.37,50.72 			"/>
		</g>
	</g>
	<g>
		<g>
			<polygon class="st0" points="103.96,46.03 104.49,45.26 105.09,44.7 105.73,44.27 106.44,43.96 107.2,43.77 108.02,43.71 
				108.85,43.77 109.57,43.93 110.24,44.21 110.84,44.59 111.38,45.09 111.84,45.69 112.17,46.28 112.43,46.92 112.64,47.61 
				112.79,48.37 112.88,49.18 112.91,50.04 112.88,50.88 112.78,51.7 112.62,52.41 112.39,53.1 112.1,53.73 111.69,54.32 
				111.26,54.9 110.72,55.38 110.11,55.75 109.45,56.01 108.85,56.17 107.92,56.23 107.12,56.16 106.37,55.98 105.68,55.67 
				105.05,55.23 104.47,54.54 103.96,53.99 103.87,55.95 102.37,55.95 102.48,52.91 102.48,38.81 103.96,38.81 			"/>
		</g>
	</g>
	<g>
		<g>
			<polygon class="st0" points="117.35,48.87 124.84,48.87 124.79,48.43 124.69,47.88 124.54,47.38 124.35,46.92 124.12,46.49 
				123.83,46.03 123.48,45.74 123.02,45.43 122.65,45.19 122.17,45.03 121.65,44.92 121.08,44.89 120.19,45 119.21,45.35 
				118.51,46.03 117.96,46.72 117.56,47.75 			"/>
		</g>
	</g>
	<g>
		<g>
			<polygon class="st0" points="126.27,52.17 126.15,52.81 125.86,53.4 125.7,53.94 125.37,54.54 124.99,54.87 124.54,55.25 
				124.07,55.55 123.56,55.8 123.02,55.99 122.41,56.13 121.78,56.21 121.11,56.24 120.19,56.19 119.47,56.04 118.75,55.79 
				118.1,55.44 117.51,55 116.99,54.54 116.58,53.86 116.24,53.22 115.98,52.52 115.79,51.7 115.68,50.95 115.64,50.07 
				115.68,49.19 115.79,48.36 115.98,47.58 116.25,46.87 116.59,46.21 117,45.61 117.54,45.03 118.14,44.55 118.8,44.19 
				119.53,43.92 120.19,43.77 121.18,43.71 122,43.76 122.75,43.91 123.45,44.16 124.07,44.5 124.64,44.95 125.14,45.49 
				125.54,46.03 125.86,46.68 126.12,47.35 126.3,48.09 126.41,48.87 126.45,49.73 126.45,50.14 117.35,50.14 117.35,50.83 
				117.35,51.48 117.5,52.07 117.68,52.62 117.9,53.11 118.18,53.56 118.56,54 118.99,54.37 119.48,54.54 120.03,54.86 
				120.63,54.98 121.29,55.02 121.73,55 122.15,54.94 122.55,54.83 123.02,54.68 123.27,54.54 123.6,54.26 123.9,53.99 
				124.16,53.68 124.38,53.35 124.56,52.99 124.7,52.59 124.8,52.17 			"/>
		</g>
	</g>
	<g>
		<g>
			<polygon class="st0" points="129.5,55.95 129.5,46.74 129.5,46.31 129.49,45.88 129.48,45.42 129.46,44.96 129.44,44.49 
				129.42,44 130.87,44 130.94,46.03 131.53,45.38 132.13,44.83 132.77,44.41 133.42,44.11 134.11,43.93 134.81,43.87 136.05,44 
				137.19,44.4 137.86,45.05 138.42,46.03 138.76,47.16 138.87,48.61 138.87,55.95 137.4,55.95 137.4,48.87 137.38,48.23 
				137.34,47.74 137.19,47.29 137.19,46.89 137.05,46.54 136.89,46.24 136.65,46.03 136.35,45.65 136,45.44 135.59,45.29 
				135.13,45.21 134.63,45.18 134.09,45.21 133.59,45.29 133.12,45.44 132.69,45.65 132.3,46.03 131.94,46.24 131.53,46.6 
				131.38,47.01 131.19,47.44 131.05,47.91 130.97,48.41 130.94,48.87 130.94,55.95 			"/>
		</g>
	</g>
	<g>
		<g>
			<polygon class="st0" points="152.12,44 152.12,53.21 152.12,53.61 152.13,54.03 152.14,54.54 152.16,54.94 152.18,55.44 
				152.2,55.95 150.78,55.95 150.71,54.07 150.13,54.73 149.51,55.27 148.88,55.69 148.21,55.99 147.52,56.17 146.81,56.23 
				145.7,56.1 144.58,55.7 143.8,55.05 143.24,54.13 142.86,52.95 142.86,51.51 142.86,44 144.24,44 144.24,51.32 144.32,52.41 
				144.55,53.31 144.93,54.01 145.46,54.54 146.15,54.81 147,54.91 147.53,54.88 148.02,54.79 148.53,54.54 148.91,54.54 
				149.3,54.19 149.65,53.87 149.96,53.51 150.22,53.11 150.41,52.68 150.56,52.21 150.64,51.7 150.67,51.18 150.67,44 			"/>
		</g>
	</g>
	<g>
		<g>
			<polygon class="st0" points="158.53,52.84 158.54,53.17 158.57,53.47 158.61,53.73 158.66,53.97 158.73,54.17 158.82,54.35 
				158.96,54.54 159.14,54.68 159.34,54.8 159.59,54.88 159.87,54.93 160.17,54.95 160.37,54.94 160.58,54.93 160.79,54.9 
				161,54.86 161.22,54.81 161.45,54.75 161.45,56.04 161.11,56.11 160.79,56.17 160.51,56.21 160.25,56.24 160.03,56.26 
				159.87,56.27 158.98,56.19 158.29,55.96 157.75,55.57 157.36,55.03 157.03,54.34 157.03,53.49 157.03,45.13 154.72,45.13 
				154.72,44 157.03,44 157.03,41.52 158.53,40.87 158.53,44 161.22,44 161.22,45.13 158.53,45.13 			"/>
		</g>
	</g>
	<g>
		<g>
			<polygon class="st0" points="163.08,55.95 163.08,54.54 169.81,45.22 163.25,45.22 163.25,44 171.51,44 171.51,45.42 
				164.88,54.54 171.66,54.54 171.66,55.95 			"/>
		</g>
	</g>
	<g>
		<g>
			<polygon class="st0" points="175.71,48.87 183.23,48.87 183.18,48.43 183.08,47.88 182.94,47.38 182.75,46.92 182.54,46.49 
				182.23,46.03 181.87,45.74 181.48,45.43 181.04,45.19 180.56,45.03 180.04,44.92 179.47,44.89 178.46,45 177.61,45.35 
				176.87,46.03 176.35,46.72 175.95,47.75 			"/>
		</g>
	</g>
	<g>
		<g>
			<polygon class="st0" points="184.67,52.17 184.54,52.81 184.35,53.4 184.09,53.94 183.77,54.54 183.38,54.87 182.93,55.25 
				182.54,55.55 181.95,55.8 181.4,55.99 180.81,56.13 180.17,56.21 179.5,56.24 178.65,56.19 177.86,56.04 177.14,55.79 
				176.49,55.44 175.9,55 175.38,54.54 174.97,53.86 174.63,53.22 174.37,52.52 174.18,51.7 174.04,50.95 174.04,50.07 
				174.04,49.19 174.18,48.36 174.37,47.58 174.64,46.87 174.98,46.21 175.4,45.61 175.93,45.03 176.53,44.55 177.19,44.19 
				177.92,43.92 178.71,43.77 179.71,43.71 180.39,43.76 181.15,43.91 181.84,44.16 182.54,44.5 183.03,44.95 183.53,45.49 
				183.93,46.03 184.26,46.68 184.51,47.35 184.69,48.09 184.8,48.87 184.84,49.73 184.84,50.14 175.67,50.14 175.69,50.83 
				175.77,51.48 175.89,52.07 176.07,52.62 176.3,53.11 176.57,53.56 176.87,54 177.38,54.37 177.87,54.54 178.42,54.86 
				179.03,54.98 179.71,55.02 180.13,55 180.54,54.94 180.94,54.83 181.31,54.68 181.67,54.54 182,54.26 182.3,53.99 182.54,53.68 
				182.78,53.35 182.95,52.99 183.09,52.59 183.19,52.17 			"/>
		</g>
	</g>
	<g>
		<g>
			<polygon class="st0" points="187.89,55.95 187.89,46.74 187.89,46.31 187.88,45.88 187.87,45.42 187.86,44.96 187.83,44.49 
				187.81,44 189.26,44 189.33,46.03 189.92,45.38 190.53,44.83 191.04,44.41 191.82,44.11 192.5,43.93 193.2,43.87 194.45,44 
				195.46,44.4 196.25,45.05 196.71,46.03 197.15,47.16 197.27,48.61 197.27,55.95 195.79,55.95 195.79,48.87 195.77,48.23 
				195.73,47.74 195.66,47.29 195.56,46.89 195.44,46.54 195.29,46.24 195.04,46.03 194.74,45.65 194.39,45.44 193.88,45.29 
				193.53,45.21 193.02,45.18 192.48,45.21 191.98,45.29 191.51,45.44 191.04,45.65 190.69,46.03 190.33,46.24 190.03,46.6 
				189.78,47.01 189.58,47.44 189.44,47.91 189.36,48.41 189.33,48.87 189.33,55.95 			"/>
		</g>
	</g>
</g>
</svg>
